<ttFont>
<head>
    <!-- Most of this table will be recalculated by the compiler -->
    <tableVersion value="1.0"/>
    <fontRevision value="1.0"/>
    <checkSumAdjustment value="0xe927673c"/>
    <magicNumber value="0x5f0f3cf5"/>
    <flags value="00000000 00011001"/>
    <unitsPerEm value="1000"/>
    <created value="Thu Mar  1 04:33:35 2001"/>
    <modified value="Thu Mar  1 04:33:35 2001"/>
    <xMin value="0"/>
    <yMin value="-19"/>
    <xMax value="780"/>
    <yMax value="999"/>
    <macStyle value="00000000 00000000"/>
    <lowestRecPPEM value="0"/>
    <fontDirectionHint value="0"/>
    <indexToLocFormat value="0"/>
    <glyphDataFormat value="0"/>
  </head>
    <TTGlyph name="A" xMin="12" yMin="-5" xMax="652" yMax="992">
      <contour>
        <pt x="153" y="7" on="1"/>
        <pt x="253" y="-5" on="1"/>
        <pt x="272" y="14" on="1"/>
        <pt x="357" y="42" on="1"/>
        <pt x="364" y="49" on="1"/>
        <pt x="385" y="56" on="1"/>
        <pt x="399" y="70" on="1"/>
        <pt x="448" y="84" on="1"/>
        <pt x="504" y="113" on="1"/>
        <pt x="532" y="155" on="1"/>
        <pt x="554" y="169" on="1"/>
        <pt x="596" y="211" on="1"/>
        <pt x="652" y="239" on="1"/>
        <pt x="652" y="309" on="1"/>
        <pt x="638" y="366" on="1"/>
        <pt x="638" y="696" on="1"/>
        <pt x="617" y="802" on="1"/>
        <pt x="617" y="951" on="1"/>
        <pt x="455" y="992" on="1"/>
        <pt x="392" y="992" on="1"/>
        <pt x="328" y="970" on="1"/>
        <pt x="216" y="914" on="1"/>
        <pt x="181" y="900" on="1"/>
        <pt x="110" y="865" on="1"/>
        <pt x="75" y="851" on="1"/>
        <pt x="47" y="837" on="1"/>
        <pt x="26" y="830" on="1"/>
        <pt x="26" y="795" on="1"/>
        <pt x="54" y="696" on="1"/>
        <pt x="54" y="443" on="1"/>
        <pt x="34" y="403" on="1"/>
        <pt x="25" y="82" on="1"/>
        <pt x="12" y="42" on="1"/>
        <pt x="12" y="14" on="1"/>
        <pt x="153" y="7" on="1"/>
      </contour>
      <contour>
        <pt x="60" y="49" on="1"/>
        <pt x="69" y="368" on="1"/>
        <pt x="89" y="429" on="1"/>
        <pt x="89" y="738" on="1"/>
        <pt x="96" y="731" on="1"/>
        <pt x="184" y="714" on="1"/>
        <pt x="202" y="696" on="1"/>
        <pt x="209" y="218" on="1"/>
        <pt x="219" y="39" on="1"/>
        <pt x="60" y="49" on="1"/>
      </contour>
      <contour>
        <pt x="244" y="169" on="1"/>
        <pt x="244" y="696" on="1"/>
        <pt x="272" y="710" on="1"/>
        <pt x="279" y="717" on="1"/>
        <pt x="293" y="724" on="1"/>
        <pt x="395" y="800" on="1"/>
        <pt x="473" y="826" on="1"/>
        <pt x="514" y="867" on="1"/>
        <pt x="574" y="883" on="1"/>
        <pt x="589" y="745" on="1"/>
        <pt x="603" y="689" on="1"/>
        <pt x="603" y="338" on="1"/>
        <pt x="619" y="273" on="1"/>
        <pt x="575" y="246" on="1"/>
        <pt x="568" y="239" on="1"/>
        <pt x="517" y="205" on="1"/>
        <pt x="469" y="134" on="1"/>
        <pt x="462" y="457" on="1"/>
        <pt x="490" y="485" on="1"/>
        <pt x="497" y="506" on="1"/>
        <pt x="511" y="520" on="1"/>
        <pt x="511" y="598" on="1"/>
        <pt x="493" y="635" on="1"/>
        <pt x="455" y="654" on="1"/>
        <pt x="352" y="654" on="1"/>
        <pt x="328" y="619" on="1"/>
        <pt x="328" y="520" on="1"/>
        <pt x="352" y="474" on="1"/>
        <pt x="385" y="457" on="1"/>
        <pt x="415" y="449" on="1"/>
        <pt x="427" y="415" on="1"/>
        <pt x="427" y="118" on="1"/>
        <pt x="359" y="101" on="1"/>
        <pt x="332" y="74" on="1"/>
        <pt x="279" y="63" on="1"/>
        <pt x="258" y="56" on="1"/>
        <pt x="244" y="169" on="1"/>
      </contour>
      <contour>
        <pt x="385" y="506" on="1"/>
        <pt x="364" y="549" on="1"/>
        <pt x="364" y="591" on="1"/>
        <pt x="371" y="598" on="1"/>
        <pt x="381" y="619" on="1"/>
        <pt x="441" y="619" on="1"/>
        <pt x="469" y="591" on="1"/>
        <pt x="476" y="563" on="1"/>
        <pt x="469" y="534" on="1"/>
        <pt x="462" y="527" on="1"/>
        <pt x="436" y="492" on="1"/>
        <pt x="413" y="492" on="1"/>
        <pt x="385" y="506" on="1"/>
      </contour>
      <contour>
        <pt x="207" y="747" on="1"/>
        <pt x="146" y="760" on="1"/>
        <pt x="103" y="781" on="1"/>
        <pt x="74" y="811" on="1"/>
        <pt x="139" y="832" on="1"/>
        <pt x="179" y="859" on="1"/>
        <pt x="251" y="886" on="1"/>
        <pt x="373" y="947" on="1"/>
        <pt x="432" y="959" on="1"/>
        <pt x="554" y="928" on="1"/>
        <pt x="554" y="918" on="1"/>
        <pt x="490" y="900" on="1"/>
        <pt x="455" y="865" on="1"/>
        <pt x="427" y="851" on="1"/>
        <pt x="378" y="837" on="1"/>
        <pt x="371" y="830" on="1"/>
        <pt x="286" y="767" on="1"/>
        <pt x="221" y="734" on="1"/>
        <pt x="207" y="747" on="1"/>
      </contour>
    </TTGlyph>
    <TTGlyph name="B" xMin="12" yMin="2" xMax="652" yMax="999">
      <contour>
        <pt x="153" y="14" on="1"/>
        <pt x="253" y="2" on="1"/>
        <pt x="272" y="21" on="1"/>
        <pt x="357" y="49" on="1"/>
        <pt x="364" y="56" on="1"/>
        <pt x="385" y="63" on="1"/>
        <pt x="399" y="77" on="1"/>
        <pt x="448" y="91" on="1"/>
        <pt x="504" y="120" on="1"/>
        <pt x="532" y="162" on="1"/>
        <pt x="554" y="176" on="1"/>
        <pt x="596" y="218" on="1"/>
        <pt x="652" y="246" on="1"/>
        <pt x="652" y="316" on="1"/>
        <pt x="638" y="373" on="1"/>
        <pt x="638" y="584" on="1"/>
        <pt x="631" y="584" on="1"/>
        <pt x="610" y="612" on="1"/>
        <pt x="624" y="640" on="1"/>
        <pt x="636" y="713" on="1"/>
        <pt x="617" y="809" on="1"/>
        <pt x="617" y="958" on="1"/>
        <pt x="455" y="999" on="1"/>
        <pt x="392" y="999" on="1"/>
        <pt x="328" y="977" on="1"/>
        <pt x="216" y="921" on="1"/>
        <pt x="181" y="907" on="1"/>
        <pt x="110" y="872" on="1"/>
        <pt x="75" y="858" on="1"/>
        <pt x="47" y="844" on="1"/>
        <pt x="26" y="837" on="1"/>
        <pt x="26" y="802" on="1"/>
        <pt x="54" y="703" on="1"/>
        <pt x="54" y="450" on="1"/>
        <pt x="34" y="410" on="1"/>
        <pt x="25" y="89" on="1"/>
        <pt x="12" y="49" on="1"/>
        <pt x="12" y="21" on="1"/>
        <pt x="153" y="14" on="1"/>
      </contour>
      <contour>
        <pt x="60" y="56" on="1"/>
        <pt x="69" y="375" on="1"/>
        <pt x="89" y="436" on="1"/>
        <pt x="89" y="745" on="1"/>
        <pt x="96" y="738" on="1"/>
        <pt x="184" y="721" on="1"/>
        <pt x="202" y="703" on="1"/>
        <pt x="209" y="225" on="1"/>
        <pt x="219" y="46" on="1"/>
        <pt x="60" y="56" on="1"/>
      </contour>
      <contour>
        <pt x="244" y="176" on="1"/>
        <pt x="244" y="703" on="1"/>
        <pt x="272" y="717" on="1"/>
        <pt x="279" y="724" on="1"/>
        <pt x="293" y="731" on="1"/>
        <pt x="395" y="807" on="1"/>
        <pt x="473" y="833" on="1"/>
        <pt x="514" y="874" on="1"/>
        <pt x="574" y="890" on="1"/>
        <pt x="589" y="752" on="1"/>
        <pt x="602" y="701" on="1"/>
        <pt x="575" y="647" on="1"/>
        <pt x="554" y="619" on="1"/>
        <pt x="554" y="591" on="1"/>
        <pt x="575" y="577" on="1"/>
        <pt x="589" y="563" on="1"/>
        <pt x="603" y="556" on="1"/>
        <pt x="603" y="345" on="1"/>
        <pt x="619" y="280" on="1"/>
        <pt x="575" y="253" on="1"/>
        <pt x="568" y="246" on="1"/>
        <pt x="546" y="232" on="1"/>
        <pt x="443" y="129" on="1"/>
        <pt x="359" y="108" on="1"/>
        <pt x="332" y="81" on="1"/>
        <pt x="279" y="70" on="1"/>
        <pt x="258" y="63" on="1"/>
        <pt x="244" y="176" on="1"/>
      </contour>
      <contour>
        <pt x="378" y="359" on="1"/>
        <pt x="406" y="330" on="1"/>
        <pt x="494" y="330" on="1"/>
        <pt x="525" y="394" on="1"/>
        <pt x="525" y="506" on="1"/>
        <pt x="511" y="520" on="1"/>
        <pt x="511" y="563" on="1"/>
        <pt x="524" y="624" on="1"/>
        <pt x="504" y="682" on="1"/>
        <pt x="476" y="710" on="1"/>
        <pt x="385" y="710" on="1"/>
        <pt x="364" y="689" on="1"/>
        <pt x="364" y="543" on="1"/>
        <pt x="420" y="527" on="1"/>
        <pt x="420" y="513" on="1"/>
        <pt x="378" y="471" on="1"/>
        <pt x="378" y="359" on="1"/>
      </contour>
      <contour>
        <pt x="413" y="380" on="1"/>
        <pt x="413" y="429" on="1"/>
        <pt x="429" y="471" on="1"/>
        <pt x="462" y="492" on="1"/>
        <pt x="490" y="473" on="1"/>
        <pt x="490" y="422" on="1"/>
        <pt x="462" y="366" on="1"/>
        <pt x="441" y="366" on="1"/>
        <pt x="413" y="380" on="1"/>
      </contour>
      <contour>
        <pt x="399" y="579" on="1"/>
        <pt x="399" y="654" on="1"/>
        <pt x="420" y="675" on="1"/>
        <pt x="441" y="675" on="1"/>
        <pt x="473" y="643" on="1"/>
        <pt x="487" y="601" on="1"/>
        <pt x="476" y="570" on="1"/>
        <pt x="427" y="570" on="1"/>
        <pt x="399" y="579" on="1"/>
      </contour>
      <contour>
        <pt x="207" y="754" on="1"/>
        <pt x="146" y="767" on="1"/>
        <pt x="103" y="788" on="1"/>
        <pt x="74" y="818" on="1"/>
        <pt x="139" y="839" on="1"/>
        <pt x="179" y="866" on="1"/>
        <pt x="251" y="893" on="1"/>
        <pt x="373" y="954" on="1"/>
        <pt x="432" y="966" on="1"/>
        <pt x="554" y="935" on="1"/>
        <pt x="554" y="925" on="1"/>
        <pt x="490" y="907" on="1"/>
        <pt x="455" y="872" on="1"/>
        <pt x="427" y="858" on="1"/>
        <pt x="378" y="844" on="1"/>
        <pt x="371" y="837" on="1"/>
        <pt x="286" y="774" on="1"/>
        <pt x="221" y="741" on="1"/>
        <pt x="207" y="754" on="1"/>
      </contour>
    </TTGlyph>
    <TTGlyph name="C" xMin="12" yMin="2" xMax="652" yMax="999">
      <contour>
        <pt x="153" y="14" on="1"/>
        <pt x="253" y="2" on="1"/>
        <pt x="272" y="21" on="1"/>
        <pt x="357" y="49" on="1"/>
        <pt x="364" y="56" on="1"/>
        <pt x="385" y="63" on="1"/>
        <pt x="399" y="77" on="1"/>
        <pt x="448" y="91" on="1"/>
        <pt x="504" y="120" on="1"/>
        <pt x="532" y="162" on="1"/>
        <pt x="554" y="176" on="1"/>
        <pt x="596" y="218" on="1"/>
        <pt x="652" y="246" on="1"/>
        <pt x="652" y="316" on="1"/>
        <pt x="638" y="373" on="1"/>
        <pt x="638" y="703" on="1"/>
        <pt x="617" y="809" on="1"/>
        <pt x="617" y="958" on="1"/>
        <pt x="455" y="999" on="1"/>
        <pt x="392" y="999" on="1"/>
        <pt x="328" y="977" on="1"/>
        <pt x="216" y="921" on="1"/>
        <pt x="181" y="907" on="1"/>
        <pt x="110" y="872" on="1"/>
        <pt x="75" y="858" on="1"/>
        <pt x="47" y="844" on="1"/>
        <pt x="26" y="837" on="1"/>
        <pt x="26" y="802" on="1"/>
        <pt x="54" y="703" on="1"/>
        <pt x="54" y="450" on="1"/>
        <pt x="34" y="410" on="1"/>
        <pt x="25" y="89" on="1"/>
        <pt x="12" y="49" on="1"/>
        <pt x="12" y="21" on="1"/>
        <pt x="153" y="14" on="1"/>
      </contour>
      <contour>
        <pt x="60" y="56" on="1"/>
        <pt x="69" y="375" on="1"/>
        <pt x="89" y="436" on="1"/>
        <pt x="89" y="745" on="1"/>
        <pt x="96" y="738" on="1"/>
        <pt x="184" y="721" on="1"/>
        <pt x="202" y="703" on="1"/>
        <pt x="209" y="225" on="1"/>
        <pt x="219" y="46" on="1"/>
        <pt x="60" y="56" on="1"/>
      </contour>
      <contour>
        <pt x="244" y="176" on="1"/>
        <pt x="244" y="703" on="1"/>
        <pt x="272" y="717" on="1"/>
        <pt x="279" y="724" on="1"/>
        <pt x="293" y="731" on="1"/>
        <pt x="395" y="807" on="1"/>
        <pt x="473" y="833" on="1"/>
        <pt x="514" y="874" on="1"/>
        <pt x="574" y="890" on="1"/>
        <pt x="589" y="752" on="1"/>
        <pt x="596" y="724" on="1"/>
        <pt x="596" y="619" on="1"/>
        <pt x="564" y="608" on="1"/>
        <pt x="532" y="577" on="1"/>
        <pt x="504" y="563" on="1"/>
        <pt x="492" y="639" on="1"/>
        <pt x="448" y="682" on="1"/>
        <pt x="371" y="682" on="1"/>
        <pt x="353" y="655" on="1"/>
        <pt x="364" y="333" on="1"/>
        <pt x="399" y="281" on="1"/>
        <pt x="480" y="281" on="1"/>
        <pt x="497" y="323" on="1"/>
        <pt x="504" y="503" on="1"/>
        <pt x="525" y="513" on="1"/>
        <pt x="532" y="520" on="1"/>
        <pt x="554" y="534" on="1"/>
        <pt x="603" y="584" on="1"/>
        <pt x="603" y="345" on="1"/>
        <pt x="619" y="280" on="1"/>
        <pt x="575" y="253" on="1"/>
        <pt x="568" y="246" on="1"/>
        <pt x="546" y="232" on="1"/>
        <pt x="483" y="169" on="1"/>
        <pt x="476" y="169" on="1"/>
        <pt x="462" y="155" on="1"/>
        <pt x="448" y="148" on="1"/>
        <pt x="448" y="130" on="1"/>
        <pt x="359" y="108" on="1"/>
        <pt x="332" y="81" on="1"/>
        <pt x="279" y="70" on="1"/>
        <pt x="258" y="63" on="1"/>
        <pt x="244" y="176" on="1"/>
      </contour>
      <contour>
        <pt x="409" y="341" on="1"/>
        <pt x="392" y="394" on="1"/>
        <pt x="392" y="633" on="1"/>
        <pt x="406" y="647" on="1"/>
        <pt x="445" y="627" on="1"/>
        <pt x="462" y="577" on="1"/>
        <pt x="462" y="359" on="1"/>
        <pt x="448" y="316" on="1"/>
        <pt x="434" y="316" on="1"/>
        <pt x="409" y="341" on="1"/>
      </contour>
      <contour>
        <pt x="207" y="754" on="1"/>
        <pt x="146" y="767" on="1"/>
        <pt x="103" y="788" on="1"/>
        <pt x="74" y="818" on="1"/>
        <pt x="139" y="839" on="1"/>
        <pt x="179" y="866" on="1"/>
        <pt x="251" y="893" on="1"/>
        <pt x="373" y="954" on="1"/>
        <pt x="432" y="966" on="1"/>
        <pt x="554" y="935" on="1"/>
        <pt x="554" y="925" on="1"/>
        <pt x="490" y="907" on="1"/>
        <pt x="455" y="872" on="1"/>
        <pt x="427" y="858" on="1"/>
        <pt x="378" y="844" on="1"/>
        <pt x="371" y="837" on="1"/>
        <pt x="286" y="774" on="1"/>
        <pt x="221" y="741" on="1"/>
        <pt x="207" y="754" on="1"/>
      </contour>
    </TTGlyph>
    <TTGlyph name="D" xMin="12" yMin="2" xMax="638" yMax="999">
      <contour>
        <pt x="153" y="14" on="1"/>
        <pt x="253" y="2" on="1"/>
        <pt x="272" y="21" on="1"/>
        <pt x="357" y="49" on="1"/>
        <pt x="364" y="56" on="1"/>
        <pt x="385" y="63" on="1"/>
        <pt x="399" y="77" on="1"/>
        <pt x="448" y="91" on="1"/>
        <pt x="504" y="120" on="1"/>
        <pt x="532" y="162" on="1"/>
        <pt x="573" y="188" on="1"/>
        <pt x="582" y="225" on="1"/>
        <pt x="589" y="232" on="1"/>
        <pt x="596" y="253" on="1"/>
        <pt x="617" y="295" on="1"/>
        <pt x="638" y="380" on="1"/>
        <pt x="638" y="703" on="1"/>
        <pt x="617" y="809" on="1"/>
        <pt x="617" y="958" on="1"/>
        <pt x="455" y="999" on="1"/>
        <pt x="392" y="999" on="1"/>
        <pt x="328" y="978" on="1"/>
        <pt x="216" y="921" on="1"/>
        <pt x="181" y="907" on="1"/>
        <pt x="110" y="872" on="1"/>
        <pt x="75" y="858" on="1"/>
        <pt x="47" y="844" on="1"/>
        <pt x="26" y="837" on="1"/>
        <pt x="26" y="802" on="1"/>
        <pt x="54" y="703" on="1"/>
        <pt x="54" y="450" on="1"/>
        <pt x="34" y="410" on="1"/>
        <pt x="25" y="89" on="1"/>
        <pt x="12" y="49" on="1"/>
        <pt x="12" y="21" on="1"/>
        <pt x="153" y="14" on="1"/>
      </contour>
      <contour>
        <pt x="60" y="56" on="1"/>
        <pt x="69" y="375" on="1"/>
        <pt x="89" y="436" on="1"/>
        <pt x="89" y="745" on="1"/>
        <pt x="96" y="738" on="1"/>
        <pt x="184" y="721" on="1"/>
        <pt x="202" y="703" on="1"/>
        <pt x="209" y="225" on="1"/>
        <pt x="219" y="46" on="1"/>
        <pt x="60" y="56" on="1"/>
      </contour>
      <contour>
        <pt x="244" y="176" on="1"/>
        <pt x="244" y="703" on="1"/>
        <pt x="272" y="717" on="1"/>
        <pt x="279" y="724" on="1"/>
        <pt x="293" y="731" on="1"/>
        <pt x="395" y="807" on="1"/>
        <pt x="473" y="833" on="1"/>
        <pt x="514" y="874" on="1"/>
        <pt x="574" y="890" on="1"/>
        <pt x="589" y="753" on="1"/>
        <pt x="603" y="696" on="1"/>
        <pt x="603" y="394" on="1"/>
        <pt x="589" y="380" on="1"/>
        <pt x="580" y="304" on="1"/>
        <pt x="547" y="253" on="1"/>
        <pt x="525" y="211" on="1"/>
        <pt x="443" y="129" on="1"/>
        <pt x="359" y="108" on="1"/>
        <pt x="332" y="81" on="1"/>
        <pt x="279" y="70" on="1"/>
        <pt x="258" y="63" on="1"/>
        <pt x="244" y="176" on="1"/>
      </contour>
      <contour>
        <pt x="385" y="345" on="1"/>
        <pt x="399" y="323" on="1"/>
        <pt x="441" y="323" on="1"/>
        <pt x="481" y="364" on="1"/>
        <pt x="490" y="408" on="1"/>
        <pt x="504" y="450" on="1"/>
        <pt x="504" y="612" on="1"/>
        <pt x="462" y="654" on="1"/>
        <pt x="385" y="654" on="1"/>
        <pt x="357" y="626" on="1"/>
        <pt x="357" y="577" on="1"/>
        <pt x="364" y="570" on="1"/>
        <pt x="378" y="499" on="1"/>
        <pt x="385" y="345" on="1"/>
      </contour>
      <contour>
        <pt x="413" y="527" on="1"/>
        <pt x="399" y="598" on="1"/>
        <pt x="408" y="625" on="1"/>
        <pt x="434" y="612" on="1"/>
        <pt x="469" y="577" on="1"/>
        <pt x="469" y="478" on="1"/>
        <pt x="455" y="436" on="1"/>
        <pt x="443" y="389" on="1"/>
        <pt x="420" y="366" on="1"/>
        <pt x="413" y="527" on="1"/>
      </contour>
      <contour>
        <pt x="207" y="754" on="1"/>
        <pt x="146" y="767" on="1"/>
        <pt x="103" y="788" on="1"/>
        <pt x="74" y="818" on="1"/>
        <pt x="139" y="839" on="1"/>
        <pt x="179" y="866" on="1"/>
        <pt x="251" y="893" on="1"/>
        <pt x="373" y="954" on="1"/>
        <pt x="432" y="966" on="1"/>
        <pt x="554" y="935" on="1"/>
        <pt x="554" y="925" on="1"/>
        <pt x="490" y="907" on="1"/>
        <pt x="455" y="872" on="1"/>
        <pt x="427" y="858" on="1"/>
        <pt x="378" y="844" on="1"/>
        <pt x="371" y="837" on="1"/>
        <pt x="286" y="774" on="1"/>
        <pt x="221" y="741" on="1"/>
        <pt x="207" y="754" on="1"/>
      </contour>
    </TTGlyph>
    <TTGlyph name="E" xMin="12" yMin="-5" xMax="652" yMax="992">
      <contour>
        <pt x="153" y="7" on="1"/>
        <pt x="253" y="-5" on="1"/>
        <pt x="272" y="14" on="1"/>
        <pt x="357" y="42" on="1"/>
        <pt x="364" y="49" on="1"/>
        <pt x="385" y="56" on="1"/>
        <pt x="399" y="70" on="1"/>
        <pt x="448" y="84" on="1"/>
        <pt x="504" y="113" on="1"/>
        <pt x="532" y="155" on="1"/>
        <pt x="554" y="169" on="1"/>
        <pt x="596" y="211" on="1"/>
        <pt x="652" y="239" on="1"/>
        <pt x="652" y="309" on="1"/>
        <pt x="638" y="366" on="1"/>
        <pt x="638" y="696" on="1"/>
        <pt x="617" y="802" on="1"/>
        <pt x="617" y="951" on="1"/>
        <pt x="455" y="992" on="1"/>
        <pt x="392" y="992" on="1"/>
        <pt x="328" y="970" on="1"/>
        <pt x="216" y="914" on="1"/>
        <pt x="181" y="900" on="1"/>
        <pt x="110" y="865" on="1"/>
        <pt x="75" y="851" on="1"/>
        <pt x="47" y="837" on="1"/>
        <pt x="26" y="830" on="1"/>
        <pt x="26" y="795" on="1"/>
        <pt x="54" y="696" on="1"/>
        <pt x="54" y="443" on="1"/>
        <pt x="34" y="403" on="1"/>
        <pt x="25" y="82" on="1"/>
        <pt x="12" y="42" on="1"/>
        <pt x="12" y="14" on="1"/>
        <pt x="153" y="7" on="1"/>
      </contour>
      <contour>
        <pt x="60" y="49" on="1"/>
        <pt x="69" y="368" on="1"/>
        <pt x="89" y="429" on="1"/>
        <pt x="89" y="738" on="1"/>
        <pt x="96" y="731" on="1"/>
        <pt x="184" y="714" on="1"/>
        <pt x="202" y="696" on="1"/>
        <pt x="209" y="218" on="1"/>
        <pt x="219" y="39" on="1"/>
        <pt x="60" y="49" on="1"/>
      </contour>
      <contour>
        <pt x="244" y="169" on="1"/>
        <pt x="244" y="696" on="1"/>
        <pt x="272" y="710" on="1"/>
        <pt x="279" y="717" on="1"/>
        <pt x="293" y="724" on="1"/>
        <pt x="395" y="800" on="1"/>
        <pt x="473" y="826" on="1"/>
        <pt x="514" y="867" on="1"/>
        <pt x="574" y="883" on="1"/>
        <pt x="589" y="745" on="1"/>
        <pt x="601" y="696" on="1"/>
        <pt x="575" y="696" on="1"/>
        <pt x="532" y="682" on="1"/>
        <pt x="497" y="654" on="1"/>
        <pt x="483" y="668" on="1"/>
        <pt x="448" y="682" on="1"/>
        <pt x="399" y="682" on="1"/>
        <pt x="371" y="654" on="1"/>
        <pt x="371" y="532" on="1"/>
        <pt x="406" y="520" on="1"/>
        <pt x="469" y="520" on="1"/>
        <pt x="493" y="544" on="1"/>
        <pt x="504" y="591" on="1"/>
        <pt x="539" y="626" on="1"/>
        <pt x="548" y="644" on="1"/>
        <pt x="595" y="656" on="1"/>
        <pt x="603" y="605" on="1"/>
        <pt x="603" y="485" on="1"/>
        <pt x="561" y="471" on="1"/>
        <pt x="485" y="421" on="1"/>
        <pt x="476" y="429" on="1"/>
        <pt x="394" y="429" on="1"/>
        <pt x="357" y="373" on="1"/>
        <pt x="343" y="288" on="1"/>
        <pt x="343" y="225" on="1"/>
        <pt x="455" y="225" on="1"/>
        <pt x="476" y="267" on="1"/>
        <pt x="489" y="280" on="1"/>
        <pt x="499" y="378" on="1"/>
        <pt x="554" y="415" on="1"/>
        <pt x="561" y="422" on="1"/>
        <pt x="603" y="439" on="1"/>
        <pt x="603" y="338" on="1"/>
        <pt x="619" y="273" on="1"/>
        <pt x="575" y="246" on="1"/>
        <pt x="568" y="239" on="1"/>
        <pt x="546" y="225" on="1"/>
        <pt x="443" y="122" on="1"/>
        <pt x="359" y="101" on="1"/>
        <pt x="332" y="74" on="1"/>
        <pt x="279" y="63" on="1"/>
        <pt x="258" y="56" on="1"/>
        <pt x="244" y="169" on="1"/>
      </contour>
      <contour>
        <pt x="378" y="295" on="1"/>
        <pt x="392" y="338" on="1"/>
        <pt x="399" y="352" on="1"/>
        <pt x="409" y="381" on="1"/>
        <pt x="442" y="398" on="1"/>
        <pt x="455" y="359" on="1"/>
        <pt x="455" y="323" on="1"/>
        <pt x="441" y="295" on="1"/>
        <pt x="429" y="260" on="1"/>
        <pt x="378" y="260" on="1"/>
        <pt x="378" y="295" on="1"/>
      </contour>
      <contour>
        <pt x="406" y="565" on="1"/>
        <pt x="406" y="629" on="1"/>
        <pt x="427" y="640" on="1"/>
        <pt x="462" y="631" on="1"/>
        <pt x="462" y="591" on="1"/>
        <pt x="443" y="553" on="1"/>
        <pt x="406" y="565" on="1"/>
      </contour>
      <contour>
        <pt x="207" y="747" on="1"/>
        <pt x="146" y="760" on="1"/>
        <pt x="103" y="781" on="1"/>
        <pt x="74" y="811" on="1"/>
        <pt x="139" y="832" on="1"/>
        <pt x="179" y="859" on="1"/>
        <pt x="251" y="886" on="1"/>
        <pt x="373" y="947" on="1"/>
        <pt x="432" y="959" on="1"/>
        <pt x="554" y="928" on="1"/>
        <pt x="554" y="918" on="1"/>
        <pt x="490" y="900" on="1"/>
        <pt x="455" y="865" on="1"/>
        <pt x="427" y="851" on="1"/>
        <pt x="378" y="837" on="1"/>
        <pt x="371" y="830" on="1"/>
        <pt x="286" y="767" on="1"/>
        <pt x="221" y="734" on="1"/>
        <pt x="207" y="747" on="1"/>
      </contour>
    </TTGlyph>
    <TTGlyph name="F" xMin="12" yMin="-5" xMax="638" yMax="992">
      <contour>
        <pt x="153" y="7" on="1"/>
        <pt x="253" y="-5" on="1"/>
        <pt x="272" y="14" on="1"/>
        <pt x="357" y="42" on="1"/>
        <pt x="364" y="49" on="1"/>
        <pt x="385" y="56" on="1"/>
        <pt x="399" y="70" on="1"/>
        <pt x="420" y="77" on="1"/>
        <pt x="441" y="91" on="1"/>
        <pt x="469" y="91" on="1"/>
        <pt x="483" y="105" on="1"/>
        <pt x="494" y="105" on="1"/>
        <pt x="471" y="224" on="1"/>
        <pt x="458" y="406" on="1"/>
        <pt x="497" y="422" on="1"/>
        <pt x="518" y="443" on="1"/>
        <pt x="532" y="450" on="1"/>
        <pt x="561" y="478" on="1"/>
        <pt x="617" y="506" on="1"/>
        <pt x="638" y="527" on="1"/>
        <pt x="638" y="696" on="1"/>
        <pt x="617" y="802" on="1"/>
        <pt x="617" y="951" on="1"/>
        <pt x="455" y="992" on="1"/>
        <pt x="392" y="992" on="1"/>
        <pt x="328" y="971" on="1"/>
        <pt x="216" y="914" on="1"/>
        <pt x="181" y="900" on="1"/>
        <pt x="110" y="865" on="1"/>
        <pt x="75" y="851" on="1"/>
        <pt x="47" y="837" on="1"/>
        <pt x="26" y="830" on="1"/>
        <pt x="26" y="795" on="1"/>
        <pt x="54" y="696" on="1"/>
        <pt x="54" y="443" on="1"/>
        <pt x="34" y="403" on="1"/>
        <pt x="25" y="82" on="1"/>
        <pt x="12" y="42" on="1"/>
        <pt x="12" y="14" on="1"/>
        <pt x="153" y="7" on="1"/>
      </contour>
      <contour>
        <pt x="60" y="49" on="1"/>
        <pt x="69" y="368" on="1"/>
        <pt x="89" y="429" on="1"/>
        <pt x="89" y="738" on="1"/>
        <pt x="96" y="731" on="1"/>
        <pt x="184" y="714" on="1"/>
        <pt x="202" y="696" on="1"/>
        <pt x="209" y="218" on="1"/>
        <pt x="219" y="39" on="1"/>
        <pt x="60" y="49" on="1"/>
      </contour>
      <contour>
        <pt x="244" y="169" on="1"/>
        <pt x="244" y="696" on="1"/>
        <pt x="272" y="710" on="1"/>
        <pt x="279" y="717" on="1"/>
        <pt x="293" y="724" on="1"/>
        <pt x="395" y="800" on="1"/>
        <pt x="473" y="826" on="1"/>
        <pt x="514" y="867" on="1"/>
        <pt x="574" y="883" on="1"/>
        <pt x="589" y="732" on="1"/>
        <pt x="568" y="724" on="1"/>
        <pt x="539" y="703" on="1"/>
        <pt x="525" y="696" on="1"/>
        <pt x="504" y="682" on="1"/>
        <pt x="490" y="724" on="1"/>
        <pt x="406" y="724" on="1"/>
        <pt x="371" y="689" on="1"/>
        <pt x="371" y="577" on="1"/>
        <pt x="385" y="563" on="1"/>
        <pt x="483" y="563" on="1"/>
        <pt x="504" y="626" on="1"/>
        <pt x="532" y="640" on="1"/>
        <pt x="554" y="661" on="1"/>
        <pt x="582" y="675" on="1"/>
        <pt x="595" y="689" on="1"/>
        <pt x="608" y="551" on="1"/>
        <pt x="568" y="535" on="1"/>
        <pt x="561" y="527" on="1"/>
        <pt x="511" y="492" on="1"/>
        <pt x="497" y="478" on="1"/>
        <pt x="427" y="436" on="1"/>
        <pt x="427" y="274" on="1"/>
        <pt x="446" y="123" on="1"/>
        <pt x="359" y="101" on="1"/>
        <pt x="332" y="74" on="1"/>
        <pt x="279" y="63" on="1"/>
        <pt x="258" y="56" on="1"/>
        <pt x="244" y="169" on="1"/>
      </contour>
      <contour>
        <pt x="406" y="598" on="1"/>
        <pt x="406" y="654" on="1"/>
        <pt x="441" y="689" on="1"/>
        <pt x="462" y="689" on="1"/>
        <pt x="462" y="626" on="1"/>
        <pt x="448" y="598" on="1"/>
        <pt x="406" y="598" on="1"/>
      </contour>
      <contour>
        <pt x="207" y="747" on="1"/>
        <pt x="146" y="760" on="1"/>
        <pt x="103" y="781" on="1"/>
        <pt x="74" y="811" on="1"/>
        <pt x="139" y="832" on="1"/>
        <pt x="179" y="859" on="1"/>
        <pt x="251" y="886" on="1"/>
        <pt x="373" y="947" on="1"/>
        <pt x="432" y="959" on="1"/>
        <pt x="554" y="928" on="1"/>
        <pt x="554" y="918" on="1"/>
        <pt x="490" y="900" on="1"/>
        <pt x="455" y="865" on="1"/>
        <pt x="427" y="851" on="1"/>
        <pt x="378" y="837" on="1"/>
        <pt x="371" y="830" on="1"/>
        <pt x="286" y="767" on="1"/>
        <pt x="221" y="734" on="1"/>
        <pt x="207" y="747" on="1"/>
      </contour>
    </TTGlyph>
    <TTGlyph name="G" xMin="12" yMin="-5" xMax="652" yMax="992">
      <contour>
        <pt x="153" y="7" on="1"/>
        <pt x="253" y="-5" on="1"/>
        <pt x="272" y="14" on="1"/>
        <pt x="357" y="42" on="1"/>
        <pt x="364" y="49" on="1"/>
        <pt x="385" y="56" on="1"/>
        <pt x="399" y="70" on="1"/>
        <pt x="448" y="84" on="1"/>
        <pt x="504" y="113" on="1"/>
        <pt x="532" y="155" on="1"/>
        <pt x="554" y="169" on="1"/>
        <pt x="596" y="211" on="1"/>
        <pt x="652" y="239" on="1"/>
        <pt x="652" y="309" on="1"/>
        <pt x="638" y="366" on="1"/>
        <pt x="638" y="696" on="1"/>
        <pt x="617" y="802" on="1"/>
        <pt x="617" y="951" on="1"/>
        <pt x="455" y="992" on="1"/>
        <pt x="392" y="992" on="1"/>
        <pt x="328" y="970" on="1"/>
        <pt x="216" y="914" on="1"/>
        <pt x="181" y="900" on="1"/>
        <pt x="110" y="865" on="1"/>
        <pt x="75" y="851" on="1"/>
        <pt x="47" y="837" on="1"/>
        <pt x="26" y="830" on="1"/>
        <pt x="26" y="795" on="1"/>
        <pt x="54" y="696" on="1"/>
        <pt x="54" y="443" on="1"/>
        <pt x="34" y="403" on="1"/>
        <pt x="25" y="82" on="1"/>
        <pt x="12" y="42" on="1"/>
        <pt x="12" y="14" on="1"/>
        <pt x="153" y="7" on="1"/>
      </contour>
      <contour>
        <pt x="60" y="49" on="1"/>
        <pt x="69" y="368" on="1"/>
        <pt x="89" y="429" on="1"/>
        <pt x="89" y="738" on="1"/>
        <pt x="96" y="731" on="1"/>
        <pt x="184" y="714" on="1"/>
        <pt x="202" y="696" on="1"/>
        <pt x="209" y="218" on="1"/>
        <pt x="219" y="39" on="1"/>
        <pt x="60" y="49" on="1"/>
      </contour>
      <contour>
        <pt x="244" y="169" on="1"/>
        <pt x="244" y="696" on="1"/>
        <pt x="272" y="710" on="1"/>
        <pt x="279" y="717" on="1"/>
        <pt x="293" y="724" on="1"/>
        <pt x="395" y="800" on="1"/>
        <pt x="473" y="826" on="1"/>
        <pt x="514" y="867" on="1"/>
        <pt x="574" y="883" on="1"/>
        <pt x="589" y="745" on="1"/>
        <pt x="596" y="717" on="1"/>
        <pt x="596" y="626" on="1"/>
        <pt x="554" y="612" on="1"/>
        <pt x="488" y="546" on="1"/>
        <pt x="441" y="527" on="1"/>
        <pt x="441" y="643" on="1"/>
        <pt x="411" y="659" on="1"/>
        <pt x="390" y="638" on="1"/>
        <pt x="399" y="612" on="1"/>
        <pt x="399" y="517" on="1"/>
        <pt x="433" y="431" on="1"/>
        <pt x="385" y="415" on="1"/>
        <pt x="364" y="394" on="1"/>
        <pt x="364" y="302" on="1"/>
        <pt x="378" y="281" on="1"/>
        <pt x="448" y="281" on="1"/>
        <pt x="495" y="309" on="1"/>
        <pt x="504" y="338" on="1"/>
        <pt x="504" y="427" on="1"/>
        <pt x="462" y="438" on="1"/>
        <pt x="462" y="481" on="1"/>
        <pt x="504" y="506" on="1"/>
        <pt x="511" y="513" on="1"/>
        <pt x="525" y="520" on="1"/>
        <pt x="575" y="570" on="1"/>
        <pt x="603" y="584" on="1"/>
        <pt x="603" y="338" on="1"/>
        <pt x="619" y="273" on="1"/>
        <pt x="575" y="246" on="1"/>
        <pt x="568" y="239" on="1"/>
        <pt x="517" y="205" on="1"/>
        <pt x="473" y="140" on="1"/>
        <pt x="434" y="127" on="1"/>
        <pt x="425" y="117" on="1"/>
        <pt x="359" y="101" on="1"/>
        <pt x="332" y="74" on="1"/>
        <pt x="279" y="63" on="1"/>
        <pt x="258" y="56" on="1"/>
        <pt x="244" y="169" on="1"/>
      </contour>
      <contour>
        <pt x="399" y="331" on="1"/>
        <pt x="399" y="369" on="1"/>
        <pt x="434" y="387" on="1"/>
        <pt x="469" y="387" on="1"/>
        <pt x="469" y="366" on="1"/>
        <pt x="455" y="338" on="1"/>
        <pt x="419" y="310" on="1"/>
        <pt x="399" y="331" on="1"/>
      </contour>
      <contour>
        <pt x="207" y="747" on="1"/>
        <pt x="146" y="760" on="1"/>
        <pt x="103" y="781" on="1"/>
        <pt x="74" y="811" on="1"/>
        <pt x="139" y="832" on="1"/>
        <pt x="179" y="859" on="1"/>
        <pt x="251" y="886" on="1"/>
        <pt x="373" y="947" on="1"/>
        <pt x="432" y="959" on="1"/>
        <pt x="554" y="928" on="1"/>
        <pt x="554" y="918" on="1"/>
        <pt x="490" y="900" on="1"/>
        <pt x="455" y="865" on="1"/>
        <pt x="427" y="851" on="1"/>
        <pt x="378" y="837" on="1"/>
        <pt x="371" y="830" on="1"/>
        <pt x="286" y="767" on="1"/>
        <pt x="221" y="734" on="1"/>
        <pt x="207" y="747" on="1"/>
      </contour>
    </TTGlyph>
    <TTGlyph name="H" xMin="12" yMin="2" xMax="652" yMax="999">
      <contour>
        <pt x="153" y="14" on="1"/>
        <pt x="253" y="2" on="1"/>
        <pt x="272" y="21" on="1"/>
        <pt x="357" y="49" on="1"/>
        <pt x="364" y="56" on="1"/>
        <pt x="385" y="63" on="1"/>
        <pt x="399" y="77" on="1"/>
        <pt x="448" y="91" on="1"/>
        <pt x="504" y="120" on="1"/>
        <pt x="532" y="162" on="1"/>
        <pt x="554" y="176" on="1"/>
        <pt x="596" y="218" on="1"/>
        <pt x="652" y="246" on="1"/>
        <pt x="652" y="316" on="1"/>
        <pt x="638" y="373" on="1"/>
        <pt x="638" y="703" on="1"/>
        <pt x="617" y="809" on="1"/>
        <pt x="617" y="958" on="1"/>
        <pt x="455" y="999" on="1"/>
        <pt x="392" y="999" on="1"/>
        <pt x="328" y="977" on="1"/>
        <pt x="216" y="921" on="1"/>
        <pt x="181" y="907" on="1"/>
        <pt x="110" y="872" on="1"/>
        <pt x="75" y="858" on="1"/>
        <pt x="47" y="844" on="1"/>
        <pt x="26" y="837" on="1"/>
        <pt x="26" y="802" on="1"/>
        <pt x="54" y="703" on="1"/>
        <pt x="54" y="450" on="1"/>
        <pt x="34" y="410" on="1"/>
        <pt x="25" y="89" on="1"/>
        <pt x="12" y="49" on="1"/>
        <pt x="12" y="21" on="1"/>
        <pt x="153" y="14" on="1"/>
      </contour>
      <contour>
        <pt x="60" y="56" on="1"/>
        <pt x="69" y="375" on="1"/>
        <pt x="89" y="436" on="1"/>
        <pt x="89" y="745" on="1"/>
        <pt x="96" y="738" on="1"/>
        <pt x="184" y="721" on="1"/>
        <pt x="202" y="703" on="1"/>
        <pt x="209" y="225" on="1"/>
        <pt x="219" y="46" on="1"/>
        <pt x="60" y="56" on="1"/>
      </contour>
      <contour>
        <pt x="244" y="176" on="1"/>
        <pt x="244" y="703" on="1"/>
        <pt x="272" y="717" on="1"/>
        <pt x="279" y="724" on="1"/>
        <pt x="293" y="731" on="1"/>
        <pt x="403" y="814" on="1"/>
        <pt x="420" y="781" on="1"/>
        <pt x="420" y="626" on="1"/>
        <pt x="411" y="584" on="1"/>
        <pt x="434" y="584" on="1"/>
        <pt x="455" y="605" on="1"/>
        <pt x="455" y="823" on="1"/>
        <pt x="490" y="851" on="1"/>
        <pt x="514" y="874" on="1"/>
        <pt x="574" y="890" on="1"/>
        <pt x="593" y="708" on="1"/>
        <pt x="603" y="661" on="1"/>
        <pt x="603" y="556" on="1"/>
        <pt x="614" y="534" on="1"/>
        <pt x="603" y="436" on="1"/>
        <pt x="603" y="345" on="1"/>
        <pt x="619" y="280" on="1"/>
        <pt x="575" y="253" on="1"/>
        <pt x="568" y="246" on="1"/>
        <pt x="546" y="232" on="1"/>
        <pt x="498" y="183" on="1"/>
        <pt x="490" y="274" on="1"/>
        <pt x="483" y="338" on="1"/>
        <pt x="476" y="429" on="1"/>
        <pt x="448" y="429" on="1"/>
        <pt x="448" y="309" on="1"/>
        <pt x="455" y="246" on="1"/>
        <pt x="455" y="148" on="1"/>
        <pt x="434" y="127" on="1"/>
        <pt x="359" y="108" on="1"/>
        <pt x="332" y="81" on="1"/>
        <pt x="279" y="70" on="1"/>
        <pt x="258" y="63" on="1"/>
        <pt x="244" y="176" on="1"/>
      </contour>
      <contour>
        <pt x="207" y="754" on="1"/>
        <pt x="146" y="767" on="1"/>
        <pt x="103" y="788" on="1"/>
        <pt x="74" y="818" on="1"/>
        <pt x="139" y="839" on="1"/>
        <pt x="181" y="867" on="1"/>
        <pt x="229" y="883" on="1"/>
        <pt x="293" y="865" on="1"/>
        <pt x="346" y="854" on="1"/>
        <pt x="367" y="834" on="1"/>
        <pt x="286" y="774" on="1"/>
        <pt x="221" y="741" on="1"/>
        <pt x="207" y="754" on="1"/>
      </contour>
      <contour>
        <pt x="379" y="887" on="1"/>
        <pt x="300" y="907" on="1"/>
        <pt x="300" y="918" on="1"/>
        <pt x="373" y="954" on="1"/>
        <pt x="432" y="966" on="1"/>
        <pt x="554" y="935" on="1"/>
        <pt x="554" y="925" on="1"/>
        <pt x="490" y="907" on="1"/>
        <pt x="448" y="865" on="1"/>
        <pt x="413" y="865" on="1"/>
        <pt x="379" y="887" on="1"/>
      </contour>
    </TTGlyph>
    <TTGlyph name="I" xMin="12" yMin="2" xMax="469" yMax="928">
      <contour>
        <pt x="153" y="14" on="1"/>
        <pt x="253" y="2" on="1"/>
        <pt x="272" y="21" on="1"/>
        <pt x="356" y="49" on="1"/>
        <pt x="364" y="56" on="1"/>
        <pt x="385" y="63" on="1"/>
        <pt x="400" y="79" on="1"/>
        <pt x="469" y="93" on="1"/>
        <pt x="469" y="141" on="1"/>
        <pt x="448" y="183" on="1"/>
        <pt x="448" y="898" on="1"/>
        <pt x="364" y="907" on="1"/>
        <pt x="335" y="928" on="1"/>
        <pt x="216" y="928" on="1"/>
        <pt x="209" y="921" on="1"/>
        <pt x="110" y="872" on="1"/>
        <pt x="75" y="858" on="1"/>
        <pt x="47" y="844" on="1"/>
        <pt x="26" y="837" on="1"/>
        <pt x="26" y="801" on="1"/>
        <pt x="54" y="703" on="1"/>
        <pt x="54" y="450" on="1"/>
        <pt x="34" y="410" on="1"/>
        <pt x="25" y="89" on="1"/>
        <pt x="12" y="49" on="1"/>
        <pt x="12" y="21" on="1"/>
        <pt x="153" y="14" on="1"/>
      </contour>
      <contour>
        <pt x="60" y="56" on="1"/>
        <pt x="69" y="374" on="1"/>
        <pt x="89" y="436" on="1"/>
        <pt x="89" y="745" on="1"/>
        <pt x="96" y="738" on="1"/>
        <pt x="184" y="721" on="1"/>
        <pt x="202" y="703" on="1"/>
        <pt x="209" y="225" on="1"/>
        <pt x="219" y="46" on="1"/>
        <pt x="60" y="56" on="1"/>
      </contour>
      <contour>
        <pt x="244" y="176" on="1"/>
        <pt x="244" y="703" on="1"/>
        <pt x="272" y="717" on="1"/>
        <pt x="279" y="724" on="1"/>
        <pt x="293" y="731" on="1"/>
        <pt x="396" y="808" on="1"/>
        <pt x="413" y="808" on="1"/>
        <pt x="413" y="155" on="1"/>
        <pt x="428" y="125" on="1"/>
        <pt x="359" y="108" on="1"/>
        <pt x="332" y="81" on="1"/>
        <pt x="279" y="70" on="1"/>
        <pt x="258" y="63" on="1"/>
        <pt x="244" y="176" on="1"/>
      </contour>
      <contour>
        <pt x="207" y="754" on="1"/>
        <pt x="146" y="766" on="1"/>
        <pt x="103" y="787" on="1"/>
        <pt x="74" y="817" on="1"/>
        <pt x="139" y="839" on="1"/>
        <pt x="181" y="867" on="1"/>
        <pt x="258" y="893" on="1"/>
        <pt x="307" y="893" on="1"/>
        <pt x="335" y="872" on="1"/>
        <pt x="412" y="864" on="1"/>
        <pt x="399" y="851" on="1"/>
        <pt x="378" y="844" on="1"/>
        <pt x="371" y="837" on="1"/>
        <pt x="286" y="773" on="1"/>
        <pt x="221" y="740" on="1"/>
        <pt x="207" y="754" on="1"/>
      </contour>
    </TTGlyph>
    <TTGlyph name="J" xMin="12" yMin="2" xMax="638" yMax="999">
      <contour>
        <pt x="153" y="14" on="1"/>
        <pt x="253" y="2" on="1"/>
        <pt x="272" y="21" on="1"/>
        <pt x="357" y="49" on="1"/>
        <pt x="364" y="56" on="1"/>
        <pt x="385" y="63" on="1"/>
        <pt x="399" y="77" on="1"/>
        <pt x="448" y="91" on="1"/>
        <pt x="504" y="120" on="1"/>
        <pt x="532" y="162" on="1"/>
        <pt x="573" y="188" on="1"/>
        <pt x="582" y="225" on="1"/>
        <pt x="589" y="232" on="1"/>
        <pt x="596" y="253" on="1"/>
        <pt x="617" y="295" on="1"/>
        <pt x="638" y="380" on="1"/>
        <pt x="638" y="703" on="1"/>
        <pt x="617" y="809" on="1"/>
        <pt x="617" y="958" on="1"/>
        <pt x="455" y="999" on="1"/>
        <pt x="392" y="999" on="1"/>
        <pt x="328" y="978" on="1"/>
        <pt x="216" y="921" on="1"/>
        <pt x="181" y="907" on="1"/>
        <pt x="110" y="872" on="1"/>
        <pt x="75" y="858" on="1"/>
        <pt x="47" y="844" on="1"/>
        <pt x="26" y="837" on="1"/>
        <pt x="26" y="802" on="1"/>
        <pt x="54" y="703" on="1"/>
        <pt x="54" y="513" on="1"/>
        <pt x="34" y="415" on="1"/>
        <pt x="25" y="89" on="1"/>
        <pt x="12" y="49" on="1"/>
        <pt x="12" y="21" on="1"/>
        <pt x="153" y="14" on="1"/>
      </contour>
      <contour>
        <pt x="54" y="57" on="1"/>
        <pt x="81" y="489" on="1"/>
        <pt x="96" y="534" on="1"/>
        <pt x="132" y="534" on="1"/>
        <pt x="153" y="527" on="1"/>
        <pt x="209" y="520" on="1"/>
        <pt x="209" y="225" on="1"/>
        <pt x="219" y="46" on="1"/>
        <pt x="54" y="57" on="1"/>
      </contour>
      <contour>
        <pt x="255" y="62" on="1"/>
        <pt x="237" y="338" on="1"/>
        <pt x="225" y="384" on="1"/>
        <pt x="237" y="443" on="1"/>
        <pt x="244" y="506" on="1"/>
        <pt x="276" y="517" on="1"/>
        <pt x="314" y="556" on="1"/>
        <pt x="336" y="570" on="1"/>
        <pt x="343" y="577" on="1"/>
        <pt x="385" y="598" on="1"/>
        <pt x="385" y="246" on="1"/>
        <pt x="413" y="246" on="1"/>
        <pt x="423" y="647" on="1"/>
        <pt x="364" y="647" on="1"/>
        <pt x="343" y="626" on="1"/>
        <pt x="290" y="594" on="1"/>
        <pt x="251" y="556" on="1"/>
        <pt x="244" y="556" on="1"/>
        <pt x="244" y="703" on="1"/>
        <pt x="272" y="717" on="1"/>
        <pt x="279" y="724" on="1"/>
        <pt x="293" y="731" on="1"/>
        <pt x="395" y="807" on="1"/>
        <pt x="473" y="833" on="1"/>
        <pt x="514" y="874" on="1"/>
        <pt x="574" y="890" on="1"/>
        <pt x="589" y="753" on="1"/>
        <pt x="603" y="696" on="1"/>
        <pt x="603" y="394" on="1"/>
        <pt x="589" y="380" on="1"/>
        <pt x="580" y="304" on="1"/>
        <pt x="547" y="253" on="1"/>
        <pt x="525" y="211" on="1"/>
        <pt x="443" y="129" on="1"/>
        <pt x="359" y="108" on="1"/>
        <pt x="332" y="81" on="1"/>
        <pt x="279" y="70" on="1"/>
        <pt x="255" y="62" on="1"/>
      </contour>
      <contour>
        <pt x="167" y="570" on="1"/>
        <pt x="89" y="577" on="1"/>
        <pt x="89" y="745" on="1"/>
        <pt x="96" y="738" on="1"/>
        <pt x="184" y="721" on="1"/>
        <pt x="202" y="703" on="1"/>
        <pt x="202" y="563" on="1"/>
        <pt x="181" y="563" on="1"/>
        <pt x="167" y="570" on="1"/>
      </contour>
      <contour>
        <pt x="207" y="754" on="1"/>
        <pt x="146" y="767" on="1"/>
        <pt x="103" y="788" on="1"/>
        <pt x="74" y="818" on="1"/>
        <pt x="139" y="839" on="1"/>
        <pt x="179" y="866" on="1"/>
        <pt x="251" y="893" on="1"/>
        <pt x="373" y="954" on="1"/>
        <pt x="432" y="966" on="1"/>
        <pt x="554" y="935" on="1"/>
        <pt x="554" y="925" on="1"/>
        <pt x="490" y="907" on="1"/>
        <pt x="455" y="872" on="1"/>
        <pt x="427" y="858" on="1"/>
        <pt x="378" y="844" on="1"/>
        <pt x="371" y="837" on="1"/>
        <pt x="286" y="774" on="1"/>
        <pt x="221" y="741" on="1"/>
        <pt x="207" y="754" on="1"/>
      </contour>
    </TTGlyph>
    <TTGlyph name="K" xMin="12" yMin="-5" xMax="652" yMax="992">
      <contour>
        <pt x="153" y="7" on="1"/>
        <pt x="253" y="-5" on="1"/>
        <pt x="272" y="14" on="1"/>
        <pt x="357" y="42" on="1"/>
        <pt x="364" y="49" on="1"/>
        <pt x="385" y="56" on="1"/>
        <pt x="399" y="70" on="1"/>
        <pt x="448" y="84" on="1"/>
        <pt x="504" y="113" on="1"/>
        <pt x="532" y="155" on="1"/>
        <pt x="554" y="169" on="1"/>
        <pt x="596" y="211" on="1"/>
        <pt x="652" y="239" on="1"/>
        <pt x="652" y="309" on="1"/>
        <pt x="638" y="366" on="1"/>
        <pt x="638" y="513" on="1"/>
        <pt x="596" y="556" on="1"/>
        <pt x="631" y="635" on="1"/>
        <pt x="631" y="731" on="1"/>
        <pt x="617" y="802" on="1"/>
        <pt x="617" y="951" on="1"/>
        <pt x="455" y="992" on="1"/>
        <pt x="392" y="992" on="1"/>
        <pt x="328" y="970" on="1"/>
        <pt x="216" y="914" on="1"/>
        <pt x="181" y="900" on="1"/>
        <pt x="110" y="865" on="1"/>
        <pt x="75" y="851" on="1"/>
        <pt x="47" y="837" on="1"/>
        <pt x="26" y="830" on="1"/>
        <pt x="26" y="795" on="1"/>
        <pt x="54" y="696" on="1"/>
        <pt x="54" y="443" on="1"/>
        <pt x="34" y="403" on="1"/>
        <pt x="25" y="82" on="1"/>
        <pt x="12" y="42" on="1"/>
        <pt x="12" y="14" on="1"/>
        <pt x="153" y="7" on="1"/>
      </contour>
      <contour>
        <pt x="60" y="49" on="1"/>
        <pt x="69" y="368" on="1"/>
        <pt x="89" y="429" on="1"/>
        <pt x="89" y="738" on="1"/>
        <pt x="96" y="731" on="1"/>
        <pt x="184" y="714" on="1"/>
        <pt x="202" y="696" on="1"/>
        <pt x="209" y="218" on="1"/>
        <pt x="219" y="39" on="1"/>
        <pt x="60" y="49" on="1"/>
      </contour>
      <contour>
        <pt x="244" y="169" on="1"/>
        <pt x="244" y="696" on="1"/>
        <pt x="272" y="710" on="1"/>
        <pt x="279" y="717" on="1"/>
        <pt x="293" y="724" on="1"/>
        <pt x="391" y="798" on="1"/>
        <pt x="399" y="738" on="1"/>
        <pt x="406" y="703" on="1"/>
        <pt x="413" y="584" on="1"/>
        <pt x="441" y="584" on="1"/>
        <pt x="441" y="738" on="1"/>
        <pt x="433" y="777" on="1"/>
        <pt x="442" y="813" on="1"/>
        <pt x="476" y="830" on="1"/>
        <pt x="514" y="867" on="1"/>
        <pt x="574" y="883" on="1"/>
        <pt x="589" y="745" on="1"/>
        <pt x="596" y="717" on="1"/>
        <pt x="596" y="654" on="1"/>
        <pt x="589" y="647" on="1"/>
        <pt x="554" y="577" on="1"/>
        <pt x="539" y="563" on="1"/>
        <pt x="539" y="520" on="1"/>
        <pt x="571" y="510" on="1"/>
        <pt x="603" y="478" on="1"/>
        <pt x="603" y="338" on="1"/>
        <pt x="619" y="273" on="1"/>
        <pt x="575" y="246" on="1"/>
        <pt x="568" y="239" on="1"/>
        <pt x="546" y="225" on="1"/>
        <pt x="477" y="156" on="1"/>
        <pt x="462" y="401" on="1"/>
        <pt x="434" y="401" on="1"/>
        <pt x="434" y="253" on="1"/>
        <pt x="448" y="129" on="1"/>
        <pt x="406" y="113" on="1"/>
        <pt x="359" y="101" on="1"/>
        <pt x="332" y="74" on="1"/>
        <pt x="279" y="63" on="1"/>
        <pt x="258" y="56" on="1"/>
        <pt x="244" y="169" on="1"/>
      </contour>
      <contour>
        <pt x="476" y="534" on="1"/>
        <pt x="476" y="527" on="1"/>
        <pt x="476" y="534" on="1"/>
      </contour>
      <contour>
        <pt x="207" y="747" on="1"/>
        <pt x="146" y="760" on="1"/>
        <pt x="103" y="781" on="1"/>
        <pt x="74" y="811" on="1"/>
        <pt x="139" y="832" on="1"/>
        <pt x="190" y="866" on="1"/>
        <pt x="258" y="858" on="1"/>
        <pt x="283" y="846" on="1"/>
        <pt x="372" y="831" on="1"/>
        <pt x="286" y="767" on="1"/>
        <pt x="221" y="734" on="1"/>
        <pt x="207" y="747" on="1"/>
      </contour>
      <contour>
        <pt x="393" y="869" on="1"/>
        <pt x="305" y="881" on="1"/>
        <pt x="284" y="903" on="1"/>
        <pt x="373" y="947" on="1"/>
        <pt x="432" y="959" on="1"/>
        <pt x="554" y="928" on="1"/>
        <pt x="554" y="918" on="1"/>
        <pt x="490" y="900" on="1"/>
        <pt x="455" y="865" on="1"/>
        <pt x="423" y="849" on="1"/>
        <pt x="393" y="869" on="1"/>
      </contour>
    </TTGlyph>
    <TTGlyph name="L" xMin="14" yMin="2" xMax="654" yMax="921">
      <contour>
        <pt x="155" y="14" on="1"/>
        <pt x="255" y="2" on="1"/>
        <pt x="274" y="21" on="1"/>
        <pt x="359" y="49" on="1"/>
        <pt x="366" y="56" on="1"/>
        <pt x="387" y="63" on="1"/>
        <pt x="401" y="77" on="1"/>
        <pt x="450" y="91" on="1"/>
        <pt x="506" y="120" on="1"/>
        <pt x="534" y="162" on="1"/>
        <pt x="556" y="176" on="1"/>
        <pt x="598" y="218" on="1"/>
        <pt x="654" y="246" on="1"/>
        <pt x="654" y="316" on="1"/>
        <pt x="637" y="386" on="1"/>
        <pt x="647" y="499" on="1"/>
        <pt x="633" y="492" on="1"/>
        <pt x="626" y="499" on="1"/>
        <pt x="520" y="506" on="1"/>
        <pt x="499" y="513" on="1"/>
        <pt x="457" y="522" on="1"/>
        <pt x="457" y="619" on="1"/>
        <pt x="471" y="661" on="1"/>
        <pt x="471" y="830" on="1"/>
        <pt x="462" y="856" on="1"/>
        <pt x="362" y="890" on="1"/>
        <pt x="288" y="900" on="1"/>
        <pt x="257" y="921" on="1"/>
        <pt x="211" y="921" on="1"/>
        <pt x="112" y="872" on="1"/>
        <pt x="77" y="858" on="1"/>
        <pt x="49" y="844" on="1"/>
        <pt x="28" y="837" on="1"/>
        <pt x="28" y="802" on="1"/>
        <pt x="56" y="703" on="1"/>
        <pt x="56" y="450" on="1"/>
        <pt x="36" y="410" on="1"/>
        <pt x="27" y="89" on="1"/>
        <pt x="14" y="49" on="1"/>
        <pt x="14" y="21" on="1"/>
        <pt x="155" y="14" on="1"/>
      </contour>
      <contour>
        <pt x="62" y="56" on="1"/>
        <pt x="71" y="375" on="1"/>
        <pt x="91" y="436" on="1"/>
        <pt x="91" y="745" on="1"/>
        <pt x="98" y="738" on="1"/>
        <pt x="186" y="721" on="1"/>
        <pt x="204" y="703" on="1"/>
        <pt x="211" y="225" on="1"/>
        <pt x="221" y="46" on="1"/>
        <pt x="62" y="56" on="1"/>
      </contour>
      <contour>
        <pt x="246" y="176" on="1"/>
        <pt x="246" y="703" on="1"/>
        <pt x="274" y="717" on="1"/>
        <pt x="281" y="724" on="1"/>
        <pt x="295" y="731" on="1"/>
        <pt x="408" y="816" on="1"/>
        <pt x="436" y="816" on="1"/>
        <pt x="436" y="689" on="1"/>
        <pt x="422" y="647" on="1"/>
        <pt x="422" y="492" on="1"/>
        <pt x="436" y="422" on="1"/>
        <pt x="436" y="373" on="1"/>
        <pt x="464" y="373" on="1"/>
        <pt x="478" y="380" on="1"/>
        <pt x="531" y="397" on="1"/>
        <pt x="541" y="408" on="1"/>
        <pt x="573" y="424" on="1"/>
        <pt x="591" y="450" on="1"/>
        <pt x="605" y="457" on="1"/>
        <pt x="605" y="345" on="1"/>
        <pt x="621" y="280" on="1"/>
        <pt x="577" y="253" on="1"/>
        <pt x="570" y="246" on="1"/>
        <pt x="548" y="232" on="1"/>
        <pt x="485" y="169" on="1"/>
        <pt x="478" y="169" on="1"/>
        <pt x="464" y="155" on="1"/>
        <pt x="450" y="148" on="1"/>
        <pt x="450" y="130" on="1"/>
        <pt x="361" y="108" on="1"/>
        <pt x="334" y="81" on="1"/>
        <pt x="281" y="70" on="1"/>
        <pt x="260" y="63" on="1"/>
        <pt x="246" y="176" on="1"/>
      </contour>
      <contour>
        <pt x="457" y="338" on="1"/>
        <pt x="450" y="309" on="1"/>
        <pt x="457" y="309" on="1"/>
        <pt x="457" y="338" on="1"/>
      </contour>
      <contour>
        <pt x="471" y="429" on="1"/>
        <pt x="471" y="473" on="1"/>
        <pt x="547" y="463" on="1"/>
        <pt x="496" y="429" on="1"/>
        <pt x="471" y="429" on="1"/>
      </contour>
      <contour>
        <pt x="209" y="754" on="1"/>
        <pt x="148" y="767" on="1"/>
        <pt x="105" y="788" on="1"/>
        <pt x="76" y="818" on="1"/>
        <pt x="141" y="839" on="1"/>
        <pt x="183" y="867" on="1"/>
        <pt x="243" y="887" on="1"/>
        <pt x="274" y="872" on="1"/>
        <pt x="375" y="838" on="1"/>
        <pt x="288" y="774" on="1"/>
        <pt x="223" y="741" on="1"/>
        <pt x="209" y="754" on="1"/>
      </contour>
    </TTGlyph>
    <TTGlyph name="M" xMin="12" yMin="-5" xMax="652" yMax="992">
      <contour>
        <pt x="153" y="7" on="1"/>
        <pt x="253" y="-5" on="1"/>
        <pt x="272" y="14" on="1"/>
        <pt x="357" y="42" on="1"/>
        <pt x="364" y="49" on="1"/>
        <pt x="385" y="56" on="1"/>
        <pt x="399" y="70" on="1"/>
        <pt x="478" y="93" on="1"/>
        <pt x="596" y="211" on="1"/>
        <pt x="652" y="239" on="1"/>
        <pt x="652" y="309" on="1"/>
        <pt x="638" y="366" on="1"/>
        <pt x="638" y="696" on="1"/>
        <pt x="617" y="802" on="1"/>
        <pt x="617" y="951" on="1"/>
        <pt x="455" y="992" on="1"/>
        <pt x="392" y="992" on="1"/>
        <pt x="328" y="970" on="1"/>
        <pt x="216" y="914" on="1"/>
        <pt x="181" y="900" on="1"/>
        <pt x="110" y="865" on="1"/>
        <pt x="75" y="851" on="1"/>
        <pt x="47" y="837" on="1"/>
        <pt x="26" y="830" on="1"/>
        <pt x="26" y="795" on="1"/>
        <pt x="54" y="696" on="1"/>
        <pt x="54" y="443" on="1"/>
        <pt x="34" y="403" on="1"/>
        <pt x="25" y="82" on="1"/>
        <pt x="12" y="42" on="1"/>
        <pt x="12" y="14" on="1"/>
        <pt x="153" y="7" on="1"/>
      </contour>
      <contour>
        <pt x="60" y="49" on="1"/>
        <pt x="69" y="368" on="1"/>
        <pt x="89" y="429" on="1"/>
        <pt x="89" y="738" on="1"/>
        <pt x="96" y="731" on="1"/>
        <pt x="184" y="714" on="1"/>
        <pt x="202" y="696" on="1"/>
        <pt x="209" y="218" on="1"/>
        <pt x="219" y="39" on="1"/>
        <pt x="60" y="49" on="1"/>
      </contour>
      <contour>
        <pt x="244" y="169" on="1"/>
        <pt x="244" y="696" on="1"/>
        <pt x="272" y="710" on="1"/>
        <pt x="279" y="717" on="1"/>
        <pt x="312" y="734" on="1"/>
        <pt x="321" y="752" on="1"/>
        <pt x="335" y="760" on="1"/>
        <pt x="378" y="788" on="1"/>
        <pt x="386" y="577" on="1"/>
        <pt x="420" y="577" on="1"/>
        <pt x="420" y="809" on="1"/>
        <pt x="455" y="823" on="1"/>
        <pt x="469" y="837" on="1"/>
        <pt x="490" y="844" on="1"/>
        <pt x="514" y="867" on="1"/>
        <pt x="574" y="883" on="1"/>
        <pt x="589" y="745" on="1"/>
        <pt x="603" y="689" on="1"/>
        <pt x="603" y="338" on="1"/>
        <pt x="619" y="273" on="1"/>
        <pt x="575" y="246" on="1"/>
        <pt x="561" y="232" on="1"/>
        <pt x="541" y="232" on="1"/>
        <pt x="525" y="309" on="1"/>
        <pt x="518" y="549" on="1"/>
        <pt x="490" y="549" on="1"/>
        <pt x="490" y="271" on="1"/>
        <pt x="513" y="191" on="1"/>
        <pt x="497" y="176" on="1"/>
        <pt x="476" y="143" on="1"/>
        <pt x="434" y="127" on="1"/>
        <pt x="420" y="113" on="1"/>
        <pt x="378" y="113" on="1"/>
        <pt x="371" y="281" on="1"/>
        <pt x="364" y="331" on="1"/>
        <pt x="356" y="436" on="1"/>
        <pt x="328" y="436" on="1"/>
        <pt x="328" y="295" on="1"/>
        <pt x="335" y="253" on="1"/>
        <pt x="335" y="75" on="1"/>
        <pt x="279" y="63" on="1"/>
        <pt x="258" y="56" on="1"/>
        <pt x="244" y="169" on="1"/>
      </contour>
      <contour>
        <pt x="207" y="747" on="1"/>
        <pt x="146" y="760" on="1"/>
        <pt x="103" y="781" on="1"/>
        <pt x="74" y="811" on="1"/>
        <pt x="139" y="832" on="1"/>
        <pt x="181" y="860" on="1"/>
        <pt x="226" y="876" on="1"/>
        <pt x="258" y="865" on="1"/>
        <pt x="279" y="851" on="1"/>
        <pt x="328" y="844" on="1"/>
        <pt x="350" y="830" on="1"/>
        <pt x="350" y="814" on="1"/>
        <pt x="286" y="767" on="1"/>
        <pt x="221" y="734" on="1"/>
        <pt x="207" y="747" on="1"/>
      </contour>
      <contour>
        <pt x="392" y="858" on="1"/>
        <pt x="364" y="879" on="1"/>
        <pt x="314" y="886" on="1"/>
        <pt x="287" y="904" on="1"/>
        <pt x="373" y="947" on="1"/>
        <pt x="432" y="959" on="1"/>
        <pt x="554" y="928" on="1"/>
        <pt x="554" y="918" on="1"/>
        <pt x="490" y="900" on="1"/>
        <pt x="455" y="865" on="1"/>
        <pt x="425" y="850" on="1"/>
        <pt x="392" y="858" on="1"/>
      </contour>
    </TTGlyph>
    <TTGlyph name="N" xMin="12" yMin="2" xMax="652" yMax="999">
      <contour>
        <pt x="153" y="14" on="1"/>
        <pt x="253" y="2" on="1"/>
        <pt x="272" y="21" on="1"/>
        <pt x="357" y="49" on="1"/>
        <pt x="364" y="56" on="1"/>
        <pt x="385" y="63" on="1"/>
        <pt x="399" y="77" on="1"/>
        <pt x="448" y="91" on="1"/>
        <pt x="504" y="120" on="1"/>
        <pt x="532" y="162" on="1"/>
        <pt x="554" y="176" on="1"/>
        <pt x="596" y="218" on="1"/>
        <pt x="652" y="246" on="1"/>
        <pt x="652" y="316" on="1"/>
        <pt x="638" y="373" on="1"/>
        <pt x="638" y="647" on="1"/>
        <pt x="631" y="675" on="1"/>
        <pt x="631" y="738" on="1"/>
        <pt x="617" y="809" on="1"/>
        <pt x="617" y="958" on="1"/>
        <pt x="455" y="999" on="1"/>
        <pt x="392" y="999" on="1"/>
        <pt x="328" y="977" on="1"/>
        <pt x="216" y="921" on="1"/>
        <pt x="181" y="907" on="1"/>
        <pt x="110" y="872" on="1"/>
        <pt x="75" y="858" on="1"/>
        <pt x="47" y="844" on="1"/>
        <pt x="26" y="837" on="1"/>
        <pt x="26" y="802" on="1"/>
        <pt x="54" y="703" on="1"/>
        <pt x="54" y="450" on="1"/>
        <pt x="34" y="410" on="1"/>
        <pt x="25" y="89" on="1"/>
        <pt x="12" y="49" on="1"/>
        <pt x="12" y="21" on="1"/>
        <pt x="153" y="14" on="1"/>
      </contour>
      <contour>
        <pt x="60" y="56" on="1"/>
        <pt x="69" y="375" on="1"/>
        <pt x="89" y="436" on="1"/>
        <pt x="89" y="745" on="1"/>
        <pt x="96" y="738" on="1"/>
        <pt x="184" y="721" on="1"/>
        <pt x="202" y="703" on="1"/>
        <pt x="209" y="225" on="1"/>
        <pt x="219" y="46" on="1"/>
        <pt x="60" y="56" on="1"/>
      </contour>
      <contour>
        <pt x="244" y="176" on="1"/>
        <pt x="244" y="703" on="1"/>
        <pt x="272" y="717" on="1"/>
        <pt x="279" y="724" on="1"/>
        <pt x="293" y="731" on="1"/>
        <pt x="399" y="810" on="1"/>
        <pt x="455" y="825" on="1"/>
        <pt x="462" y="731" on="1"/>
        <pt x="472" y="701" on="1"/>
        <pt x="483" y="415" on="1"/>
        <pt x="525" y="415" on="1"/>
        <pt x="525" y="436" on="1"/>
        <pt x="518" y="450" on="1"/>
        <pt x="518" y="549" on="1"/>
        <pt x="504" y="738" on="1"/>
        <pt x="492" y="775" on="1"/>
        <pt x="512" y="874" on="1"/>
        <pt x="574" y="890" on="1"/>
        <pt x="589" y="752" on="1"/>
        <pt x="596" y="731" on="1"/>
        <pt x="589" y="724" on="1"/>
        <pt x="589" y="654" on="1"/>
        <pt x="603" y="619" on="1"/>
        <pt x="610" y="541" on="1"/>
        <pt x="619" y="524" on="1"/>
        <pt x="603" y="492" on="1"/>
        <pt x="603" y="345" on="1"/>
        <pt x="619" y="280" on="1"/>
        <pt x="575" y="253" on="1"/>
        <pt x="568" y="246" on="1"/>
        <pt x="546" y="232" on="1"/>
        <pt x="448" y="134" on="1"/>
        <pt x="390" y="114" on="1"/>
        <pt x="371" y="134" on="1"/>
        <pt x="371" y="204" on="1"/>
        <pt x="378" y="239" on="1"/>
        <pt x="378" y="408" on="1"/>
        <pt x="371" y="443" on="1"/>
        <pt x="364" y="541" on="1"/>
        <pt x="335" y="541" on="1"/>
        <pt x="335" y="415" on="1"/>
        <pt x="343" y="380" on="1"/>
        <pt x="343" y="267" on="1"/>
        <pt x="335" y="232" on="1"/>
        <pt x="335" y="82" on="1"/>
        <pt x="279" y="70" on="1"/>
        <pt x="258" y="63" on="1"/>
        <pt x="244" y="176" on="1"/>
      </contour>
      <contour>
        <pt x="207" y="754" on="1"/>
        <pt x="146" y="767" on="1"/>
        <pt x="103" y="788" on="1"/>
        <pt x="74" y="818" on="1"/>
        <pt x="139" y="839" on="1"/>
        <pt x="179" y="866" on="1"/>
        <pt x="251" y="893" on="1"/>
        <pt x="289" y="912" on="1"/>
        <pt x="406" y="883" on="1"/>
        <pt x="445" y="863" on="1"/>
        <pt x="378" y="844" on="1"/>
        <pt x="371" y="837" on="1"/>
        <pt x="286" y="774" on="1"/>
        <pt x="221" y="741" on="1"/>
        <pt x="207" y="754" on="1"/>
      </contour>
      <contour>
        <pt x="448" y="914" on="1"/>
        <pt x="348" y="942" on="1"/>
        <pt x="402" y="963" on="1"/>
        <pt x="441" y="963" on="1"/>
        <pt x="554" y="935" on="1"/>
        <pt x="554" y="925" on="1"/>
        <pt x="475" y="905" on="1"/>
        <pt x="448" y="914" on="1"/>
      </contour>
    </TTGlyph>
    <TTGlyph name="O" xMin="12" yMin="2" xMax="652" yMax="999">
      <contour>
        <pt x="153" y="14" on="1"/>
        <pt x="253" y="2" on="1"/>
        <pt x="272" y="21" on="1"/>
        <pt x="357" y="49" on="1"/>
        <pt x="364" y="56" on="1"/>
        <pt x="385" y="63" on="1"/>
        <pt x="399" y="77" on="1"/>
        <pt x="448" y="91" on="1"/>
        <pt x="504" y="120" on="1"/>
        <pt x="532" y="162" on="1"/>
        <pt x="554" y="176" on="1"/>
        <pt x="596" y="218" on="1"/>
        <pt x="652" y="246" on="1"/>
        <pt x="652" y="316" on="1"/>
        <pt x="638" y="373" on="1"/>
        <pt x="638" y="703" on="1"/>
        <pt x="617" y="809" on="1"/>
        <pt x="617" y="958" on="1"/>
        <pt x="455" y="999" on="1"/>
        <pt x="392" y="999" on="1"/>
        <pt x="328" y="977" on="1"/>
        <pt x="216" y="921" on="1"/>
        <pt x="181" y="907" on="1"/>
        <pt x="110" y="872" on="1"/>
        <pt x="75" y="858" on="1"/>
        <pt x="47" y="844" on="1"/>
        <pt x="26" y="837" on="1"/>
        <pt x="26" y="802" on="1"/>
        <pt x="54" y="703" on="1"/>
        <pt x="54" y="450" on="1"/>
        <pt x="34" y="410" on="1"/>
        <pt x="25" y="89" on="1"/>
        <pt x="12" y="49" on="1"/>
        <pt x="12" y="21" on="1"/>
        <pt x="153" y="14" on="1"/>
      </contour>
      <contour>
        <pt x="60" y="56" on="1"/>
        <pt x="69" y="375" on="1"/>
        <pt x="89" y="436" on="1"/>
        <pt x="89" y="745" on="1"/>
        <pt x="96" y="738" on="1"/>
        <pt x="184" y="721" on="1"/>
        <pt x="202" y="703" on="1"/>
        <pt x="209" y="225" on="1"/>
        <pt x="219" y="46" on="1"/>
        <pt x="60" y="56" on="1"/>
      </contour>
      <contour>
        <pt x="244" y="176" on="1"/>
        <pt x="244" y="703" on="1"/>
        <pt x="272" y="717" on="1"/>
        <pt x="279" y="724" on="1"/>
        <pt x="293" y="731" on="1"/>
        <pt x="395" y="807" on="1"/>
        <pt x="473" y="833" on="1"/>
        <pt x="514" y="874" on="1"/>
        <pt x="574" y="890" on="1"/>
        <pt x="589" y="752" on="1"/>
        <pt x="603" y="696" on="1"/>
        <pt x="603" y="345" on="1"/>
        <pt x="619" y="280" on="1"/>
        <pt x="575" y="253" on="1"/>
        <pt x="568" y="246" on="1"/>
        <pt x="546" y="232" on="1"/>
        <pt x="483" y="169" on="1"/>
        <pt x="476" y="169" on="1"/>
        <pt x="462" y="155" on="1"/>
        <pt x="448" y="148" on="1"/>
        <pt x="448" y="130" on="1"/>
        <pt x="359" y="108" on="1"/>
        <pt x="332" y="81" on="1"/>
        <pt x="279" y="70" on="1"/>
        <pt x="258" y="63" on="1"/>
        <pt x="244" y="176" on="1"/>
      </contour>
      <contour>
        <pt x="364" y="333" on="1"/>
        <pt x="399" y="281" on="1"/>
        <pt x="480" y="281" on="1"/>
        <pt x="497" y="323" on="1"/>
        <pt x="506" y="545" on="1"/>
        <pt x="493" y="638" on="1"/>
        <pt x="448" y="682" on="1"/>
        <pt x="371" y="682" on="1"/>
        <pt x="353" y="655" on="1"/>
        <pt x="364" y="333" on="1"/>
      </contour>
      <contour>
        <pt x="409" y="341" on="1"/>
        <pt x="392" y="394" on="1"/>
        <pt x="392" y="633" on="1"/>
        <pt x="406" y="647" on="1"/>
        <pt x="445" y="627" on="1"/>
        <pt x="462" y="577" on="1"/>
        <pt x="462" y="359" on="1"/>
        <pt x="448" y="316" on="1"/>
        <pt x="434" y="316" on="1"/>
        <pt x="409" y="341" on="1"/>
      </contour>
      <contour>
        <pt x="207" y="754" on="1"/>
        <pt x="146" y="767" on="1"/>
        <pt x="103" y="788" on="1"/>
        <pt x="74" y="818" on="1"/>
        <pt x="139" y="839" on="1"/>
        <pt x="179" y="866" on="1"/>
        <pt x="251" y="893" on="1"/>
        <pt x="373" y="954" on="1"/>
        <pt x="432" y="966" on="1"/>
        <pt x="554" y="935" on="1"/>
        <pt x="554" y="925" on="1"/>
        <pt x="490" y="907" on="1"/>
        <pt x="455" y="872" on="1"/>
        <pt x="427" y="858" on="1"/>
        <pt x="378" y="844" on="1"/>
        <pt x="371" y="837" on="1"/>
        <pt x="286" y="774" on="1"/>
        <pt x="221" y="741" on="1"/>
        <pt x="207" y="754" on="1"/>
      </contour>
    </TTGlyph>
    <TTGlyph name="P" xMin="12" yMin="2" xMax="646" yMax="999">
      <contour>
        <pt x="153" y="14" on="1"/>
        <pt x="253" y="2" on="1"/>
        <pt x="272" y="21" on="1"/>
        <pt x="357" y="49" on="1"/>
        <pt x="364" y="56" on="1"/>
        <pt x="385" y="63" on="1"/>
        <pt x="399" y="77" on="1"/>
        <pt x="448" y="91" on="1"/>
        <pt x="497" y="116" on="1"/>
        <pt x="497" y="425" on="1"/>
        <pt x="561" y="457" on="1"/>
        <pt x="603" y="499" on="1"/>
        <pt x="646" y="525" on="1"/>
        <pt x="631" y="738" on="1"/>
        <pt x="617" y="809" on="1"/>
        <pt x="617" y="958" on="1"/>
        <pt x="455" y="999" on="1"/>
        <pt x="392" y="999" on="1"/>
        <pt x="328" y="978" on="1"/>
        <pt x="216" y="921" on="1"/>
        <pt x="181" y="907" on="1"/>
        <pt x="110" y="872" on="1"/>
        <pt x="75" y="858" on="1"/>
        <pt x="47" y="844" on="1"/>
        <pt x="26" y="837" on="1"/>
        <pt x="26" y="802" on="1"/>
        <pt x="54" y="703" on="1"/>
        <pt x="54" y="450" on="1"/>
        <pt x="34" y="410" on="1"/>
        <pt x="25" y="89" on="1"/>
        <pt x="12" y="49" on="1"/>
        <pt x="12" y="21" on="1"/>
        <pt x="153" y="14" on="1"/>
      </contour>
      <contour>
        <pt x="60" y="56" on="1"/>
        <pt x="69" y="375" on="1"/>
        <pt x="89" y="436" on="1"/>
        <pt x="89" y="745" on="1"/>
        <pt x="96" y="738" on="1"/>
        <pt x="184" y="721" on="1"/>
        <pt x="202" y="703" on="1"/>
        <pt x="209" y="225" on="1"/>
        <pt x="219" y="46" on="1"/>
        <pt x="60" y="56" on="1"/>
      </contour>
      <contour>
        <pt x="244" y="176" on="1"/>
        <pt x="244" y="703" on="1"/>
        <pt x="272" y="717" on="1"/>
        <pt x="279" y="724" on="1"/>
        <pt x="293" y="731" on="1"/>
        <pt x="395" y="807" on="1"/>
        <pt x="473" y="833" on="1"/>
        <pt x="514" y="874" on="1"/>
        <pt x="574" y="890" on="1"/>
        <pt x="589" y="745" on="1"/>
        <pt x="603" y="675" on="1"/>
        <pt x="603" y="552" on="1"/>
        <pt x="561" y="520" on="1"/>
        <pt x="539" y="499" on="1"/>
        <pt x="497" y="478" on="1"/>
        <pt x="490" y="471" on="1"/>
        <pt x="464" y="458" on="1"/>
        <pt x="455" y="415" on="1"/>
        <pt x="462" y="366" on="1"/>
        <pt x="462" y="138" on="1"/>
        <pt x="406" y="120" on="1"/>
        <pt x="359" y="108" on="1"/>
        <pt x="332" y="81" on="1"/>
        <pt x="279" y="70" on="1"/>
        <pt x="258" y="63" on="1"/>
        <pt x="244" y="176" on="1"/>
      </contour>
      <contour>
        <pt x="448" y="401" on="1"/>
        <pt x="448" y="394" on="1"/>
        <pt x="448" y="401" on="1"/>
      </contour>
      <contour>
        <pt x="638" y="464" on="1"/>
        <pt x="631" y="464" on="1"/>
        <pt x="638" y="464" on="1"/>
      </contour>
      <contour>
        <pt x="392" y="682" on="1"/>
        <pt x="392" y="584" on="1"/>
        <pt x="483" y="584" on="1"/>
        <pt x="504" y="605" on="1"/>
        <pt x="504" y="689" on="1"/>
        <pt x="490" y="703" on="1"/>
        <pt x="413" y="703" on="1"/>
        <pt x="392" y="682" on="1"/>
      </contour>
      <contour>
        <pt x="427" y="661" on="1"/>
        <pt x="474" y="661" on="1"/>
        <pt x="460" y="619" on="1"/>
        <pt x="427" y="619" on="1"/>
        <pt x="427" y="661" on="1"/>
      </contour>
      <contour>
        <pt x="207" y="754" on="1"/>
        <pt x="146" y="767" on="1"/>
        <pt x="103" y="788" on="1"/>
        <pt x="74" y="818" on="1"/>
        <pt x="139" y="839" on="1"/>
        <pt x="179" y="866" on="1"/>
        <pt x="251" y="893" on="1"/>
        <pt x="373" y="954" on="1"/>
        <pt x="432" y="966" on="1"/>
        <pt x="554" y="935" on="1"/>
        <pt x="554" y="925" on="1"/>
        <pt x="490" y="907" on="1"/>
        <pt x="455" y="872" on="1"/>
        <pt x="427" y="858" on="1"/>
        <pt x="378" y="844" on="1"/>
        <pt x="371" y="837" on="1"/>
        <pt x="286" y="774" on="1"/>
        <pt x="221" y="741" on="1"/>
        <pt x="207" y="754" on="1"/>
      </contour>
    </TTGlyph>
    <TTGlyph name="Q" xMin="13" yMin="-5" xMax="780" yMax="992">
      <contour>
        <pt x="154" y="7" on="1"/>
        <pt x="254" y="-5" on="1"/>
        <pt x="273" y="14" on="1"/>
        <pt x="358" y="42" on="1"/>
        <pt x="365" y="49" on="1"/>
        <pt x="386" y="56" on="1"/>
        <pt x="400" y="70" on="1"/>
        <pt x="479" y="93" on="1"/>
        <pt x="499" y="113" on="1"/>
        <pt x="593" y="192" on="1"/>
        <pt x="717" y="253" on="1"/>
        <pt x="738" y="274" on="1"/>
        <pt x="780" y="296" on="1"/>
        <pt x="780" y="338" on="1"/>
        <pt x="759" y="411" on="1"/>
        <pt x="752" y="535" on="1"/>
        <pt x="745" y="542" on="1"/>
        <pt x="736" y="559" on="1"/>
        <pt x="642" y="578" on="1"/>
        <pt x="632" y="732" on="1"/>
        <pt x="618" y="802" on="1"/>
        <pt x="618" y="952" on="1"/>
        <pt x="456" y="992" on="1"/>
        <pt x="393" y="992" on="1"/>
        <pt x="330" y="971" on="1"/>
        <pt x="217" y="915" on="1"/>
        <pt x="182" y="901" on="1"/>
        <pt x="112" y="865" on="1"/>
        <pt x="76" y="851" on="1"/>
        <pt x="48" y="837" on="1"/>
        <pt x="27" y="830" on="1"/>
        <pt x="27" y="795" on="1"/>
        <pt x="55" y="697" on="1"/>
        <pt x="55" y="443" on="1"/>
        <pt x="35" y="404" on="1"/>
        <pt x="26" y="83" on="1"/>
        <pt x="13" y="42" on="1"/>
        <pt x="13" y="14" on="1"/>
        <pt x="154" y="7" on="1"/>
      </contour>
      <contour>
        <pt x="61" y="49" on="1"/>
        <pt x="70" y="368" on="1"/>
        <pt x="90" y="429" on="1"/>
        <pt x="90" y="739" on="1"/>
        <pt x="97" y="732" on="1"/>
        <pt x="185" y="714" on="1"/>
        <pt x="203" y="697" on="1"/>
        <pt x="210" y="218" on="1"/>
        <pt x="220" y="39" on="1"/>
        <pt x="61" y="49" on="1"/>
      </contour>
      <contour>
        <pt x="245" y="169" on="1"/>
        <pt x="245" y="697" on="1"/>
        <pt x="273" y="711" on="1"/>
        <pt x="280" y="718" on="1"/>
        <pt x="294" y="725" on="1"/>
        <pt x="396" y="801" on="1"/>
        <pt x="474" y="827" on="1"/>
        <pt x="515" y="868" on="1"/>
        <pt x="576" y="883" on="1"/>
        <pt x="590" y="746" on="1"/>
        <pt x="597" y="718" on="1"/>
        <pt x="597" y="661" on="1"/>
        <pt x="604" y="605" on="1"/>
        <pt x="604" y="493" on="1"/>
        <pt x="597" y="486" on="1"/>
        <pt x="606" y="441" on="1"/>
        <pt x="646" y="457" on="1"/>
        <pt x="703" y="500" on="1"/>
        <pt x="717" y="500" on="1"/>
        <pt x="725" y="370" on="1"/>
        <pt x="739" y="327" on="1"/>
        <pt x="660" y="274" on="1"/>
        <pt x="646" y="267" on="1"/>
        <pt x="605" y="226" on="1"/>
        <pt x="540" y="217" on="1"/>
        <pt x="445" y="122" on="1"/>
        <pt x="360" y="101" on="1"/>
        <pt x="333" y="74" on="1"/>
        <pt x="280" y="63" on="1"/>
        <pt x="259" y="56" on="1"/>
        <pt x="245" y="169" on="1"/>
      </contour>
      <contour>
        <pt x="423" y="324" on="1"/>
        <pt x="484" y="324" on="1"/>
        <pt x="496" y="335" on="1"/>
        <pt x="513" y="401" on="1"/>
        <pt x="513" y="563" on="1"/>
        <pt x="484" y="647" on="1"/>
        <pt x="400" y="647" on="1"/>
        <pt x="386" y="619" on="1"/>
        <pt x="379" y="584" on="1"/>
        <pt x="365" y="556" on="1"/>
        <pt x="365" y="457" on="1"/>
        <pt x="375" y="405" on="1"/>
        <pt x="407" y="373" on="1"/>
        <pt x="423" y="324" on="1"/>
      </contour>
      <contour>
        <pt x="442" y="401" on="1"/>
        <pt x="400" y="457" on="1"/>
        <pt x="400" y="521" on="1"/>
        <pt x="414" y="563" on="1"/>
        <pt x="421" y="598" on="1"/>
        <pt x="439" y="616" on="1"/>
        <pt x="466" y="588" on="1"/>
        <pt x="479" y="512" on="1"/>
        <pt x="468" y="366" on="1"/>
        <pt x="456" y="366" on="1"/>
        <pt x="442" y="401" on="1"/>
      </contour>
      <contour>
        <pt x="646" y="538" on="1"/>
        <pt x="667" y="528" on="1"/>
        <pt x="646" y="514" on="1"/>
        <pt x="646" y="538" on="1"/>
      </contour>
      <contour>
        <pt x="208" y="748" on="1"/>
        <pt x="147" y="760" on="1"/>
        <pt x="104" y="781" on="1"/>
        <pt x="75" y="811" on="1"/>
        <pt x="140" y="833" on="1"/>
        <pt x="180" y="859" on="1"/>
        <pt x="252" y="887" on="1"/>
        <pt x="374" y="948" on="1"/>
        <pt x="433" y="959" on="1"/>
        <pt x="555" y="929" on="1"/>
        <pt x="555" y="919" on="1"/>
        <pt x="491" y="901" on="1"/>
        <pt x="456" y="865" on="1"/>
        <pt x="428" y="851" on="1"/>
        <pt x="379" y="837" on="1"/>
        <pt x="372" y="830" on="1"/>
        <pt x="287" y="767" on="1"/>
        <pt x="222" y="734" on="1"/>
        <pt x="208" y="748" on="1"/>
      </contour>
    </TTGlyph>
    <TTGlyph name="R" xMin="12" yMin="-5" xMax="664" yMax="992">
      <contour>
        <pt x="153" y="7" on="1"/>
        <pt x="253" y="-5" on="1"/>
        <pt x="272" y="14" on="1"/>
        <pt x="357" y="42" on="1"/>
        <pt x="364" y="49" on="1"/>
        <pt x="385" y="56" on="1"/>
        <pt x="399" y="70" on="1"/>
        <pt x="468" y="80" on="1"/>
        <pt x="490" y="91" on="1"/>
        <pt x="539" y="108" on="1"/>
        <pt x="539" y="127" on="1"/>
        <pt x="596" y="155" on="1"/>
        <pt x="648" y="172" on="1"/>
        <pt x="664" y="188" on="1"/>
        <pt x="652" y="274" on="1"/>
        <pt x="637" y="482" on="1"/>
        <pt x="589" y="506" on="1"/>
        <pt x="589" y="534" on="1"/>
        <pt x="638" y="577" on="1"/>
        <pt x="638" y="696" on="1"/>
        <pt x="617" y="802" on="1"/>
        <pt x="617" y="951" on="1"/>
        <pt x="455" y="992" on="1"/>
        <pt x="392" y="992" on="1"/>
        <pt x="328" y="970" on="1"/>
        <pt x="216" y="914" on="1"/>
        <pt x="181" y="900" on="1"/>
        <pt x="110" y="865" on="1"/>
        <pt x="75" y="851" on="1"/>
        <pt x="47" y="837" on="1"/>
        <pt x="26" y="830" on="1"/>
        <pt x="26" y="795" on="1"/>
        <pt x="54" y="696" on="1"/>
        <pt x="54" y="443" on="1"/>
        <pt x="34" y="403" on="1"/>
        <pt x="25" y="82" on="1"/>
        <pt x="12" y="42" on="1"/>
        <pt x="12" y="14" on="1"/>
        <pt x="153" y="7" on="1"/>
      </contour>
      <contour>
        <pt x="60" y="49" on="1"/>
        <pt x="69" y="368" on="1"/>
        <pt x="89" y="429" on="1"/>
        <pt x="89" y="738" on="1"/>
        <pt x="96" y="731" on="1"/>
        <pt x="184" y="714" on="1"/>
        <pt x="202" y="696" on="1"/>
        <pt x="209" y="218" on="1"/>
        <pt x="219" y="39" on="1"/>
        <pt x="60" y="49" on="1"/>
      </contour>
      <contour>
        <pt x="244" y="169" on="1"/>
        <pt x="244" y="696" on="1"/>
        <pt x="272" y="710" on="1"/>
        <pt x="279" y="717" on="1"/>
        <pt x="293" y="724" on="1"/>
        <pt x="395" y="800" on="1"/>
        <pt x="473" y="826" on="1"/>
        <pt x="514" y="867" on="1"/>
        <pt x="574" y="882" on="1"/>
        <pt x="589" y="738" on="1"/>
        <pt x="589" y="689" on="1"/>
        <pt x="603" y="675" on="1"/>
        <pt x="603" y="598" on="1"/>
        <pt x="577" y="572" on="1"/>
        <pt x="539" y="506" on="1"/>
        <pt x="539" y="478" on="1"/>
        <pt x="592" y="471" on="1"/>
        <pt x="603" y="450" on="1"/>
        <pt x="618" y="209" on="1"/>
        <pt x="561" y="190" on="1"/>
        <pt x="553" y="183" on="1"/>
        <pt x="525" y="169" on="1"/>
        <pt x="487" y="138" on="1"/>
        <pt x="469" y="246" on="1"/>
        <pt x="461" y="323" on="1"/>
        <pt x="427" y="323" on="1"/>
        <pt x="427" y="267" on="1"/>
        <pt x="446" y="123" on="1"/>
        <pt x="359" y="101" on="1"/>
        <pt x="332" y="74" on="1"/>
        <pt x="279" y="63" on="1"/>
        <pt x="258" y="56" on="1"/>
        <pt x="244" y="169" on="1"/>
      </contour>
      <contour>
        <pt x="525" y="499" on="1"/>
        <pt x="511" y="492" on="1"/>
        <pt x="525" y="492" on="1"/>
        <pt x="525" y="499" on="1"/>
      </contour>
      <contour>
        <pt x="371" y="577" on="1"/>
        <pt x="385" y="563" on="1"/>
        <pt x="480" y="563" on="1"/>
        <pt x="497" y="598" on="1"/>
        <pt x="497" y="724" on="1"/>
        <pt x="406" y="724" on="1"/>
        <pt x="371" y="689" on="1"/>
        <pt x="371" y="577" on="1"/>
      </contour>
      <contour>
        <pt x="406" y="598" on="1"/>
        <pt x="406" y="654" on="1"/>
        <pt x="441" y="689" on="1"/>
        <pt x="462" y="689" on="1"/>
        <pt x="462" y="626" on="1"/>
        <pt x="448" y="598" on="1"/>
        <pt x="406" y="598" on="1"/>
      </contour>
      <contour>
        <pt x="207" y="747" on="1"/>
        <pt x="146" y="759" on="1"/>
        <pt x="103" y="781" on="1"/>
        <pt x="74" y="810" on="1"/>
        <pt x="139" y="832" on="1"/>
        <pt x="179" y="859" on="1"/>
        <pt x="251" y="886" on="1"/>
        <pt x="373" y="947" on="1"/>
        <pt x="432" y="959" on="1"/>
        <pt x="553" y="928" on="1"/>
        <pt x="553" y="918" on="1"/>
        <pt x="490" y="900" on="1"/>
        <pt x="455" y="865" on="1"/>
        <pt x="427" y="851" on="1"/>
        <pt x="378" y="837" on="1"/>
        <pt x="371" y="830" on="1"/>
        <pt x="286" y="767" on="1"/>
        <pt x="221" y="734" on="1"/>
        <pt x="207" y="747" on="1"/>
      </contour>
    </TTGlyph>
    <TTGlyph name="S" xMin="12" yMin="-19" xMax="652" yMax="978">
      <contour>
        <pt x="153" y="-7" on="1"/>
        <pt x="253" y="-19" on="1"/>
        <pt x="272" y="0" on="1"/>
        <pt x="357" y="28" on="1"/>
        <pt x="364" y="35" on="1"/>
        <pt x="385" y="42" on="1"/>
        <pt x="399" y="56" on="1"/>
        <pt x="448" y="70" on="1"/>
        <pt x="504" y="99" on="1"/>
        <pt x="532" y="141" on="1"/>
        <pt x="554" y="155" on="1"/>
        <pt x="596" y="197" on="1"/>
        <pt x="652" y="225" on="1"/>
        <pt x="652" y="295" on="1"/>
        <pt x="638" y="352" on="1"/>
        <pt x="638" y="682" on="1"/>
        <pt x="617" y="788" on="1"/>
        <pt x="617" y="937" on="1"/>
        <pt x="455" y="978" on="1"/>
        <pt x="392" y="978" on="1"/>
        <pt x="328" y="956" on="1"/>
        <pt x="216" y="900" on="1"/>
        <pt x="181" y="886" on="1"/>
        <pt x="110" y="851" on="1"/>
        <pt x="75" y="837" on="1"/>
        <pt x="47" y="823" on="1"/>
        <pt x="26" y="816" on="1"/>
        <pt x="26" y="781" on="1"/>
        <pt x="54" y="682" on="1"/>
        <pt x="54" y="429" on="1"/>
        <pt x="34" y="389" on="1"/>
        <pt x="25" y="68" on="1"/>
        <pt x="12" y="28" on="1"/>
        <pt x="12" y="0" on="1"/>
        <pt x="153" y="-7" on="1"/>
      </contour>
      <contour>
        <pt x="59" y="35" on="1"/>
        <pt x="68" y="197" on="1"/>
        <pt x="117" y="190" on="1"/>
        <pt x="167" y="169" on="1"/>
        <pt x="216" y="161" on="1"/>
        <pt x="216" y="26" on="1"/>
        <pt x="59" y="35" on="1"/>
      </contour>
      <contour>
        <pt x="251" y="99" on="1"/>
        <pt x="251" y="169" on="1"/>
        <pt x="279" y="183" on="1"/>
        <pt x="286" y="190" on="1"/>
        <pt x="300" y="197" on="1"/>
        <pt x="307" y="204" on="1"/>
        <pt x="321" y="211" on="1"/>
        <pt x="343" y="232" on="1"/>
        <pt x="364" y="246" on="1"/>
        <pt x="373" y="256" on="1"/>
        <pt x="448" y="302" on="1"/>
        <pt x="448" y="331" on="1"/>
        <pt x="411" y="331" on="1"/>
        <pt x="364" y="302" on="1"/>
        <pt x="244" y="211" on="1"/>
        <pt x="244" y="682" on="1"/>
        <pt x="272" y="696" on="1"/>
        <pt x="279" y="703" on="1"/>
        <pt x="293" y="710" on="1"/>
        <pt x="395" y="786" on="1"/>
        <pt x="473" y="812" on="1"/>
        <pt x="514" y="853" on="1"/>
        <pt x="574" y="869" on="1"/>
        <pt x="582" y="795" on="1"/>
        <pt x="596" y="678" on="1"/>
        <pt x="557" y="665" on="1"/>
        <pt x="529" y="637" on="1"/>
        <pt x="515" y="650" on="1"/>
        <pt x="427" y="584" on="1"/>
        <pt x="364" y="546" on="1"/>
        <pt x="364" y="513" on="1"/>
        <pt x="406" y="513" on="1"/>
        <pt x="420" y="528" on="1"/>
        <pt x="455" y="549" on="1"/>
        <pt x="476" y="570" on="1"/>
        <pt x="504" y="584" on="1"/>
        <pt x="511" y="591" on="1"/>
        <pt x="555" y="600" on="1"/>
        <pt x="582" y="626" on="1"/>
        <pt x="603" y="626" on="1"/>
        <pt x="603" y="324" on="1"/>
        <pt x="619" y="259" on="1"/>
        <pt x="575" y="232" on="1"/>
        <pt x="568" y="225" on="1"/>
        <pt x="517" y="191" on="1"/>
        <pt x="471" y="122" on="1"/>
        <pt x="434" y="113" on="1"/>
        <pt x="425" y="103" on="1"/>
        <pt x="359" y="87" on="1"/>
        <pt x="332" y="60" on="1"/>
        <pt x="279" y="49" on="1"/>
        <pt x="258" y="42" on="1"/>
        <pt x="251" y="99" on="1"/>
      </contour>
      <contour>
        <pt x="156" y="223" on="1"/>
        <pt x="68" y="238" on="1"/>
        <pt x="68" y="352" on="1"/>
        <pt x="89" y="415" on="1"/>
        <pt x="89" y="724" on="1"/>
        <pt x="96" y="717" on="1"/>
        <pt x="184" y="700" on="1"/>
        <pt x="202" y="682" on="1"/>
        <pt x="202" y="200" on="1"/>
        <pt x="156" y="223" on="1"/>
      </contour>
      <contour>
        <pt x="511" y="577" on="1"/>
        <pt x="511" y="556" on="1"/>
        <pt x="511" y="577" on="1"/>
      </contour>
      <contour>
        <pt x="207" y="733" on="1"/>
        <pt x="146" y="746" on="1"/>
        <pt x="103" y="767" on="1"/>
        <pt x="74" y="797" on="1"/>
        <pt x="139" y="818" on="1"/>
        <pt x="179" y="845" on="1"/>
        <pt x="251" y="872" on="1"/>
        <pt x="373" y="933" on="1"/>
        <pt x="432" y="945" on="1"/>
        <pt x="554" y="914" on="1"/>
        <pt x="554" y="904" on="1"/>
        <pt x="490" y="886" on="1"/>
        <pt x="455" y="851" on="1"/>
        <pt x="427" y="837" on="1"/>
        <pt x="378" y="823" on="1"/>
        <pt x="371" y="816" on="1"/>
        <pt x="286" y="753" on="1"/>
        <pt x="221" y="720" on="1"/>
        <pt x="207" y="733" on="1"/>
      </contour>
    </TTGlyph>
    <TTGlyph name="T" xMin="7" yMin="35" xMax="612" yMax="985">
      <contour>
        <pt x="84" y="35" on="1"/>
        <pt x="63" y="35" on="1"/>
        <pt x="84" y="35" on="1"/>
      </contour>
      <contour>
        <pt x="232" y="70" on="1"/>
        <pt x="302" y="35" on="1"/>
        <pt x="345" y="35" on="1"/>
        <pt x="352" y="56" on="1"/>
        <pt x="366" y="56" on="1"/>
        <pt x="380" y="63" on="1"/>
        <pt x="429" y="77" on="1"/>
        <pt x="485" y="105" on="1"/>
        <pt x="513" y="148" on="1"/>
        <pt x="535" y="162" on="1"/>
        <pt x="547" y="186" on="1"/>
        <pt x="529" y="275" on="1"/>
        <pt x="515" y="425" on="1"/>
        <pt x="528" y="499" on="1"/>
        <pt x="528" y="619" on="1"/>
        <pt x="556" y="633" on="1"/>
        <pt x="591" y="654" on="1"/>
        <pt x="612" y="665" on="1"/>
        <pt x="612" y="745" on="1"/>
        <pt x="598" y="774" on="1"/>
        <pt x="598" y="944" on="1"/>
        <pt x="436" y="985" on="1"/>
        <pt x="373" y="985" on="1"/>
        <pt x="309" y="964" on="1"/>
        <pt x="197" y="907" on="1"/>
        <pt x="162" y="893" on="1"/>
        <pt x="91" y="858" on="1"/>
        <pt x="56" y="844" on="1"/>
        <pt x="28" y="830" on="1"/>
        <pt x="7" y="823" on="1"/>
        <pt x="7" y="788" on="1"/>
        <pt x="35" y="689" on="1"/>
        <pt x="35" y="537" on="1"/>
        <pt x="84" y="520" on="1"/>
        <pt x="120" y="506" on="1"/>
        <pt x="162" y="499" on="1"/>
        <pt x="171" y="365" on="1"/>
        <pt x="158" y="85" on="1"/>
        <pt x="232" y="70" on="1"/>
      </contour>
      <contour>
        <pt x="256" y="108" on="1"/>
        <pt x="196" y="120" on="1"/>
        <pt x="204" y="295" on="1"/>
        <pt x="204" y="490" on="1"/>
        <pt x="267" y="506" on="1"/>
        <pt x="281" y="520" on="1"/>
        <pt x="295" y="520" on="1"/>
        <pt x="302" y="471" on="1"/>
        <pt x="317" y="415" on="1"/>
        <pt x="317" y="84" on="1"/>
        <pt x="302" y="84" on="1"/>
        <pt x="256" y="108" on="1"/>
      </contour>
      <contour>
        <pt x="352" y="443" on="1"/>
        <pt x="338" y="499" on="1"/>
        <pt x="328" y="577" on="1"/>
        <pt x="288" y="577" on="1"/>
        <pt x="225" y="534" on="1"/>
        <pt x="225" y="689" on="1"/>
        <pt x="253" y="703" on="1"/>
        <pt x="260" y="710" on="1"/>
        <pt x="274" y="717" on="1"/>
        <pt x="376" y="793" on="1"/>
        <pt x="454" y="819" on="1"/>
        <pt x="495" y="860" on="1"/>
        <pt x="555" y="876" on="1"/>
        <pt x="570" y="738" on="1"/>
        <pt x="578" y="706" on="1"/>
        <pt x="521" y="668" on="1"/>
        <pt x="499" y="661" on="1"/>
        <pt x="492" y="654" on="1"/>
        <pt x="478" y="647" on="1"/>
        <pt x="478" y="619" on="1"/>
        <pt x="498" y="560" on="1"/>
        <pt x="485" y="485" on="1"/>
        <pt x="485" y="302" on="1"/>
        <pt x="501" y="192" on="1"/>
        <pt x="429" y="119" on="1"/>
        <pt x="352" y="94" on="1"/>
        <pt x="352" y="443" on="1"/>
      </contour>
      <contour>
        <pt x="105" y="556" on="1"/>
        <pt x="70" y="564" on="1"/>
        <pt x="70" y="731" on="1"/>
        <pt x="77" y="724" on="1"/>
        <pt x="165" y="707" on="1"/>
        <pt x="183" y="689" on="1"/>
        <pt x="183" y="541" on="1"/>
        <pt x="141" y="541" on="1"/>
        <pt x="105" y="556" on="1"/>
      </contour>
      <contour>
        <pt x="188" y="740" on="1"/>
        <pt x="127" y="753" on="1"/>
        <pt x="84" y="774" on="1"/>
        <pt x="54" y="804" on="1"/>
        <pt x="120" y="825" on="1"/>
        <pt x="160" y="852" on="1"/>
        <pt x="232" y="879" on="1"/>
        <pt x="354" y="940" on="1"/>
        <pt x="413" y="952" on="1"/>
        <pt x="535" y="921" on="1"/>
        <pt x="535" y="911" on="1"/>
        <pt x="471" y="893" on="1"/>
        <pt x="436" y="858" on="1"/>
        <pt x="408" y="844" on="1"/>
        <pt x="359" y="830" on="1"/>
        <pt x="352" y="823" on="1"/>
        <pt x="267" y="760" on="1"/>
        <pt x="202" y="727" on="1"/>
        <pt x="188" y="740" on="1"/>
      </contour>
    </TTGlyph>
    <TTGlyph name="U" xMin="12" yMin="-12" xMax="652" yMax="985">
      <contour>
        <pt x="153" y="0" on="1"/>
        <pt x="253" y="-12" on="1"/>
        <pt x="272" y="7" on="1"/>
        <pt x="357" y="35" on="1"/>
        <pt x="364" y="42" on="1"/>
        <pt x="385" y="49" on="1"/>
        <pt x="399" y="63" on="1"/>
        <pt x="448" y="77" on="1"/>
        <pt x="504" y="106" on="1"/>
        <pt x="532" y="148" on="1"/>
        <pt x="554" y="162" on="1"/>
        <pt x="596" y="204" on="1"/>
        <pt x="652" y="232" on="1"/>
        <pt x="652" y="302" on="1"/>
        <pt x="638" y="359" on="1"/>
        <pt x="638" y="689" on="1"/>
        <pt x="617" y="795" on="1"/>
        <pt x="617" y="944" on="1"/>
        <pt x="455" y="985" on="1"/>
        <pt x="388" y="985" on="1"/>
        <pt x="265" y="935" on="1"/>
        <pt x="251" y="893" on="1"/>
        <pt x="235" y="877" on="1"/>
        <pt x="209" y="886" on="1"/>
        <pt x="167" y="886" on="1"/>
        <pt x="110" y="858" on="1"/>
        <pt x="75" y="844" on="1"/>
        <pt x="47" y="830" on="1"/>
        <pt x="26" y="823" on="1"/>
        <pt x="26" y="788" on="1"/>
        <pt x="54" y="689" on="1"/>
        <pt x="54" y="436" on="1"/>
        <pt x="34" y="396" on="1"/>
        <pt x="25" y="75" on="1"/>
        <pt x="12" y="35" on="1"/>
        <pt x="12" y="7" on="1"/>
        <pt x="153" y="0" on="1"/>
      </contour>
      <contour>
        <pt x="60" y="42" on="1"/>
        <pt x="69" y="361" on="1"/>
        <pt x="89" y="422" on="1"/>
        <pt x="89" y="731" on="1"/>
        <pt x="96" y="724" on="1"/>
        <pt x="184" y="707" on="1"/>
        <pt x="202" y="689" on="1"/>
        <pt x="209" y="211" on="1"/>
        <pt x="219" y="32" on="1"/>
        <pt x="60" y="42" on="1"/>
      </contour>
      <contour>
        <pt x="244" y="162" on="1"/>
        <pt x="244" y="689" on="1"/>
        <pt x="272" y="703" on="1"/>
        <pt x="279" y="710" on="1"/>
        <pt x="293" y="717" on="1"/>
        <pt x="325" y="741" on="1"/>
        <pt x="335" y="619" on="1"/>
        <pt x="347" y="346" on="1"/>
        <pt x="373" y="267" on="1"/>
        <pt x="490" y="267" on="1"/>
        <pt x="504" y="324" on="1"/>
        <pt x="504" y="556" on="1"/>
        <pt x="483" y="682" on="1"/>
        <pt x="483" y="830" on="1"/>
        <pt x="514" y="860" on="1"/>
        <pt x="574" y="876" on="1"/>
        <pt x="589" y="738" on="1"/>
        <pt x="596" y="710" on="1"/>
        <pt x="596" y="591" on="1"/>
        <pt x="603" y="570" on="1"/>
        <pt x="603" y="331" on="1"/>
        <pt x="619" y="266" on="1"/>
        <pt x="575" y="239" on="1"/>
        <pt x="568" y="232" on="1"/>
        <pt x="546" y="218" on="1"/>
        <pt x="483" y="155" on="1"/>
        <pt x="476" y="155" on="1"/>
        <pt x="462" y="141" on="1"/>
        <pt x="448" y="134" on="1"/>
        <pt x="448" y="116" on="1"/>
        <pt x="359" y="94" on="1"/>
        <pt x="332" y="67" on="1"/>
        <pt x="279" y="56" on="1"/>
        <pt x="258" y="49" on="1"/>
        <pt x="244" y="162" on="1"/>
      </contour>
      <contour>
        <pt x="392" y="338" on="1"/>
        <pt x="373" y="450" on="1"/>
        <pt x="362" y="783" on="1"/>
        <pt x="300" y="844" on="1"/>
        <pt x="300" y="893" on="1"/>
        <pt x="371" y="851" on="1"/>
        <pt x="382" y="839" on="1"/>
        <pt x="447" y="813" on="1"/>
        <pt x="455" y="689" on="1"/>
        <pt x="462" y="668" on="1"/>
        <pt x="462" y="373" on="1"/>
        <pt x="455" y="359" on="1"/>
        <pt x="439" y="309" on="1"/>
        <pt x="420" y="309" on="1"/>
        <pt x="392" y="338" on="1"/>
      </contour>
      <contour>
        <pt x="207" y="740" on="1"/>
        <pt x="146" y="753" on="1"/>
        <pt x="103" y="774" on="1"/>
        <pt x="74" y="804" on="1"/>
        <pt x="139" y="825" on="1"/>
        <pt x="191" y="860" on="1"/>
        <pt x="209" y="851" on="1"/>
        <pt x="237" y="844" on="1"/>
        <pt x="251" y="830" on="1"/>
        <pt x="304" y="812" on="1"/>
        <pt x="314" y="802" on="1"/>
        <pt x="314" y="774" on="1"/>
        <pt x="221" y="727" on="1"/>
        <pt x="207" y="740" on="1"/>
      </contour>
      <contour>
        <pt x="399" y="879" on="1"/>
        <pt x="378" y="900" on="1"/>
        <pt x="340" y="919" on="1"/>
        <pt x="358" y="937" on="1"/>
        <pt x="432" y="952" on="1"/>
        <pt x="554" y="921" on="1"/>
        <pt x="554" y="911" on="1"/>
        <pt x="490" y="893" on="1"/>
        <pt x="461" y="864" on="1"/>
        <pt x="399" y="879" on="1"/>
      </contour>
    </TTGlyph>
    <TTGlyph name="V" xMin="12" yMin="42" xMax="624" yMax="978">
      <contour>
        <pt x="149" y="42" on="1"/>
        <pt x="357" y="42" on="1"/>
        <pt x="385" y="56" on="1"/>
        <pt x="434" y="70" on="1"/>
        <pt x="490" y="98" on="1"/>
        <pt x="518" y="140" on="1"/>
        <pt x="555" y="165" on="1"/>
        <pt x="568" y="190" on="1"/>
        <pt x="582" y="197" on="1"/>
        <pt x="596" y="253" on="1"/>
        <pt x="609" y="280" on="1"/>
        <pt x="617" y="366" on="1"/>
        <pt x="624" y="408" on="1"/>
        <pt x="624" y="682" on="1"/>
        <pt x="603" y="788" on="1"/>
        <pt x="603" y="937" on="1"/>
        <pt x="441" y="978" on="1"/>
        <pt x="378" y="978" on="1"/>
        <pt x="314" y="956" on="1"/>
        <pt x="246" y="922" on="1"/>
        <pt x="237" y="823" on="1"/>
        <pt x="202" y="823" on="1"/>
        <pt x="181" y="844" on="1"/>
        <pt x="167" y="851" on="1"/>
        <pt x="160" y="858" on="1"/>
        <pt x="130" y="868" on="1"/>
        <pt x="96" y="851" on="1"/>
        <pt x="61" y="837" on="1"/>
        <pt x="33" y="823" on="1"/>
        <pt x="12" y="816" on="1"/>
        <pt x="12" y="781" on="1"/>
        <pt x="40" y="682" on="1"/>
        <pt x="40" y="429" on="1"/>
        <pt x="19" y="387" on="1"/>
        <pt x="19" y="183" on="1"/>
        <pt x="33" y="176" on="1"/>
        <pt x="54" y="148" on="1"/>
        <pt x="82" y="119" on="1"/>
        <pt x="149" y="42" on="1"/>
      </contour>
      <contour>
        <pt x="180" y="78" on="1"/>
        <pt x="82" y="190" on="1"/>
        <pt x="54" y="218" on="1"/>
        <pt x="54" y="352" on="1"/>
        <pt x="75" y="415" on="1"/>
        <pt x="75" y="724" on="1"/>
        <pt x="82" y="717" on="1"/>
        <pt x="170" y="700" on="1"/>
        <pt x="188" y="682" on="1"/>
        <pt x="196" y="158" on="1"/>
        <pt x="237" y="133" on="1"/>
        <pt x="302" y="69" on="1"/>
        <pt x="180" y="78" on="1"/>
      </contour>
      <contour>
        <pt x="343" y="91" on="1"/>
        <pt x="230" y="204" on="1"/>
        <pt x="230" y="682" on="1"/>
        <pt x="258" y="696" on="1"/>
        <pt x="265" y="703" on="1"/>
        <pt x="279" y="710" on="1"/>
        <pt x="313" y="735" on="1"/>
        <pt x="322" y="717" on="1"/>
        <pt x="329" y="570" on="1"/>
        <pt x="341" y="557" on="1"/>
        <pt x="350" y="380" on="1"/>
        <pt x="392" y="295" on="1"/>
        <pt x="408" y="256" on="1"/>
        <pt x="427" y="246" on="1"/>
        <pt x="482" y="246" on="1"/>
        <pt x="497" y="489" on="1"/>
        <pt x="483" y="584" on="1"/>
        <pt x="469" y="633" on="1"/>
        <pt x="451" y="805" on="1"/>
        <pt x="500" y="853" on="1"/>
        <pt x="560" y="868" on="1"/>
        <pt x="575" y="731" on="1"/>
        <pt x="589" y="675" on="1"/>
        <pt x="589" y="422" on="1"/>
        <pt x="582" y="380" on="1"/>
        <pt x="574" y="307" on="1"/>
        <pt x="561" y="281" on="1"/>
        <pt x="547" y="225" on="1"/>
        <pt x="469" y="148" on="1"/>
        <pt x="462" y="148" on="1"/>
        <pt x="448" y="133" on="1"/>
        <pt x="434" y="126" on="1"/>
        <pt x="434" y="112" on="1"/>
        <pt x="371" y="91" on="1"/>
        <pt x="343" y="91" on="1"/>
      </contour>
      <contour>
        <pt x="438" y="299" on="1"/>
        <pt x="425" y="337" on="1"/>
        <pt x="386" y="396" on="1"/>
        <pt x="378" y="548" on="1"/>
        <pt x="371" y="563" on="1"/>
        <pt x="362" y="679" on="1"/>
        <pt x="350" y="717" on="1"/>
        <pt x="336" y="738" on="1"/>
        <pt x="312" y="785" on="1"/>
        <pt x="293" y="795" on="1"/>
        <pt x="286" y="830" on="1"/>
        <pt x="279" y="844" on="1"/>
        <pt x="279" y="884" on="1"/>
        <pt x="314" y="872" on="1"/>
        <pt x="357" y="865" on="1"/>
        <pt x="364" y="858" on="1"/>
        <pt x="397" y="841" on="1"/>
        <pt x="420" y="774" on="1"/>
        <pt x="420" y="647" on="1"/>
        <pt x="448" y="563" on="1"/>
        <pt x="448" y="288" on="1"/>
        <pt x="438" y="299" on="1"/>
      </contour>
      <contour>
        <pt x="193" y="733" on="1"/>
        <pt x="132" y="745" on="1"/>
        <pt x="89" y="767" on="1"/>
        <pt x="57" y="799" on="1"/>
        <pt x="136" y="819" on="1"/>
        <pt x="162" y="792" on="1"/>
        <pt x="223" y="777" on="1"/>
        <pt x="272" y="752" on="1"/>
        <pt x="207" y="720" on="1"/>
        <pt x="193" y="733" on="1"/>
      </contour>
      <contour>
        <pt x="381" y="883" on="1"/>
        <pt x="364" y="900" on="1"/>
        <pt x="327" y="912" on="1"/>
        <pt x="344" y="930" on="1"/>
        <pt x="418" y="945" on="1"/>
        <pt x="540" y="914" on="1"/>
        <pt x="540" y="904" on="1"/>
        <pt x="476" y="886" on="1"/>
        <pt x="461" y="871" on="1"/>
        <pt x="381" y="883" on="1"/>
      </contour>
    </TTGlyph>
    <TTGlyph name="W" xMin="12" yMin="-12" xMax="652" yMax="985">
      <contour>
        <pt x="153" y="0" on="1"/>
        <pt x="253" y="-12" on="1"/>
        <pt x="272" y="7" on="1"/>
        <pt x="357" y="35" on="1"/>
        <pt x="364" y="42" on="1"/>
        <pt x="385" y="49" on="1"/>
        <pt x="399" y="63" on="1"/>
        <pt x="478" y="86" on="1"/>
        <pt x="596" y="204" on="1"/>
        <pt x="652" y="232" on="1"/>
        <pt x="652" y="302" on="1"/>
        <pt x="638" y="359" on="1"/>
        <pt x="638" y="689" on="1"/>
        <pt x="617" y="795" on="1"/>
        <pt x="617" y="944" on="1"/>
        <pt x="455" y="985" on="1"/>
        <pt x="392" y="985" on="1"/>
        <pt x="328" y="963" on="1"/>
        <pt x="216" y="907" on="1"/>
        <pt x="181" y="893" on="1"/>
        <pt x="110" y="858" on="1"/>
        <pt x="75" y="844" on="1"/>
        <pt x="47" y="830" on="1"/>
        <pt x="26" y="823" on="1"/>
        <pt x="26" y="788" on="1"/>
        <pt x="54" y="689" on="1"/>
        <pt x="54" y="436" on="1"/>
        <pt x="34" y="396" on="1"/>
        <pt x="25" y="75" on="1"/>
        <pt x="12" y="35" on="1"/>
        <pt x="12" y="7" on="1"/>
        <pt x="153" y="0" on="1"/>
      </contour>
      <contour>
        <pt x="60" y="42" on="1"/>
        <pt x="69" y="361" on="1"/>
        <pt x="89" y="422" on="1"/>
        <pt x="89" y="731" on="1"/>
        <pt x="96" y="724" on="1"/>
        <pt x="184" y="707" on="1"/>
        <pt x="202" y="689" on="1"/>
        <pt x="209" y="211" on="1"/>
        <pt x="219" y="32" on="1"/>
        <pt x="60" y="42" on="1"/>
      </contour>
      <contour>
        <pt x="244" y="162" on="1"/>
        <pt x="244" y="689" on="1"/>
        <pt x="272" y="703" on="1"/>
        <pt x="279" y="710" on="1"/>
        <pt x="312" y="727" on="1"/>
        <pt x="321" y="745" on="1"/>
        <pt x="328" y="605" on="1"/>
        <pt x="335" y="563" on="1"/>
        <pt x="335" y="429" on="1"/>
        <pt x="362" y="429" on="1"/>
        <pt x="371" y="464" on="1"/>
        <pt x="371" y="591" on="1"/>
        <pt x="364" y="640" on="1"/>
        <pt x="364" y="767" on="1"/>
        <pt x="378" y="781" on="1"/>
        <pt x="409" y="781" on="1"/>
        <pt x="423" y="809" on="1"/>
        <pt x="448" y="809" on="1"/>
        <pt x="455" y="654" on="1"/>
        <pt x="462" y="612" on="1"/>
        <pt x="471" y="519" on="1"/>
        <pt x="483" y="506" on="1"/>
        <pt x="509" y="506" on="1"/>
        <pt x="497" y="647" on="1"/>
        <pt x="490" y="682" on="1"/>
        <pt x="490" y="830" on="1"/>
        <pt x="513" y="860" on="1"/>
        <pt x="574" y="876" on="1"/>
        <pt x="589" y="738" on="1"/>
        <pt x="603" y="682" on="1"/>
        <pt x="603" y="331" on="1"/>
        <pt x="619" y="266" on="1"/>
        <pt x="575" y="239" on="1"/>
        <pt x="561" y="225" on="1"/>
        <pt x="532" y="211" on="1"/>
        <pt x="499" y="169" on="1"/>
        <pt x="476" y="169" on="1"/>
        <pt x="468" y="353" on="1"/>
        <pt x="455" y="366" on="1"/>
        <pt x="431" y="366" on="1"/>
        <pt x="441" y="141" on="1"/>
        <pt x="423" y="106" on="1"/>
        <pt x="371" y="106" on="1"/>
        <pt x="361" y="87" on="1"/>
        <pt x="343" y="77" on="1"/>
        <pt x="332" y="67" on="1"/>
        <pt x="279" y="56" on="1"/>
        <pt x="258" y="49" on="1"/>
        <pt x="244" y="162" on="1"/>
      </contour>
      <contour>
        <pt x="207" y="740" on="1"/>
        <pt x="146" y="753" on="1"/>
        <pt x="103" y="774" on="1"/>
        <pt x="71" y="806" on="1"/>
        <pt x="153" y="826" on="1"/>
        <pt x="227" y="786" on="1"/>
        <pt x="298" y="765" on="1"/>
        <pt x="221" y="727" on="1"/>
        <pt x="207" y="740" on="1"/>
      </contour>
      <contour>
        <pt x="268" y="814" on="1"/>
        <pt x="195" y="858" on="1"/>
        <pt x="216" y="865" on="1"/>
        <pt x="244" y="865" on="1"/>
        <pt x="258" y="893" on="1"/>
        <pt x="272" y="893" on="1"/>
        <pt x="295" y="878" on="1"/>
        <pt x="417" y="841" on="1"/>
        <pt x="395" y="819" on="1"/>
        <pt x="343" y="802" on="1"/>
        <pt x="268" y="814" on="1"/>
      </contour>
      <contour>
        <pt x="320" y="916" on="1"/>
        <pt x="402" y="949" on="1"/>
        <pt x="441" y="949" on="1"/>
        <pt x="554" y="921" on="1"/>
        <pt x="554" y="911" on="1"/>
        <pt x="490" y="893" on="1"/>
        <pt x="476" y="879" on="1"/>
        <pt x="441" y="879" on="1"/>
        <pt x="320" y="916" on="1"/>
      </contour>
    </TTGlyph>
    <TTGlyph name="X" xMin="12" yMin="-19" xMax="652" yMax="978">
      <contour>
        <pt x="153" y="-7" on="1"/>
        <pt x="253" y="-19" on="1"/>
        <pt x="272" y="0" on="1"/>
        <pt x="357" y="28" on="1"/>
        <pt x="364" y="35" on="1"/>
        <pt x="385" y="42" on="1"/>
        <pt x="399" y="56" on="1"/>
        <pt x="427" y="66" on="1"/>
        <pt x="427" y="141" on="1"/>
        <pt x="448" y="162" on="1"/>
        <pt x="490" y="148" on="1"/>
        <pt x="532" y="148" on="1"/>
        <pt x="546" y="155" on="1"/>
        <pt x="575" y="162" on="1"/>
        <pt x="610" y="190" on="1"/>
        <pt x="652" y="218" on="1"/>
        <pt x="652" y="295" on="1"/>
        <pt x="638" y="352" on="1"/>
        <pt x="638" y="492" on="1"/>
        <pt x="610" y="499" on="1"/>
        <pt x="582" y="518" on="1"/>
        <pt x="582" y="549" on="1"/>
        <pt x="589" y="556" on="1"/>
        <pt x="596" y="570" on="1"/>
        <pt x="631" y="605" on="1"/>
        <pt x="631" y="717" on="1"/>
        <pt x="617" y="788" on="1"/>
        <pt x="617" y="937" on="1"/>
        <pt x="455" y="978" on="1"/>
        <pt x="392" y="978" on="1"/>
        <pt x="303" y="948" on="1"/>
        <pt x="293" y="928" on="1"/>
        <pt x="279" y="921" on="1"/>
        <pt x="272" y="858" on="1"/>
        <pt x="230" y="872" on="1"/>
        <pt x="202" y="879" on="1"/>
        <pt x="184" y="888" on="1"/>
        <pt x="110" y="851" on="1"/>
        <pt x="75" y="837" on="1"/>
        <pt x="47" y="823" on="1"/>
        <pt x="26" y="816" on="1"/>
        <pt x="26" y="781" on="1"/>
        <pt x="54" y="682" on="1"/>
        <pt x="54" y="499" on="1"/>
        <pt x="89" y="482" on="1"/>
        <pt x="97" y="438" on="1"/>
        <pt x="82" y="408" on="1"/>
        <pt x="47" y="408" on="1"/>
        <pt x="35" y="395" on="1"/>
        <pt x="25" y="68" on="1"/>
        <pt x="12" y="28" on="1"/>
        <pt x="12" y="0" on="1"/>
        <pt x="153" y="-7" on="1"/>
      </contour>
      <contour>
        <pt x="60" y="35" on="1"/>
        <pt x="69" y="368" on="1"/>
        <pt x="202" y="342" on="1"/>
        <pt x="219" y="25" on="1"/>
        <pt x="60" y="35" on="1"/>
      </contour>
      <contour>
        <pt x="244" y="155" on="1"/>
        <pt x="244" y="331" on="1"/>
        <pt x="258" y="338" on="1"/>
        <pt x="300" y="380" on="1"/>
        <pt x="307" y="401" on="1"/>
        <pt x="335" y="429" on="1"/>
        <pt x="335" y="457" on="1"/>
        <pt x="286" y="457" on="1"/>
        <pt x="244" y="471" on="1"/>
        <pt x="244" y="682" on="1"/>
        <pt x="272" y="696" on="1"/>
        <pt x="279" y="703" on="1"/>
        <pt x="312" y="720" on="1"/>
        <pt x="321" y="738" on="1"/>
        <pt x="355" y="755" on="1"/>
        <pt x="406" y="654" on="1"/>
        <pt x="447" y="654" on="1"/>
        <pt x="458" y="750" on="1"/>
        <pt x="476" y="823" on="1"/>
        <pt x="497" y="837" on="1"/>
        <pt x="514" y="853" on="1"/>
        <pt x="574" y="869" on="1"/>
        <pt x="589" y="731" on="1"/>
        <pt x="596" y="703" on="1"/>
        <pt x="596" y="619" on="1"/>
        <pt x="582" y="612" on="1"/>
        <pt x="546" y="542" on="1"/>
        <pt x="546" y="513" on="1"/>
        <pt x="575" y="499" on="1"/>
        <pt x="582" y="492" on="1"/>
        <pt x="603" y="485" on="1"/>
        <pt x="603" y="324" on="1"/>
        <pt x="619" y="259" on="1"/>
        <pt x="575" y="232" on="1"/>
        <pt x="543" y="200" on="1"/>
        <pt x="504" y="239" on="1"/>
        <pt x="471" y="288" on="1"/>
        <pt x="425" y="288" on="1"/>
        <pt x="399" y="99" on="1"/>
        <pt x="343" y="70" on="1"/>
        <pt x="332" y="60" on="1"/>
        <pt x="279" y="49" on="1"/>
        <pt x="258" y="42" on="1"/>
        <pt x="244" y="155" on="1"/>
      </contour>
      <contour>
        <pt x="501" y="188" on="1"/>
        <pt x="469" y="204" on="1"/>
        <pt x="434" y="213" on="1"/>
        <pt x="434" y="260" on="1"/>
        <pt x="473" y="260" on="1"/>
        <pt x="500" y="206" on="1"/>
        <pt x="518" y="197" on="1"/>
        <pt x="501" y="188" on="1"/>
      </contour>
      <contour>
        <pt x="129" y="389" on="1"/>
        <pt x="146" y="422" on="1"/>
        <pt x="146" y="464" on="1"/>
        <pt x="230" y="443" on="1"/>
        <pt x="314" y="443" on="1"/>
        <pt x="314" y="420" on="1"/>
        <pt x="265" y="387" on="1"/>
        <pt x="251" y="373" on="1"/>
        <pt x="195" y="373" on="1"/>
        <pt x="129" y="389" on="1"/>
      </contour>
      <contour>
        <pt x="97" y="509" on="1"/>
        <pt x="89" y="725" on="1"/>
        <pt x="96" y="717" on="1"/>
        <pt x="184" y="700" on="1"/>
        <pt x="202" y="682" on="1"/>
        <pt x="202" y="485" on="1"/>
        <pt x="167" y="485" on="1"/>
        <pt x="97" y="509" on="1"/>
      </contour>
      <contour>
        <pt x="207" y="733" on="1"/>
        <pt x="146" y="746" on="1"/>
        <pt x="103" y="767" on="1"/>
        <pt x="74" y="797" on="1"/>
        <pt x="139" y="818" on="1"/>
        <pt x="192" y="853" on="1"/>
        <pt x="234" y="821" on="1"/>
        <pt x="304" y="798" on="1"/>
        <pt x="322" y="780" on="1"/>
        <pt x="286" y="753" on="1"/>
        <pt x="221" y="720" on="1"/>
        <pt x="207" y="733" on="1"/>
      </contour>
      <contour>
        <pt x="416" y="737" on="1"/>
        <pt x="378" y="795" on="1"/>
        <pt x="364" y="802" on="1"/>
        <pt x="335" y="830" on="1"/>
        <pt x="314" y="844" on="1"/>
        <pt x="314" y="891" on="1"/>
        <pt x="431" y="828" on="1"/>
        <pt x="416" y="737" on="1"/>
      </contour>
      <contour>
        <pt x="378" y="907" on="1"/>
        <pt x="357" y="914" on="1"/>
        <pt x="376" y="934" on="1"/>
        <pt x="432" y="945" on="1"/>
        <pt x="554" y="914" on="1"/>
        <pt x="554" y="904" on="1"/>
        <pt x="490" y="886" on="1"/>
        <pt x="467" y="863" on="1"/>
        <pt x="378" y="907" on="1"/>
      </contour>
    </TTGlyph>
    <TTGlyph name="Y" xMin="6" yMin="56" xMax="611" yMax="992">
      <contour>
        <pt x="313" y="75" on="1"/>
        <pt x="351" y="56" on="1"/>
        <pt x="379" y="56" on="1"/>
        <pt x="396" y="74" on="1"/>
        <pt x="460" y="95" on="1"/>
        <pt x="529" y="164" on="1"/>
        <pt x="520" y="183" on="1"/>
        <pt x="520" y="408" on="1"/>
        <pt x="527" y="422" on="1"/>
        <pt x="562" y="527" on="1"/>
        <pt x="569" y="541" on="1"/>
        <pt x="576" y="562" on="1"/>
        <pt x="611" y="650" on="1"/>
        <pt x="611" y="731" on="1"/>
        <pt x="597" y="802" on="1"/>
        <pt x="597" y="951" on="1"/>
        <pt x="435" y="992" on="1"/>
        <pt x="368" y="992" on="1"/>
        <pt x="248" y="944" on="1"/>
        <pt x="259" y="921" on="1"/>
        <pt x="259" y="872" on="1"/>
        <pt x="251" y="838" on="1"/>
        <pt x="228" y="861" on="1"/>
        <pt x="196" y="872" on="1"/>
        <pt x="203" y="879" on="1"/>
        <pt x="143" y="891" on="1"/>
        <pt x="90" y="865" on="1"/>
        <pt x="55" y="851" on="1"/>
        <pt x="27" y="837" on="1"/>
        <pt x="6" y="830" on="1"/>
        <pt x="6" y="795" on="1"/>
        <pt x="34" y="696" on="1"/>
        <pt x="41" y="548" on="1"/>
        <pt x="83" y="534" on="1"/>
        <pt x="90" y="506" on="1"/>
        <pt x="104" y="499" on="1"/>
        <pt x="161" y="415" on="1"/>
        <pt x="171" y="405" on="1"/>
        <pt x="196" y="337" on="1"/>
        <pt x="210" y="302" on="1"/>
        <pt x="231" y="228" on="1"/>
        <pt x="231" y="84" on="1"/>
        <pt x="313" y="75" on="1"/>
      </contour>
      <contour>
        <pt x="266" y="119" on="1"/>
        <pt x="266" y="256" on="1"/>
        <pt x="240" y="347" on="1"/>
        <pt x="224" y="380" on="1"/>
        <pt x="207" y="430" on="1"/>
        <pt x="182" y="464" on="1"/>
        <pt x="175" y="478" on="1"/>
        <pt x="154" y="499" on="1"/>
        <pt x="182" y="499" on="1"/>
        <pt x="189" y="485" on="1"/>
        <pt x="214" y="472" on="1"/>
        <pt x="224" y="443" on="1"/>
        <pt x="259" y="408" on="1"/>
        <pt x="280" y="380" on="1"/>
        <pt x="316" y="344" on="1"/>
        <pt x="330" y="295" on="1"/>
        <pt x="337" y="176" on="1"/>
        <pt x="350" y="110" on="1"/>
        <pt x="266" y="119" on="1"/>
      </contour>
      <contour>
        <pt x="379" y="176" on="1"/>
        <pt x="372" y="211" on="1"/>
        <pt x="362" y="368" on="1"/>
        <pt x="224" y="506" on="1"/>
        <pt x="224" y="696" on="1"/>
        <pt x="252" y="710" on="1"/>
        <pt x="259" y="717" on="1"/>
        <pt x="273" y="724" on="1"/>
        <pt x="301" y="745" on="1"/>
        <pt x="323" y="745" on="1"/>
        <pt x="344" y="661" on="1"/>
        <pt x="379" y="555" on="1"/>
        <pt x="393" y="527" on="1"/>
        <pt x="426" y="527" on="1"/>
        <pt x="435" y="612" on="1"/>
        <pt x="449" y="682" on="1"/>
        <pt x="463" y="837" on="1"/>
        <pt x="494" y="867" on="1"/>
        <pt x="554" y="882" on="1"/>
        <pt x="569" y="745" on="1"/>
        <pt x="576" y="717" on="1"/>
        <pt x="576" y="654" on="1"/>
        <pt x="559" y="645" on="1"/>
        <pt x="534" y="570" on="1"/>
        <pt x="498" y="478" on="1"/>
        <pt x="491" y="457" on="1"/>
        <pt x="484" y="443" on="1"/>
        <pt x="477" y="168" on="1"/>
        <pt x="449" y="140" on="1"/>
        <pt x="428" y="140" on="1"/>
        <pt x="407" y="119" on="1"/>
        <pt x="386" y="119" on="1"/>
        <pt x="379" y="176" on="1"/>
      </contour>
      <contour>
        <pt x="34" y="492" on="1"/>
        <pt x="34" y="485" on="1"/>
        <pt x="34" y="492" on="1"/>
      </contour>
      <contour>
        <pt x="140" y="570" on="1"/>
        <pt x="69" y="577" on="1"/>
        <pt x="69" y="738" on="1"/>
        <pt x="76" y="731" on="1"/>
        <pt x="164" y="714" on="1"/>
        <pt x="182" y="696" on="1"/>
        <pt x="182" y="553" on="1"/>
        <pt x="140" y="570" on="1"/>
      </contour>
      <contour>
        <pt x="398" y="640" on="1"/>
        <pt x="386" y="675" on="1"/>
        <pt x="379" y="689" on="1"/>
        <pt x="365" y="738" on="1"/>
        <pt x="337" y="774" on="1"/>
        <pt x="330" y="795" on="1"/>
        <pt x="294" y="831" on="1"/>
        <pt x="301" y="893" on="1"/>
        <pt x="319" y="876" on="1"/>
        <pt x="407" y="858" on="1"/>
        <pt x="425" y="831" on="1"/>
        <pt x="411" y="681" on="1"/>
        <pt x="398" y="640" on="1"/>
      </contour>
      <contour>
        <pt x="187" y="747" on="1"/>
        <pt x="126" y="759" on="1"/>
        <pt x="83" y="781" on="1"/>
        <pt x="53" y="810" on="1"/>
        <pt x="135" y="838" on="1"/>
        <pt x="189" y="830" on="1"/>
        <pt x="214" y="805" on="1"/>
        <pt x="282" y="782" on="1"/>
        <pt x="266" y="766" on="1"/>
        <pt x="201" y="734" on="1"/>
        <pt x="187" y="747" on="1"/>
      </contour>
      <contour>
        <pt x="426" y="895" on="1"/>
        <pt x="356" y="909" on="1"/>
        <pt x="330" y="935" on="1"/>
        <pt x="382" y="956" on="1"/>
        <pt x="421" y="956" on="1"/>
        <pt x="534" y="928" on="1"/>
        <pt x="534" y="918" on="1"/>
        <pt x="470" y="900" on="1"/>
        <pt x="446" y="876" on="1"/>
        <pt x="426" y="895" on="1"/>
      </contour>
    </TTGlyph>
    <TTGlyph name="Z" xMin="12" yMin="2" xMax="652" yMax="999">
      <contour>
        <pt x="153" y="14" on="1"/>
        <pt x="253" y="2" on="1"/>
        <pt x="272" y="21" on="1"/>
        <pt x="357" y="49" on="1"/>
        <pt x="364" y="56" on="1"/>
        <pt x="385" y="63" on="1"/>
        <pt x="399" y="77" on="1"/>
        <pt x="448" y="91" on="1"/>
        <pt x="504" y="120" on="1"/>
        <pt x="532" y="162" on="1"/>
        <pt x="554" y="176" on="1"/>
        <pt x="596" y="218" on="1"/>
        <pt x="652" y="246" on="1"/>
        <pt x="652" y="316" on="1"/>
        <pt x="638" y="373" on="1"/>
        <pt x="638" y="584" on="1"/>
        <pt x="631" y="584" on="1"/>
        <pt x="631" y="738" on="1"/>
        <pt x="617" y="809" on="1"/>
        <pt x="617" y="958" on="1"/>
        <pt x="455" y="999" on="1"/>
        <pt x="392" y="999" on="1"/>
        <pt x="328" y="977" on="1"/>
        <pt x="216" y="921" on="1"/>
        <pt x="181" y="907" on="1"/>
        <pt x="110" y="872" on="1"/>
        <pt x="75" y="858" on="1"/>
        <pt x="47" y="844" on="1"/>
        <pt x="26" y="837" on="1"/>
        <pt x="26" y="802" on="1"/>
        <pt x="54" y="703" on="1"/>
        <pt x="54" y="450" on="1"/>
        <pt x="34" y="410" on="1"/>
        <pt x="25" y="89" on="1"/>
        <pt x="12" y="49" on="1"/>
        <pt x="12" y="21" on="1"/>
        <pt x="153" y="14" on="1"/>
      </contour>
      <contour>
        <pt x="60" y="56" on="1"/>
        <pt x="69" y="375" on="1"/>
        <pt x="82" y="415" on="1"/>
        <pt x="91" y="541" on="1"/>
        <pt x="125" y="541" on="1"/>
        <pt x="167" y="520" on="1"/>
        <pt x="202" y="506" on="1"/>
        <pt x="209" y="225" on="1"/>
        <pt x="219" y="46" on="1"/>
        <pt x="60" y="56" on="1"/>
      </contour>
      <contour>
        <pt x="244" y="176" on="1"/>
        <pt x="244" y="520" on="1"/>
        <pt x="272" y="549" on="1"/>
        <pt x="286" y="570" on="1"/>
        <pt x="300" y="577" on="1"/>
        <pt x="314" y="591" on="1"/>
        <pt x="328" y="598" on="1"/>
        <pt x="335" y="605" on="1"/>
        <pt x="357" y="612" on="1"/>
        <pt x="364" y="619" on="1"/>
        <pt x="406" y="636" on="1"/>
        <pt x="406" y="584" on="1"/>
        <pt x="427" y="584" on="1"/>
        <pt x="441" y="598" on="1"/>
        <pt x="455" y="654" on="1"/>
        <pt x="455" y="682" on="1"/>
        <pt x="399" y="682" on="1"/>
        <pt x="272" y="619" on="1"/>
        <pt x="244" y="591" on="1"/>
        <pt x="244" y="703" on="1"/>
        <pt x="272" y="717" on="1"/>
        <pt x="279" y="724" on="1"/>
        <pt x="293" y="731" on="1"/>
        <pt x="395" y="807" on="1"/>
        <pt x="473" y="833" on="1"/>
        <pt x="514" y="874" on="1"/>
        <pt x="574" y="890" on="1"/>
        <pt x="582" y="809" on="1"/>
        <pt x="582" y="682" on="1"/>
        <pt x="589" y="633" on="1"/>
        <pt x="596" y="534" on="1"/>
        <pt x="603" y="520" on="1"/>
        <pt x="603" y="450" on="1"/>
        <pt x="563" y="440" on="1"/>
        <pt x="504" y="352" on="1"/>
        <pt x="427" y="300" on="1"/>
        <pt x="427" y="345" on="1"/>
        <pt x="392" y="345" on="1"/>
        <pt x="378" y="288" on="1"/>
        <pt x="378" y="239" on="1"/>
        <pt x="416" y="239" on="1"/>
        <pt x="469" y="274" on="1"/>
        <pt x="476" y="281" on="1"/>
        <pt x="490" y="288" on="1"/>
        <pt x="525" y="323" on="1"/>
        <pt x="559" y="349" on="1"/>
        <pt x="585" y="401" on="1"/>
        <pt x="596" y="401" on="1"/>
        <pt x="603" y="345" on="1"/>
        <pt x="619" y="280" on="1"/>
        <pt x="575" y="253" on="1"/>
        <pt x="568" y="246" on="1"/>
        <pt x="546" y="232" on="1"/>
        <pt x="443" y="129" on="1"/>
        <pt x="359" y="108" on="1"/>
        <pt x="332" y="81" on="1"/>
        <pt x="279" y="70" on="1"/>
        <pt x="258" y="63" on="1"/>
        <pt x="244" y="176" on="1"/>
      </contour>
      <contour>
        <pt x="181" y="563" on="1"/>
        <pt x="168" y="575" on="1"/>
        <pt x="110" y="584" on="1"/>
        <pt x="89" y="605" on="1"/>
        <pt x="89" y="745" on="1"/>
        <pt x="96" y="738" on="1"/>
        <pt x="184" y="721" on="1"/>
        <pt x="202" y="703" on="1"/>
        <pt x="202" y="556" on="1"/>
        <pt x="181" y="563" on="1"/>
      </contour>
      <contour>
        <pt x="207" y="754" on="1"/>
        <pt x="146" y="767" on="1"/>
        <pt x="103" y="788" on="1"/>
        <pt x="74" y="818" on="1"/>
        <pt x="139" y="839" on="1"/>
        <pt x="179" y="866" on="1"/>
        <pt x="251" y="893" on="1"/>
        <pt x="373" y="954" on="1"/>
        <pt x="432" y="966" on="1"/>
        <pt x="554" y="935" on="1"/>
        <pt x="554" y="925" on="1"/>
        <pt x="490" y="907" on="1"/>
        <pt x="455" y="872" on="1"/>
        <pt x="427" y="858" on="1"/>
        <pt x="378" y="844" on="1"/>
        <pt x="371" y="837" on="1"/>
        <pt x="286" y="774" on="1"/>
        <pt x="221" y="741" on="1"/>
        <pt x="207" y="754" on="1"/>
      </contour>
    </TTGlyph>
    <TTGlyph name="a" xMin="12" yMin="-5" xMax="652" yMax="992">
      <contour>
        <pt x="371" y="21" on="1"/>
        <pt x="414" y="-5" on="1"/>
        <pt x="511" y="7" on="1"/>
        <pt x="652" y="14" on="1"/>
        <pt x="652" y="42" on="1"/>
        <pt x="639" y="82" on="1"/>
        <pt x="630" y="403" on="1"/>
        <pt x="610" y="443" on="1"/>
        <pt x="610" y="696" on="1"/>
        <pt x="647" y="827" on="1"/>
        <pt x="617" y="837" on="1"/>
        <pt x="589" y="851" on="1"/>
        <pt x="554" y="865" on="1"/>
        <pt x="483" y="900" on="1"/>
        <pt x="448" y="914" on="1"/>
        <pt x="364" y="956" on="1"/>
        <pt x="276" y="992" on="1"/>
        <pt x="209" y="992" on="1"/>
        <pt x="47" y="951" on="1"/>
        <pt x="47" y="802" on="1"/>
        <pt x="26" y="696" on="1"/>
        <pt x="26" y="366" on="1"/>
        <pt x="12" y="309" on="1"/>
        <pt x="12" y="239" on="1"/>
        <pt x="68" y="211" on="1"/>
        <pt x="186" y="93" on="1"/>
        <pt x="265" y="70" on="1"/>
        <pt x="286" y="49" on="1"/>
        <pt x="371" y="21" on="1"/>
      </contour>
      <contour>
        <pt x="446" y="51" on="1"/>
        <pt x="455" y="218" on="1"/>
        <pt x="462" y="689" on="1"/>
        <pt x="489" y="716" on="1"/>
        <pt x="558" y="727" on="1"/>
        <pt x="568" y="717" on="1"/>
        <pt x="578" y="419" on="1"/>
        <pt x="595" y="368" on="1"/>
        <pt x="604" y="50" on="1"/>
        <pt x="457" y="40" on="1"/>
        <pt x="446" y="51" on="1"/>
      </contour>
      <contour>
        <pt x="346" y="71" on="1"/>
        <pt x="290" y="104" on="1"/>
        <pt x="249" y="115" on="1"/>
        <pt x="237" y="127" on="1"/>
        <pt x="237" y="429" on="1"/>
        <pt x="258" y="450" on="1"/>
        <pt x="300" y="464" on="1"/>
        <pt x="314" y="478" on="1"/>
        <pt x="335" y="520" on="1"/>
        <pt x="335" y="626" on="1"/>
        <pt x="307" y="654" on="1"/>
        <pt x="195" y="654" on="1"/>
        <pt x="163" y="622" on="1"/>
        <pt x="153" y="591" on="1"/>
        <pt x="153" y="527" on="1"/>
        <pt x="174" y="485" on="1"/>
        <pt x="195" y="457" on="1"/>
        <pt x="195" y="162" on="1"/>
        <pt x="188" y="155" on="1"/>
        <pt x="110" y="232" on="1"/>
        <pt x="54" y="270" on="1"/>
        <pt x="54" y="309" on="1"/>
        <pt x="61" y="338" on="1"/>
        <pt x="61" y="689" on="1"/>
        <pt x="75" y="745" on="1"/>
        <pt x="90" y="882" on="1"/>
        <pt x="139" y="870" on="1"/>
        <pt x="202" y="823" on="1"/>
        <pt x="269" y="800" on="1"/>
        <pt x="385" y="714" on="1"/>
        <pt x="420" y="696" on="1"/>
        <pt x="420" y="155" on="1"/>
        <pt x="404" y="61" on="1"/>
        <pt x="346" y="71" on="1"/>
      </contour>
      <contour>
        <pt x="228" y="492" on="1"/>
        <pt x="195" y="542" on="1"/>
        <pt x="195" y="598" on="1"/>
        <pt x="237" y="619" on="1"/>
        <pt x="283" y="619" on="1"/>
        <pt x="300" y="584" on="1"/>
        <pt x="300" y="534" on="1"/>
        <pt x="258" y="492" on="1"/>
        <pt x="228" y="492" on="1"/>
      </contour>
      <contour>
        <pt x="368" y="771" on="1"/>
        <pt x="286" y="837" on="1"/>
        <pt x="228" y="853" on="1"/>
        <pt x="174" y="900" on="1"/>
        <pt x="114" y="917" on="1"/>
        <pt x="126" y="930" on="1"/>
        <pt x="230" y="959" on="1"/>
        <pt x="291" y="947" on="1"/>
        <pt x="413" y="886" on="1"/>
        <pt x="485" y="859" on="1"/>
        <pt x="525" y="832" on="1"/>
        <pt x="582" y="813" on="1"/>
        <pt x="582" y="799" on="1"/>
        <pt x="523" y="761" on="1"/>
        <pt x="460" y="748" on="1"/>
        <pt x="437" y="737" on="1"/>
        <pt x="368" y="771" on="1"/>
      </contour>
    </TTGlyph>
    <TTGlyph name="b" xMin="12" yMin="2" xMax="652" yMax="999">
      <contour>
        <pt x="371" y="28" on="1"/>
        <pt x="414" y="2" on="1"/>
        <pt x="511" y="14" on="1"/>
        <pt x="652" y="21" on="1"/>
        <pt x="652" y="49" on="1"/>
        <pt x="639" y="89" on="1"/>
        <pt x="630" y="410" on="1"/>
        <pt x="610" y="450" on="1"/>
        <pt x="610" y="703" on="1"/>
        <pt x="647" y="834" on="1"/>
        <pt x="617" y="844" on="1"/>
        <pt x="589" y="858" on="1"/>
        <pt x="554" y="872" on="1"/>
        <pt x="483" y="907" on="1"/>
        <pt x="448" y="921" on="1"/>
        <pt x="364" y="963" on="1"/>
        <pt x="276" y="999" on="1"/>
        <pt x="209" y="999" on="1"/>
        <pt x="47" y="958" on="1"/>
        <pt x="47" y="809" on="1"/>
        <pt x="33" y="738" on="1"/>
        <pt x="33" y="661" on="1"/>
        <pt x="50" y="609" on="1"/>
        <pt x="26" y="577" on="1"/>
        <pt x="26" y="373" on="1"/>
        <pt x="12" y="316" on="1"/>
        <pt x="12" y="246" on="1"/>
        <pt x="68" y="218" on="1"/>
        <pt x="167" y="120" on="1"/>
        <pt x="211" y="93" on="1"/>
        <pt x="265" y="77" on="1"/>
        <pt x="286" y="56" on="1"/>
        <pt x="371" y="28" on="1"/>
      </contour>
      <contour>
        <pt x="446" y="58" on="1"/>
        <pt x="455" y="225" on="1"/>
        <pt x="462" y="696" on="1"/>
        <pt x="489" y="723" on="1"/>
        <pt x="558" y="734" on="1"/>
        <pt x="568" y="724" on="1"/>
        <pt x="578" y="426" on="1"/>
        <pt x="595" y="375" on="1"/>
        <pt x="604" y="57" on="1"/>
        <pt x="457" y="47" on="1"/>
        <pt x="446" y="58" on="1"/>
      </contour>
      <contour>
        <pt x="346" y="78" on="1"/>
        <pt x="290" y="111" on="1"/>
        <pt x="236" y="125" on="1"/>
        <pt x="202" y="148" on="1"/>
        <pt x="110" y="239" on="1"/>
        <pt x="54" y="277" on="1"/>
        <pt x="54" y="316" on="1"/>
        <pt x="61" y="345" on="1"/>
        <pt x="61" y="550" on="1"/>
        <pt x="110" y="591" on="1"/>
        <pt x="110" y="619" on="1"/>
        <pt x="68" y="675" on="1"/>
        <pt x="68" y="724" on="1"/>
        <pt x="75" y="752" on="1"/>
        <pt x="90" y="889" on="1"/>
        <pt x="139" y="877" on="1"/>
        <pt x="202" y="830" on="1"/>
        <pt x="269" y="807" on="1"/>
        <pt x="385" y="721" on="1"/>
        <pt x="420" y="703" on="1"/>
        <pt x="420" y="162" on="1"/>
        <pt x="404" y="68" on="1"/>
        <pt x="346" y="78" on="1"/>
      </contour>
      <contour>
        <pt x="170" y="330" on="1"/>
        <pt x="258" y="330" on="1"/>
        <pt x="286" y="359" on="1"/>
        <pt x="286" y="466" on="1"/>
        <pt x="251" y="513" on="1"/>
        <pt x="251" y="527" on="1"/>
        <pt x="300" y="544" on="1"/>
        <pt x="300" y="689" on="1"/>
        <pt x="279" y="710" on="1"/>
        <pt x="195" y="710" on="1"/>
        <pt x="162" y="688" on="1"/>
        <pt x="140" y="624" on="1"/>
        <pt x="158" y="537" on="1"/>
        <pt x="139" y="499" on="1"/>
        <pt x="139" y="394" on="1"/>
        <pt x="170" y="330" on="1"/>
      </contour>
      <contour>
        <pt x="184" y="390" on="1"/>
        <pt x="170" y="461" on="1"/>
        <pt x="195" y="485" on="1"/>
        <pt x="209" y="485" on="1"/>
        <pt x="251" y="443" on="1"/>
        <pt x="251" y="394" on="1"/>
        <pt x="223" y="366" on="1"/>
        <pt x="209" y="366" on="1"/>
        <pt x="184" y="390" on="1"/>
      </contour>
      <contour>
        <pt x="181" y="584" on="1"/>
        <pt x="181" y="619" on="1"/>
        <pt x="195" y="647" on="1"/>
        <pt x="223" y="675" on="1"/>
        <pt x="251" y="675" on="1"/>
        <pt x="265" y="647" on="1"/>
        <pt x="265" y="579" on="1"/>
        <pt x="237" y="570" on="1"/>
        <pt x="195" y="570" on="1"/>
        <pt x="181" y="584" on="1"/>
      </contour>
      <contour>
        <pt x="368" y="778" on="1"/>
        <pt x="286" y="844" on="1"/>
        <pt x="228" y="860" on="1"/>
        <pt x="174" y="907" on="1"/>
        <pt x="114" y="924" on="1"/>
        <pt x="126" y="937" on="1"/>
        <pt x="230" y="966" on="1"/>
        <pt x="291" y="954" on="1"/>
        <pt x="413" y="893" on="1"/>
        <pt x="485" y="866" on="1"/>
        <pt x="525" y="839" on="1"/>
        <pt x="582" y="820" on="1"/>
        <pt x="582" y="806" on="1"/>
        <pt x="523" y="768" on="1"/>
        <pt x="460" y="755" on="1"/>
        <pt x="437" y="744" on="1"/>
        <pt x="368" y="778" on="1"/>
      </contour>
    </TTGlyph>
    <TTGlyph name="c" xMin="12" yMin="2" xMax="652" yMax="999">
      <contour>
        <pt x="371" y="28" on="1"/>
        <pt x="414" y="2" on="1"/>
        <pt x="511" y="14" on="1"/>
        <pt x="652" y="21" on="1"/>
        <pt x="652" y="49" on="1"/>
        <pt x="639" y="89" on="1"/>
        <pt x="630" y="410" on="1"/>
        <pt x="610" y="450" on="1"/>
        <pt x="610" y="703" on="1"/>
        <pt x="647" y="834" on="1"/>
        <pt x="617" y="844" on="1"/>
        <pt x="589" y="858" on="1"/>
        <pt x="554" y="872" on="1"/>
        <pt x="483" y="907" on="1"/>
        <pt x="448" y="921" on="1"/>
        <pt x="364" y="963" on="1"/>
        <pt x="276" y="999" on="1"/>
        <pt x="209" y="999" on="1"/>
        <pt x="47" y="958" on="1"/>
        <pt x="47" y="809" on="1"/>
        <pt x="26" y="703" on="1"/>
        <pt x="26" y="373" on="1"/>
        <pt x="12" y="316" on="1"/>
        <pt x="12" y="246" on="1"/>
        <pt x="68" y="218" on="1"/>
        <pt x="186" y="100" on="1"/>
        <pt x="265" y="77" on="1"/>
        <pt x="286" y="56" on="1"/>
        <pt x="371" y="28" on="1"/>
      </contour>
      <contour>
        <pt x="446" y="58" on="1"/>
        <pt x="455" y="225" on="1"/>
        <pt x="462" y="696" on="1"/>
        <pt x="489" y="723" on="1"/>
        <pt x="558" y="734" on="1"/>
        <pt x="568" y="724" on="1"/>
        <pt x="578" y="426" on="1"/>
        <pt x="595" y="375" on="1"/>
        <pt x="604" y="57" on="1"/>
        <pt x="457" y="47" on="1"/>
        <pt x="446" y="58" on="1"/>
      </contour>
      <contour>
        <pt x="346" y="78" on="1"/>
        <pt x="290" y="111" on="1"/>
        <pt x="236" y="125" on="1"/>
        <pt x="146" y="204" on="1"/>
        <pt x="110" y="239" on="1"/>
        <pt x="54" y="277" on="1"/>
        <pt x="54" y="316" on="1"/>
        <pt x="61" y="345" on="1"/>
        <pt x="61" y="570" on="1"/>
        <pt x="75" y="570" on="1"/>
        <pt x="125" y="520" on="1"/>
        <pt x="160" y="503" on="1"/>
        <pt x="167" y="323" on="1"/>
        <pt x="184" y="281" on="1"/>
        <pt x="269" y="281" on="1"/>
        <pt x="307" y="359" on="1"/>
        <pt x="307" y="661" on="1"/>
        <pt x="293" y="682" on="1"/>
        <pt x="216" y="682" on="1"/>
        <pt x="176" y="642" on="1"/>
        <pt x="158" y="570" on="1"/>
        <pt x="146" y="570" on="1"/>
        <pt x="99" y="607" on="1"/>
        <pt x="68" y="622" on="1"/>
        <pt x="68" y="724" on="1"/>
        <pt x="75" y="752" on="1"/>
        <pt x="90" y="889" on="1"/>
        <pt x="139" y="877" on="1"/>
        <pt x="202" y="830" on="1"/>
        <pt x="269" y="807" on="1"/>
        <pt x="385" y="721" on="1"/>
        <pt x="420" y="703" on="1"/>
        <pt x="420" y="162" on="1"/>
        <pt x="404" y="68" on="1"/>
        <pt x="346" y="78" on="1"/>
      </contour>
      <contour>
        <pt x="219" y="316" on="1"/>
        <pt x="202" y="359" on="1"/>
        <pt x="202" y="577" on="1"/>
        <pt x="219" y="627" on="1"/>
        <pt x="244" y="640" on="1"/>
        <pt x="274" y="640" on="1"/>
        <pt x="265" y="362" on="1"/>
        <pt x="235" y="316" on="1"/>
        <pt x="219" y="316" on="1"/>
      </contour>
      <contour>
        <pt x="368" y="778" on="1"/>
        <pt x="286" y="844" on="1"/>
        <pt x="228" y="860" on="1"/>
        <pt x="174" y="907" on="1"/>
        <pt x="114" y="924" on="1"/>
        <pt x="126" y="937" on="1"/>
        <pt x="230" y="966" on="1"/>
        <pt x="291" y="954" on="1"/>
        <pt x="413" y="893" on="1"/>
        <pt x="485" y="866" on="1"/>
        <pt x="525" y="839" on="1"/>
        <pt x="582" y="820" on="1"/>
        <pt x="582" y="806" on="1"/>
        <pt x="523" y="768" on="1"/>
        <pt x="460" y="755" on="1"/>
        <pt x="437" y="744" on="1"/>
        <pt x="368" y="778" on="1"/>
      </contour>
    </TTGlyph>
    <TTGlyph name="d" xMin="12" yMin="2" xMax="638" yMax="999">
      <contour>
        <pt x="357" y="28" on="1"/>
        <pt x="400" y="2" on="1"/>
        <pt x="497" y="14" on="1"/>
        <pt x="638" y="21" on="1"/>
        <pt x="638" y="49" on="1"/>
        <pt x="625" y="89" on="1"/>
        <pt x="616" y="410" on="1"/>
        <pt x="596" y="450" on="1"/>
        <pt x="596" y="703" on="1"/>
        <pt x="633" y="834" on="1"/>
        <pt x="603" y="844" on="1"/>
        <pt x="575" y="858" on="1"/>
        <pt x="539" y="872" on="1"/>
        <pt x="469" y="907" on="1"/>
        <pt x="434" y="921" on="1"/>
        <pt x="350" y="964" on="1"/>
        <pt x="262" y="999" on="1"/>
        <pt x="195" y="999" on="1"/>
        <pt x="33" y="958" on="1"/>
        <pt x="33" y="809" on="1"/>
        <pt x="12" y="703" on="1"/>
        <pt x="12" y="394" on="1"/>
        <pt x="31" y="300" on="1"/>
        <pt x="54" y="253" on="1"/>
        <pt x="61" y="232" on="1"/>
        <pt x="68" y="218" on="1"/>
        <pt x="75" y="197" on="1"/>
        <pt x="172" y="100" on="1"/>
        <pt x="251" y="77" on="1"/>
        <pt x="272" y="56" on="1"/>
        <pt x="357" y="28" on="1"/>
      </contour>
      <contour>
        <pt x="432" y="58" on="1"/>
        <pt x="441" y="225" on="1"/>
        <pt x="448" y="696" on="1"/>
        <pt x="475" y="723" on="1"/>
        <pt x="544" y="734" on="1"/>
        <pt x="554" y="724" on="1"/>
        <pt x="564" y="426" on="1"/>
        <pt x="581" y="375" on="1"/>
        <pt x="590" y="57" on="1"/>
        <pt x="443" y="47" on="1"/>
        <pt x="432" y="58" on="1"/>
      </contour>
      <contour>
        <pt x="332" y="78" on="1"/>
        <pt x="276" y="111" on="1"/>
        <pt x="207" y="129" on="1"/>
        <pt x="125" y="211" on="1"/>
        <pt x="103" y="253" on="1"/>
        <pt x="70" y="304" on="1"/>
        <pt x="61" y="380" on="1"/>
        <pt x="47" y="408" on="1"/>
        <pt x="47" y="696" on="1"/>
        <pt x="61" y="753" on="1"/>
        <pt x="76" y="889" on="1"/>
        <pt x="125" y="877" on="1"/>
        <pt x="188" y="830" on="1"/>
        <pt x="255" y="807" on="1"/>
        <pt x="371" y="721" on="1"/>
        <pt x="406" y="703" on="1"/>
        <pt x="406" y="162" on="1"/>
        <pt x="390" y="68" on="1"/>
        <pt x="332" y="78" on="1"/>
      </contour>
      <contour>
        <pt x="168" y="364" on="1"/>
        <pt x="209" y="323" on="1"/>
        <pt x="251" y="323" on="1"/>
        <pt x="265" y="345" on="1"/>
        <pt x="272" y="499" on="1"/>
        <pt x="284" y="558" on="1"/>
        <pt x="293" y="577" on="1"/>
        <pt x="293" y="626" on="1"/>
        <pt x="265" y="654" on="1"/>
        <pt x="188" y="654" on="1"/>
        <pt x="146" y="612" on="1"/>
        <pt x="146" y="450" on="1"/>
        <pt x="160" y="408" on="1"/>
        <pt x="168" y="364" on="1"/>
      </contour>
      <contour>
        <pt x="209" y="380" on="1"/>
        <pt x="195" y="436" on="1"/>
        <pt x="181" y="478" on="1"/>
        <pt x="181" y="577" on="1"/>
        <pt x="223" y="619" on="1"/>
        <pt x="244" y="619" on="1"/>
        <pt x="244" y="570" on="1"/>
        <pt x="237" y="527" on="1"/>
        <pt x="230" y="380" on="1"/>
        <pt x="209" y="380" on="1"/>
      </contour>
      <contour>
        <pt x="354" y="778" on="1"/>
        <pt x="272" y="844" on="1"/>
        <pt x="214" y="861" on="1"/>
        <pt x="160" y="907" on="1"/>
        <pt x="100" y="924" on="1"/>
        <pt x="112" y="937" on="1"/>
        <pt x="216" y="966" on="1"/>
        <pt x="277" y="954" on="1"/>
        <pt x="399" y="893" on="1"/>
        <pt x="471" y="866" on="1"/>
        <pt x="511" y="839" on="1"/>
        <pt x="568" y="821" on="1"/>
        <pt x="568" y="806" on="1"/>
        <pt x="509" y="768" on="1"/>
        <pt x="446" y="755" on="1"/>
        <pt x="423" y="744" on="1"/>
        <pt x="354" y="778" on="1"/>
      </contour>
    </TTGlyph>
    <TTGlyph name="e" xMin="12" yMin="-5" xMax="652" yMax="992">
      <contour>
        <pt x="371" y="21" on="1"/>
        <pt x="414" y="-5" on="1"/>
        <pt x="511" y="7" on="1"/>
        <pt x="652" y="14" on="1"/>
        <pt x="652" y="42" on="1"/>
        <pt x="639" y="82" on="1"/>
        <pt x="630" y="403" on="1"/>
        <pt x="610" y="443" on="1"/>
        <pt x="610" y="696" on="1"/>
        <pt x="647" y="827" on="1"/>
        <pt x="617" y="837" on="1"/>
        <pt x="589" y="851" on="1"/>
        <pt x="554" y="865" on="1"/>
        <pt x="483" y="900" on="1"/>
        <pt x="448" y="914" on="1"/>
        <pt x="364" y="956" on="1"/>
        <pt x="276" y="992" on="1"/>
        <pt x="209" y="992" on="1"/>
        <pt x="47" y="951" on="1"/>
        <pt x="47" y="802" on="1"/>
        <pt x="26" y="696" on="1"/>
        <pt x="26" y="366" on="1"/>
        <pt x="12" y="309" on="1"/>
        <pt x="12" y="239" on="1"/>
        <pt x="68" y="211" on="1"/>
        <pt x="186" y="93" on="1"/>
        <pt x="265" y="70" on="1"/>
        <pt x="286" y="49" on="1"/>
        <pt x="371" y="21" on="1"/>
      </contour>
      <contour>
        <pt x="446" y="51" on="1"/>
        <pt x="455" y="218" on="1"/>
        <pt x="462" y="689" on="1"/>
        <pt x="489" y="716" on="1"/>
        <pt x="558" y="727" on="1"/>
        <pt x="568" y="717" on="1"/>
        <pt x="578" y="419" on="1"/>
        <pt x="595" y="368" on="1"/>
        <pt x="604" y="50" on="1"/>
        <pt x="457" y="40" on="1"/>
        <pt x="446" y="51" on="1"/>
      </contour>
      <contour>
        <pt x="346" y="71" on="1"/>
        <pt x="290" y="104" on="1"/>
        <pt x="221" y="122" on="1"/>
        <pt x="110" y="232" on="1"/>
        <pt x="54" y="270" on="1"/>
        <pt x="54" y="309" on="1"/>
        <pt x="61" y="338" on="1"/>
        <pt x="69" y="429" on="1"/>
        <pt x="85" y="429" on="1"/>
        <pt x="132" y="401" on="1"/>
        <pt x="167" y="366" on="1"/>
        <pt x="175" y="284" on="1"/>
        <pt x="210" y="225" on="1"/>
        <pt x="321" y="225" on="1"/>
        <pt x="321" y="302" on="1"/>
        <pt x="302" y="381" on="1"/>
        <pt x="270" y="429" on="1"/>
        <pt x="167" y="429" on="1"/>
        <pt x="125" y="457" on="1"/>
        <pt x="61" y="489" on="1"/>
        <pt x="61" y="647" on="1"/>
        <pt x="105" y="647" on="1"/>
        <pt x="160" y="584" on="1"/>
        <pt x="175" y="538" on="1"/>
        <pt x="202" y="520" on="1"/>
        <pt x="272" y="520" on="1"/>
        <pt x="293" y="542" on="1"/>
        <pt x="293" y="654" on="1"/>
        <pt x="265" y="682" on="1"/>
        <pt x="209" y="682" on="1"/>
        <pt x="162" y="659" on="1"/>
        <pt x="132" y="682" on="1"/>
        <pt x="66" y="707" on="1"/>
        <pt x="75" y="745" on="1"/>
        <pt x="90" y="882" on="1"/>
        <pt x="139" y="870" on="1"/>
        <pt x="202" y="823" on="1"/>
        <pt x="269" y="800" on="1"/>
        <pt x="385" y="714" on="1"/>
        <pt x="420" y="696" on="1"/>
        <pt x="420" y="155" on="1"/>
        <pt x="404" y="61" on="1"/>
        <pt x="346" y="71" on="1"/>
      </contour>
      <contour>
        <pt x="235" y="260" on="1"/>
        <pt x="223" y="295" on="1"/>
        <pt x="209" y="323" on="1"/>
        <pt x="209" y="373" on="1"/>
        <pt x="223" y="387" on="1"/>
        <pt x="237" y="387" on="1"/>
        <pt x="265" y="359" on="1"/>
        <pt x="286" y="295" on="1"/>
        <pt x="286" y="260" on="1"/>
        <pt x="235" y="260" on="1"/>
      </contour>
      <contour>
        <pt x="202" y="584" on="1"/>
        <pt x="202" y="619" on="1"/>
        <pt x="216" y="633" on="1"/>
        <pt x="248" y="633" on="1"/>
        <pt x="258" y="612" on="1"/>
        <pt x="258" y="577" on="1"/>
        <pt x="244" y="563" on="1"/>
        <pt x="223" y="563" on="1"/>
        <pt x="202" y="584" on="1"/>
      </contour>
      <contour>
        <pt x="368" y="771" on="1"/>
        <pt x="286" y="837" on="1"/>
        <pt x="228" y="853" on="1"/>
        <pt x="174" y="900" on="1"/>
        <pt x="114" y="917" on="1"/>
        <pt x="126" y="930" on="1"/>
        <pt x="230" y="959" on="1"/>
        <pt x="291" y="947" on="1"/>
        <pt x="413" y="886" on="1"/>
        <pt x="485" y="859" on="1"/>
        <pt x="525" y="832" on="1"/>
        <pt x="582" y="813" on="1"/>
        <pt x="582" y="799" on="1"/>
        <pt x="523" y="761" on="1"/>
        <pt x="460" y="748" on="1"/>
        <pt x="437" y="737" on="1"/>
        <pt x="368" y="771" on="1"/>
      </contour>
    </TTGlyph>
    <TTGlyph name="eight" xMin="18" yMin="-5" xMax="412" yMax="372">
      <contour>
        <pt x="159" y="7" on="1"/>
        <pt x="259" y="-5" on="1"/>
        <pt x="278" y="14" on="1"/>
        <pt x="363" y="42" on="1"/>
        <pt x="370" y="49" on="1"/>
        <pt x="391" y="56" on="1"/>
        <pt x="412" y="77" on="1"/>
        <pt x="412" y="253" on="1"/>
        <pt x="405" y="281" on="1"/>
        <pt x="398" y="317" on="1"/>
        <pt x="384" y="345" on="1"/>
        <pt x="292" y="345" on="1"/>
        <pt x="250" y="359" on="1"/>
        <pt x="172" y="372" on="1"/>
        <pt x="159" y="359" on="1"/>
        <pt x="145" y="352" on="1"/>
        <pt x="109" y="317" on="1"/>
        <pt x="39" y="253" on="1"/>
        <pt x="31" y="81" on="1"/>
        <pt x="18" y="42" on="1"/>
        <pt x="18" y="14" on="1"/>
        <pt x="159" y="7" on="1"/>
      </contour>
      <contour>
        <pt x="65" y="49" on="1"/>
        <pt x="74" y="225" on="1"/>
        <pt x="152" y="225" on="1"/>
        <pt x="173" y="218" on="1"/>
        <pt x="215" y="210" on="1"/>
        <pt x="225" y="39" on="1"/>
        <pt x="65" y="49" on="1"/>
      </contour>
      <contour>
        <pt x="257" y="113" on="1"/>
        <pt x="257" y="218" on="1"/>
        <pt x="299" y="246" on="1"/>
        <pt x="313" y="267" on="1"/>
        <pt x="350" y="294" on="1"/>
        <pt x="363" y="281" on="1"/>
        <pt x="370" y="246" on="1"/>
        <pt x="377" y="225" on="1"/>
        <pt x="377" y="106" on="1"/>
        <pt x="349" y="84" on="1"/>
        <pt x="338" y="74" on="1"/>
        <pt x="285" y="63" on="1"/>
        <pt x="264" y="56" on="1"/>
        <pt x="257" y="113" on="1"/>
      </contour>
      <contour>
        <pt x="236" y="253" on="1"/>
        <pt x="201" y="253" on="1"/>
        <pt x="180" y="260" on="1"/>
        <pt x="124" y="267" on="1"/>
        <pt x="152" y="295" on="1"/>
        <pt x="166" y="303" on="1"/>
        <pt x="190" y="334" on="1"/>
        <pt x="222" y="324" on="1"/>
        <pt x="236" y="317" on="1"/>
        <pt x="278" y="303" on="1"/>
        <pt x="257" y="267" on="1"/>
        <pt x="250" y="246" on="1"/>
        <pt x="236" y="253" on="1"/>
      </contour>
    </TTGlyph>
    <TTGlyph name="f" xMin="8" yMin="-5" xMax="639" yMax="992">
      <contour>
        <pt x="358" y="21" on="1"/>
        <pt x="401" y="-5" on="1"/>
        <pt x="498" y="7" on="1"/>
        <pt x="639" y="14" on="1"/>
        <pt x="639" y="42" on="1"/>
        <pt x="626" y="82" on="1"/>
        <pt x="617" y="403" on="1"/>
        <pt x="597" y="443" on="1"/>
        <pt x="597" y="696" on="1"/>
        <pt x="634" y="827" on="1"/>
        <pt x="604" y="837" on="1"/>
        <pt x="576" y="851" on="1"/>
        <pt x="540" y="865" on="1"/>
        <pt x="470" y="900" on="1"/>
        <pt x="435" y="914" on="1"/>
        <pt x="351" y="957" on="1"/>
        <pt x="263" y="992" on="1"/>
        <pt x="196" y="992" on="1"/>
        <pt x="34" y="951" on="1"/>
        <pt x="34" y="802" on="1"/>
        <pt x="20" y="731" on="1"/>
        <pt x="8" y="533" on="1"/>
        <pt x="34" y="506" on="1"/>
        <pt x="72" y="488" on="1"/>
        <pt x="154" y="422" on="1"/>
        <pt x="189" y="404" on="1"/>
        <pt x="189" y="267" on="1"/>
        <pt x="158" y="115" on="1"/>
        <pt x="182" y="91" on="1"/>
        <pt x="217" y="84" on="1"/>
        <pt x="231" y="77" on="1"/>
        <pt x="252" y="70" on="1"/>
        <pt x="273" y="49" on="1"/>
        <pt x="358" y="21" on="1"/>
      </contour>
      <contour>
        <pt x="433" y="51" on="1"/>
        <pt x="442" y="218" on="1"/>
        <pt x="449" y="689" on="1"/>
        <pt x="476" y="716" on="1"/>
        <pt x="545" y="727" on="1"/>
        <pt x="555" y="717" on="1"/>
        <pt x="565" y="419" on="1"/>
        <pt x="582" y="368" on="1"/>
        <pt x="591" y="50" on="1"/>
        <pt x="444" y="40" on="1"/>
        <pt x="433" y="51" on="1"/>
      </contour>
      <contour>
        <pt x="333" y="71" on="1"/>
        <pt x="277" y="104" on="1"/>
        <pt x="226" y="117" on="1"/>
        <pt x="207" y="137" on="1"/>
        <pt x="224" y="274" on="1"/>
        <pt x="224" y="436" on="1"/>
        <pt x="177" y="464" on="1"/>
        <pt x="83" y="535" on="1"/>
        <pt x="43" y="555" on="1"/>
        <pt x="56" y="678" on="1"/>
        <pt x="90" y="661" on="1"/>
        <pt x="118" y="640" on="1"/>
        <pt x="145" y="622" on="1"/>
        <pt x="169" y="563" on="1"/>
        <pt x="266" y="563" on="1"/>
        <pt x="280" y="577" on="1"/>
        <pt x="280" y="689" on="1"/>
        <pt x="245" y="724" on="1"/>
        <pt x="161" y="724" on="1"/>
        <pt x="140" y="682" on="1"/>
        <pt x="83" y="724" on="1"/>
        <pt x="63" y="735" on="1"/>
        <pt x="77" y="882" on="1"/>
        <pt x="126" y="870" on="1"/>
        <pt x="189" y="823" on="1"/>
        <pt x="256" y="800" on="1"/>
        <pt x="372" y="714" on="1"/>
        <pt x="407" y="696" on="1"/>
        <pt x="407" y="155" on="1"/>
        <pt x="391" y="61" on="1"/>
        <pt x="333" y="71" on="1"/>
      </contour>
      <contour>
        <pt x="189" y="619" on="1"/>
        <pt x="189" y="689" on="1"/>
        <pt x="210" y="689" on="1"/>
        <pt x="245" y="654" on="1"/>
        <pt x="245" y="612" on="1"/>
        <pt x="231" y="598" on="1"/>
        <pt x="210" y="598" on="1"/>
        <pt x="189" y="619" on="1"/>
      </contour>
      <contour>
        <pt x="355" y="771" on="1"/>
        <pt x="273" y="837" on="1"/>
        <pt x="215" y="854" on="1"/>
        <pt x="161" y="900" on="1"/>
        <pt x="101" y="917" on="1"/>
        <pt x="113" y="930" on="1"/>
        <pt x="217" y="959" on="1"/>
        <pt x="278" y="947" on="1"/>
        <pt x="400" y="886" on="1"/>
        <pt x="472" y="859" on="1"/>
        <pt x="512" y="832" on="1"/>
        <pt x="569" y="814" on="1"/>
        <pt x="569" y="799" on="1"/>
        <pt x="510" y="761" on="1"/>
        <pt x="447" y="748" on="1"/>
        <pt x="424" y="737" on="1"/>
        <pt x="355" y="771" on="1"/>
      </contour>
    </TTGlyph>
    <TTGlyph name="five" xMin="18" yMin="-5" xMax="412" yMax="372">
      <contour>
        <pt x="159" y="7" on="1"/>
        <pt x="259" y="-5" on="1"/>
        <pt x="278" y="14" on="1"/>
        <pt x="363" y="42" on="1"/>
        <pt x="370" y="49" on="1"/>
        <pt x="391" y="56" on="1"/>
        <pt x="412" y="77" on="1"/>
        <pt x="412" y="253" on="1"/>
        <pt x="405" y="281" on="1"/>
        <pt x="398" y="317" on="1"/>
        <pt x="384" y="345" on="1"/>
        <pt x="292" y="345" on="1"/>
        <pt x="250" y="359" on="1"/>
        <pt x="172" y="372" on="1"/>
        <pt x="159" y="359" on="1"/>
        <pt x="145" y="352" on="1"/>
        <pt x="109" y="317" on="1"/>
        <pt x="39" y="253" on="1"/>
        <pt x="31" y="81" on="1"/>
        <pt x="18" y="42" on="1"/>
        <pt x="18" y="14" on="1"/>
        <pt x="159" y="7" on="1"/>
      </contour>
      <contour>
        <pt x="65" y="49" on="1"/>
        <pt x="74" y="225" on="1"/>
        <pt x="152" y="225" on="1"/>
        <pt x="173" y="218" on="1"/>
        <pt x="215" y="210" on="1"/>
        <pt x="225" y="39" on="1"/>
        <pt x="65" y="49" on="1"/>
      </contour>
      <contour>
        <pt x="257" y="113" on="1"/>
        <pt x="257" y="218" on="1"/>
        <pt x="299" y="246" on="1"/>
        <pt x="313" y="267" on="1"/>
        <pt x="350" y="294" on="1"/>
        <pt x="363" y="281" on="1"/>
        <pt x="370" y="246" on="1"/>
        <pt x="377" y="225" on="1"/>
        <pt x="377" y="106" on="1"/>
        <pt x="349" y="84" on="1"/>
        <pt x="338" y="74" on="1"/>
        <pt x="285" y="63" on="1"/>
        <pt x="264" y="56" on="1"/>
        <pt x="257" y="113" on="1"/>
      </contour>
      <contour>
        <pt x="236" y="253" on="1"/>
        <pt x="201" y="253" on="1"/>
        <pt x="180" y="260" on="1"/>
        <pt x="124" y="267" on="1"/>
        <pt x="152" y="295" on="1"/>
        <pt x="166" y="303" on="1"/>
        <pt x="190" y="334" on="1"/>
        <pt x="222" y="324" on="1"/>
        <pt x="236" y="317" on="1"/>
        <pt x="278" y="303" on="1"/>
        <pt x="257" y="267" on="1"/>
        <pt x="250" y="246" on="1"/>
        <pt x="236" y="253" on="1"/>
      </contour>
    </TTGlyph>
    <TTGlyph name="four" xMin="18" yMin="-5" xMax="412" yMax="372">
      <contour>
        <pt x="159" y="7" on="1"/>
        <pt x="259" y="-5" on="1"/>
        <pt x="278" y="14" on="1"/>
        <pt x="363" y="42" on="1"/>
        <pt x="370" y="49" on="1"/>
        <pt x="391" y="56" on="1"/>
        <pt x="412" y="77" on="1"/>
        <pt x="412" y="253" on="1"/>
        <pt x="405" y="281" on="1"/>
        <pt x="398" y="317" on="1"/>
        <pt x="384" y="345" on="1"/>
        <pt x="292" y="345" on="1"/>
        <pt x="250" y="359" on="1"/>
        <pt x="172" y="372" on="1"/>
        <pt x="159" y="359" on="1"/>
        <pt x="145" y="352" on="1"/>
        <pt x="109" y="317" on="1"/>
        <pt x="39" y="253" on="1"/>
        <pt x="31" y="81" on="1"/>
        <pt x="18" y="42" on="1"/>
        <pt x="18" y="14" on="1"/>
        <pt x="159" y="7" on="1"/>
      </contour>
      <contour>
        <pt x="65" y="49" on="1"/>
        <pt x="74" y="225" on="1"/>
        <pt x="152" y="225" on="1"/>
        <pt x="173" y="218" on="1"/>
        <pt x="215" y="210" on="1"/>
        <pt x="225" y="39" on="1"/>
        <pt x="65" y="49" on="1"/>
      </contour>
      <contour>
        <pt x="257" y="113" on="1"/>
        <pt x="257" y="218" on="1"/>
        <pt x="299" y="246" on="1"/>
        <pt x="313" y="267" on="1"/>
        <pt x="350" y="294" on="1"/>
        <pt x="363" y="281" on="1"/>
        <pt x="370" y="246" on="1"/>
        <pt x="377" y="225" on="1"/>
        <pt x="377" y="106" on="1"/>
        <pt x="349" y="84" on="1"/>
        <pt x="338" y="74" on="1"/>
        <pt x="285" y="63" on="1"/>
        <pt x="264" y="56" on="1"/>
        <pt x="257" y="113" on="1"/>
      </contour>
      <contour>
        <pt x="236" y="253" on="1"/>
        <pt x="201" y="253" on="1"/>
        <pt x="180" y="260" on="1"/>
        <pt x="124" y="267" on="1"/>
        <pt x="152" y="295" on="1"/>
        <pt x="166" y="303" on="1"/>
        <pt x="190" y="334" on="1"/>
        <pt x="222" y="324" on="1"/>
        <pt x="236" y="317" on="1"/>
        <pt x="278" y="303" on="1"/>
        <pt x="257" y="267" on="1"/>
        <pt x="250" y="246" on="1"/>
        <pt x="236" y="253" on="1"/>
      </contour>
    </TTGlyph>
    <TTGlyph name="g" xMin="12" yMin="-5" xMax="652" yMax="992">
      <contour>
        <pt x="371" y="21" on="1"/>
        <pt x="414" y="-5" on="1"/>
        <pt x="511" y="7" on="1"/>
        <pt x="652" y="14" on="1"/>
        <pt x="652" y="42" on="1"/>
        <pt x="639" y="82" on="1"/>
        <pt x="630" y="403" on="1"/>
        <pt x="610" y="443" on="1"/>
        <pt x="610" y="696" on="1"/>
        <pt x="647" y="827" on="1"/>
        <pt x="617" y="837" on="1"/>
        <pt x="589" y="851" on="1"/>
        <pt x="554" y="865" on="1"/>
        <pt x="483" y="900" on="1"/>
        <pt x="448" y="914" on="1"/>
        <pt x="364" y="956" on="1"/>
        <pt x="276" y="992" on="1"/>
        <pt x="209" y="992" on="1"/>
        <pt x="47" y="951" on="1"/>
        <pt x="47" y="802" on="1"/>
        <pt x="26" y="696" on="1"/>
        <pt x="26" y="366" on="1"/>
        <pt x="12" y="309" on="1"/>
        <pt x="12" y="239" on="1"/>
        <pt x="68" y="211" on="1"/>
        <pt x="186" y="93" on="1"/>
        <pt x="265" y="70" on="1"/>
        <pt x="286" y="49" on="1"/>
        <pt x="371" y="21" on="1"/>
      </contour>
      <contour>
        <pt x="446" y="51" on="1"/>
        <pt x="455" y="218" on="1"/>
        <pt x="462" y="689" on="1"/>
        <pt x="489" y="716" on="1"/>
        <pt x="558" y="727" on="1"/>
        <pt x="568" y="717" on="1"/>
        <pt x="578" y="419" on="1"/>
        <pt x="595" y="368" on="1"/>
        <pt x="604" y="50" on="1"/>
        <pt x="457" y="40" on="1"/>
        <pt x="446" y="51" on="1"/>
      </contour>
      <contour>
        <pt x="346" y="71" on="1"/>
        <pt x="290" y="104" on="1"/>
        <pt x="258" y="113" on="1"/>
        <pt x="230" y="127" on="1"/>
        <pt x="209" y="134" on="1"/>
        <pt x="110" y="232" on="1"/>
        <pt x="54" y="270" on="1"/>
        <pt x="54" y="309" on="1"/>
        <pt x="61" y="338" on="1"/>
        <pt x="61" y="577" on="1"/>
        <pt x="75" y="577" on="1"/>
        <pt x="143" y="516" on="1"/>
        <pt x="207" y="478" on="1"/>
        <pt x="193" y="438" on="1"/>
        <pt x="160" y="427" on="1"/>
        <pt x="160" y="323" on="1"/>
        <pt x="181" y="302" on="1"/>
        <pt x="216" y="281" on="1"/>
        <pt x="286" y="281" on="1"/>
        <pt x="300" y="302" on="1"/>
        <pt x="300" y="394" on="1"/>
        <pt x="279" y="415" on="1"/>
        <pt x="244" y="427" on="1"/>
        <pt x="244" y="464" on="1"/>
        <pt x="265" y="517" on="1"/>
        <pt x="265" y="612" on="1"/>
        <pt x="274" y="638" on="1"/>
        <pt x="253" y="659" on="1"/>
        <pt x="223" y="643" on="1"/>
        <pt x="223" y="534" on="1"/>
        <pt x="196" y="534" on="1"/>
        <pt x="117" y="605" on="1"/>
        <pt x="68" y="629" on="1"/>
        <pt x="68" y="717" on="1"/>
        <pt x="75" y="745" on="1"/>
        <pt x="90" y="882" on="1"/>
        <pt x="139" y="870" on="1"/>
        <pt x="202" y="823" on="1"/>
        <pt x="269" y="800" on="1"/>
        <pt x="385" y="714" on="1"/>
        <pt x="420" y="696" on="1"/>
        <pt x="420" y="155" on="1"/>
        <pt x="404" y="61" on="1"/>
        <pt x="346" y="71" on="1"/>
      </contour>
      <contour>
        <pt x="195" y="359" on="1"/>
        <pt x="195" y="387" on="1"/>
        <pt x="237" y="387" on="1"/>
        <pt x="265" y="359" on="1"/>
        <pt x="265" y="331" on="1"/>
        <pt x="251" y="316" on="1"/>
        <pt x="237" y="316" on="1"/>
        <pt x="195" y="359" on="1"/>
      </contour>
      <contour>
        <pt x="368" y="771" on="1"/>
        <pt x="286" y="837" on="1"/>
        <pt x="228" y="853" on="1"/>
        <pt x="174" y="900" on="1"/>
        <pt x="114" y="917" on="1"/>
        <pt x="126" y="930" on="1"/>
        <pt x="230" y="959" on="1"/>
        <pt x="291" y="947" on="1"/>
        <pt x="413" y="886" on="1"/>
        <pt x="485" y="859" on="1"/>
        <pt x="525" y="832" on="1"/>
        <pt x="582" y="813" on="1"/>
        <pt x="582" y="799" on="1"/>
        <pt x="523" y="761" on="1"/>
        <pt x="460" y="748" on="1"/>
        <pt x="437" y="737" on="1"/>
        <pt x="368" y="771" on="1"/>
      </contour>
    </TTGlyph>
    <TTGlyph name="h" xMin="12" yMin="2" xMax="652" yMax="999">
      <contour>
        <pt x="371" y="28" on="1"/>
        <pt x="414" y="2" on="1"/>
        <pt x="511" y="14" on="1"/>
        <pt x="652" y="21" on="1"/>
        <pt x="652" y="49" on="1"/>
        <pt x="639" y="89" on="1"/>
        <pt x="630" y="410" on="1"/>
        <pt x="610" y="450" on="1"/>
        <pt x="610" y="703" on="1"/>
        <pt x="647" y="834" on="1"/>
        <pt x="617" y="844" on="1"/>
        <pt x="589" y="858" on="1"/>
        <pt x="554" y="872" on="1"/>
        <pt x="483" y="907" on="1"/>
        <pt x="448" y="921" on="1"/>
        <pt x="364" y="963" on="1"/>
        <pt x="276" y="999" on="1"/>
        <pt x="209" y="999" on="1"/>
        <pt x="47" y="958" on="1"/>
        <pt x="47" y="809" on="1"/>
        <pt x="26" y="703" on="1"/>
        <pt x="26" y="373" on="1"/>
        <pt x="12" y="316" on="1"/>
        <pt x="12" y="246" on="1"/>
        <pt x="68" y="218" on="1"/>
        <pt x="186" y="100" on="1"/>
        <pt x="265" y="77" on="1"/>
        <pt x="286" y="56" on="1"/>
        <pt x="371" y="28" on="1"/>
      </contour>
      <contour>
        <pt x="446" y="58" on="1"/>
        <pt x="455" y="225" on="1"/>
        <pt x="462" y="696" on="1"/>
        <pt x="489" y="723" on="1"/>
        <pt x="558" y="734" on="1"/>
        <pt x="568" y="724" on="1"/>
        <pt x="578" y="426" on="1"/>
        <pt x="595" y="375" on="1"/>
        <pt x="604" y="57" on="1"/>
        <pt x="457" y="47" on="1"/>
        <pt x="446" y="58" on="1"/>
      </contour>
      <contour>
        <pt x="346" y="78" on="1"/>
        <pt x="290" y="111" on="1"/>
        <pt x="230" y="127" on="1"/>
        <pt x="209" y="148" on="1"/>
        <pt x="209" y="246" on="1"/>
        <pt x="216" y="309" on="1"/>
        <pt x="216" y="429" on="1"/>
        <pt x="188" y="429" on="1"/>
        <pt x="170" y="207" on="1"/>
        <pt x="156" y="193" on="1"/>
        <pt x="110" y="239" on="1"/>
        <pt x="54" y="277" on="1"/>
        <pt x="54" y="316" on="1"/>
        <pt x="61" y="345" on="1"/>
        <pt x="61" y="436" on="1"/>
        <pt x="50" y="534" on="1"/>
        <pt x="61" y="556" on="1"/>
        <pt x="61" y="661" on="1"/>
        <pt x="68" y="696" on="1"/>
        <pt x="91" y="889" on="1"/>
        <pt x="150" y="874" on="1"/>
        <pt x="209" y="816" on="1"/>
        <pt x="209" y="605" on="1"/>
        <pt x="230" y="584" on="1"/>
        <pt x="253" y="584" on="1"/>
        <pt x="243" y="633" on="1"/>
        <pt x="251" y="802" on="1"/>
        <pt x="277" y="802" on="1"/>
        <pt x="385" y="721" on="1"/>
        <pt x="420" y="703" on="1"/>
        <pt x="420" y="162" on="1"/>
        <pt x="404" y="68" on="1"/>
        <pt x="346" y="78" on="1"/>
      </contour>
      <contour>
        <pt x="350" y="788" on="1"/>
        <pt x="304" y="833" on="1"/>
        <pt x="327" y="856" on="1"/>
        <pt x="371" y="865" on="1"/>
        <pt x="442" y="885" on="1"/>
        <pt x="497" y="858" on="1"/>
        <pt x="525" y="839" on="1"/>
        <pt x="582" y="820" on="1"/>
        <pt x="582" y="806" on="1"/>
        <pt x="523" y="768" on="1"/>
        <pt x="460" y="755" on="1"/>
        <pt x="437" y="744" on="1"/>
        <pt x="350" y="788" on="1"/>
      </contour>
      <contour>
        <pt x="174" y="907" on="1"/>
        <pt x="114" y="924" on="1"/>
        <pt x="126" y="937" on="1"/>
        <pt x="230" y="966" on="1"/>
        <pt x="291" y="954" on="1"/>
        <pt x="361" y="919" on="1"/>
        <pt x="345" y="902" on="1"/>
        <pt x="285" y="887" on="1"/>
        <pt x="251" y="865" on="1"/>
        <pt x="223" y="865" on="1"/>
        <pt x="174" y="907" on="1"/>
      </contour>
    </TTGlyph>
    <TTGlyph name="i" xMin="13" yMin="2" xMax="470" yMax="928">
      <contour>
        <pt x="189" y="28" on="1"/>
        <pt x="232" y="2" on="1"/>
        <pt x="329" y="14" on="1"/>
        <pt x="470" y="21" on="1"/>
        <pt x="470" y="49" on="1"/>
        <pt x="457" y="89" on="1"/>
        <pt x="448" y="410" on="1"/>
        <pt x="428" y="450" on="1"/>
        <pt x="428" y="703" on="1"/>
        <pt x="465" y="834" on="1"/>
        <pt x="435" y="844" on="1"/>
        <pt x="407" y="858" on="1"/>
        <pt x="319" y="893" on="1"/>
        <pt x="266" y="928" on="1"/>
        <pt x="147" y="928" on="1"/>
        <pt x="118" y="907" on="1"/>
        <pt x="34" y="898" on="1"/>
        <pt x="34" y="183" on="1"/>
        <pt x="13" y="141" on="1"/>
        <pt x="13" y="93" on="1"/>
        <pt x="82" y="79" on="1"/>
        <pt x="104" y="56" on="1"/>
        <pt x="189" y="28" on="1"/>
      </contour>
      <contour>
        <pt x="264" y="58" on="1"/>
        <pt x="273" y="225" on="1"/>
        <pt x="280" y="696" on="1"/>
        <pt x="307" y="723" on="1"/>
        <pt x="376" y="734" on="1"/>
        <pt x="386" y="724" on="1"/>
        <pt x="396" y="426" on="1"/>
        <pt x="413" y="374" on="1"/>
        <pt x="422" y="57" on="1"/>
        <pt x="275" y="47" on="1"/>
        <pt x="264" y="58" on="1"/>
      </contour>
      <contour>
        <pt x="164" y="78" on="1"/>
        <pt x="108" y="111" on="1"/>
        <pt x="76" y="119" on="1"/>
        <pt x="62" y="134" on="1"/>
        <pt x="69" y="155" on="1"/>
        <pt x="69" y="801" on="1"/>
        <pt x="95" y="801" on="1"/>
        <pt x="203" y="721" on="1"/>
        <pt x="238" y="703" on="1"/>
        <pt x="238" y="162" on="1"/>
        <pt x="222" y="68" on="1"/>
        <pt x="164" y="78" on="1"/>
      </contour>
      <contour>
        <pt x="186" y="778" on="1"/>
        <pt x="104" y="844" on="1"/>
        <pt x="83" y="851" on="1"/>
        <pt x="83" y="865" on="1"/>
        <pt x="147" y="872" on="1"/>
        <pt x="175" y="893" on="1"/>
        <pt x="245" y="893" on="1"/>
        <pt x="315" y="858" on="1"/>
        <pt x="343" y="839" on="1"/>
        <pt x="400" y="820" on="1"/>
        <pt x="400" y="806" on="1"/>
        <pt x="341" y="767" on="1"/>
        <pt x="278" y="755" on="1"/>
        <pt x="256" y="743" on="1"/>
        <pt x="186" y="778" on="1"/>
      </contour>
    </TTGlyph>
    <TTGlyph name="j" xMin="12" yMin="2" xMax="638" yMax="999">
      <contour>
        <pt x="357" y="28" on="1"/>
        <pt x="400" y="2" on="1"/>
        <pt x="497" y="14" on="1"/>
        <pt x="638" y="21" on="1"/>
        <pt x="638" y="49" on="1"/>
        <pt x="625" y="89" on="1"/>
        <pt x="616" y="415" on="1"/>
        <pt x="596" y="513" on="1"/>
        <pt x="596" y="703" on="1"/>
        <pt x="633" y="834" on="1"/>
        <pt x="603" y="844" on="1"/>
        <pt x="575" y="858" on="1"/>
        <pt x="539" y="872" on="1"/>
        <pt x="469" y="907" on="1"/>
        <pt x="434" y="921" on="1"/>
        <pt x="350" y="964" on="1"/>
        <pt x="262" y="999" on="1"/>
        <pt x="195" y="999" on="1"/>
        <pt x="33" y="958" on="1"/>
        <pt x="33" y="809" on="1"/>
        <pt x="12" y="703" on="1"/>
        <pt x="12" y="394" on="1"/>
        <pt x="31" y="300" on="1"/>
        <pt x="54" y="253" on="1"/>
        <pt x="61" y="232" on="1"/>
        <pt x="68" y="218" on="1"/>
        <pt x="75" y="197" on="1"/>
        <pt x="172" y="100" on="1"/>
        <pt x="251" y="77" on="1"/>
        <pt x="272" y="56" on="1"/>
        <pt x="357" y="28" on="1"/>
      </contour>
      <contour>
        <pt x="432" y="58" on="1"/>
        <pt x="441" y="225" on="1"/>
        <pt x="441" y="519" on="1"/>
        <pt x="497" y="527" on="1"/>
        <pt x="518" y="534" on="1"/>
        <pt x="550" y="534" on="1"/>
        <pt x="568" y="498" on="1"/>
        <pt x="589" y="169" on="1"/>
        <pt x="589" y="57" on="1"/>
        <pt x="443" y="47" on="1"/>
        <pt x="432" y="58" on="1"/>
      </contour>
      <contour>
        <pt x="332" y="78" on="1"/>
        <pt x="276" y="111" on="1"/>
        <pt x="207" y="129" on="1"/>
        <pt x="125" y="211" on="1"/>
        <pt x="103" y="253" on="1"/>
        <pt x="70" y="304" on="1"/>
        <pt x="61" y="380" on="1"/>
        <pt x="47" y="408" on="1"/>
        <pt x="47" y="696" on="1"/>
        <pt x="61" y="753" on="1"/>
        <pt x="76" y="889" on="1"/>
        <pt x="125" y="877" on="1"/>
        <pt x="188" y="830" on="1"/>
        <pt x="255" y="807" on="1"/>
        <pt x="371" y="721" on="1"/>
        <pt x="406" y="703" on="1"/>
        <pt x="406" y="563" on="1"/>
        <pt x="392" y="563" on="1"/>
        <pt x="364" y="591" on="1"/>
        <pt x="279" y="647" on="1"/>
        <pt x="227" y="647" on="1"/>
        <pt x="237" y="246" on="1"/>
        <pt x="265" y="246" on="1"/>
        <pt x="265" y="591" on="1"/>
        <pt x="289" y="591" on="1"/>
        <pt x="371" y="520" on="1"/>
        <pt x="405" y="503" on="1"/>
        <pt x="413" y="443" on="1"/>
        <pt x="425" y="384" on="1"/>
        <pt x="413" y="338" on="1"/>
        <pt x="396" y="82" on="1"/>
        <pt x="384" y="69" on="1"/>
        <pt x="332" y="78" on="1"/>
      </contour>
      <contour>
        <pt x="448" y="570" on="1"/>
        <pt x="448" y="696" on="1"/>
        <pt x="475" y="723" on="1"/>
        <pt x="544" y="734" on="1"/>
        <pt x="554" y="724" on="1"/>
        <pt x="554" y="577" on="1"/>
        <pt x="483" y="570" on="1"/>
        <pt x="460" y="558" on="1"/>
        <pt x="448" y="570" on="1"/>
      </contour>
      <contour>
        <pt x="354" y="778" on="1"/>
        <pt x="272" y="844" on="1"/>
        <pt x="214" y="861" on="1"/>
        <pt x="160" y="907" on="1"/>
        <pt x="100" y="924" on="1"/>
        <pt x="112" y="937" on="1"/>
        <pt x="216" y="966" on="1"/>
        <pt x="277" y="954" on="1"/>
        <pt x="399" y="893" on="1"/>
        <pt x="471" y="866" on="1"/>
        <pt x="511" y="839" on="1"/>
        <pt x="568" y="821" on="1"/>
        <pt x="568" y="806" on="1"/>
        <pt x="509" y="768" on="1"/>
        <pt x="446" y="755" on="1"/>
        <pt x="423" y="744" on="1"/>
        <pt x="354" y="778" on="1"/>
      </contour>
    </TTGlyph>
    <TTGlyph name="k" xMin="11" yMin="-5" xMax="651" yMax="992">
      <contour>
        <pt x="370" y="21" on="1"/>
        <pt x="413" y="-5" on="1"/>
        <pt x="510" y="7" on="1"/>
        <pt x="651" y="14" on="1"/>
        <pt x="651" y="42" on="1"/>
        <pt x="638" y="82" on="1"/>
        <pt x="629" y="403" on="1"/>
        <pt x="609" y="443" on="1"/>
        <pt x="609" y="696" on="1"/>
        <pt x="646" y="827" on="1"/>
        <pt x="616" y="837" on="1"/>
        <pt x="588" y="851" on="1"/>
        <pt x="553" y="865" on="1"/>
        <pt x="482" y="900" on="1"/>
        <pt x="447" y="914" on="1"/>
        <pt x="363" y="956" on="1"/>
        <pt x="275" y="992" on="1"/>
        <pt x="208" y="992" on="1"/>
        <pt x="46" y="951" on="1"/>
        <pt x="46" y="802" on="1"/>
        <pt x="32" y="731" on="1"/>
        <pt x="32" y="635" on="1"/>
        <pt x="67" y="555" on="1"/>
        <pt x="25" y="513" on="1"/>
        <pt x="25" y="366" on="1"/>
        <pt x="11" y="309" on="1"/>
        <pt x="11" y="239" on="1"/>
        <pt x="67" y="211" on="1"/>
        <pt x="185" y="93" on="1"/>
        <pt x="264" y="70" on="1"/>
        <pt x="285" y="49" on="1"/>
        <pt x="370" y="21" on="1"/>
      </contour>
      <contour>
        <pt x="445" y="51" on="1"/>
        <pt x="454" y="218" on="1"/>
        <pt x="461" y="689" on="1"/>
        <pt x="488" y="716" on="1"/>
        <pt x="557" y="727" on="1"/>
        <pt x="567" y="717" on="1"/>
        <pt x="577" y="419" on="1"/>
        <pt x="594" y="368" on="1"/>
        <pt x="603" y="50" on="1"/>
        <pt x="456" y="40" on="1"/>
        <pt x="445" y="51" on="1"/>
      </contour>
      <contour>
        <pt x="345" y="71" on="1"/>
        <pt x="289" y="104" on="1"/>
        <pt x="238" y="117" on="1"/>
        <pt x="216" y="139" on="1"/>
        <pt x="229" y="253" on="1"/>
        <pt x="229" y="401" on="1"/>
        <pt x="201" y="401" on="1"/>
        <pt x="194" y="281" on="1"/>
        <pt x="179" y="171" on="1"/>
        <pt x="145" y="197" on="1"/>
        <pt x="109" y="232" on="1"/>
        <pt x="53" y="270" on="1"/>
        <pt x="53" y="309" on="1"/>
        <pt x="60" y="338" on="1"/>
        <pt x="60" y="478" on="1"/>
        <pt x="92" y="510" on="1"/>
        <pt x="124" y="520" on="1"/>
        <pt x="124" y="557" on="1"/>
        <pt x="67" y="658" on="1"/>
        <pt x="67" y="717" on="1"/>
        <pt x="74" y="745" on="1"/>
        <pt x="89" y="882" on="1"/>
        <pt x="138" y="870" on="1"/>
        <pt x="201" y="823" on="1"/>
        <pt x="221" y="813" on="1"/>
        <pt x="230" y="777" on="1"/>
        <pt x="222" y="738" on="1"/>
        <pt x="222" y="584" on="1"/>
        <pt x="250" y="584" on="1"/>
        <pt x="257" y="703" on="1"/>
        <pt x="264" y="738" on="1"/>
        <pt x="272" y="788" on="1"/>
        <pt x="285" y="788" on="1"/>
        <pt x="384" y="714" on="1"/>
        <pt x="419" y="696" on="1"/>
        <pt x="419" y="155" on="1"/>
        <pt x="403" y="61" on="1"/>
        <pt x="345" y="71" on="1"/>
      </contour>
      <contour>
        <pt x="349" y="781" on="1"/>
        <pt x="304" y="825" on="1"/>
        <pt x="327" y="837" on="1"/>
        <pt x="380" y="846" on="1"/>
        <pt x="419" y="865" on="1"/>
        <pt x="475" y="865" on="1"/>
        <pt x="524" y="832" on="1"/>
        <pt x="581" y="813" on="1"/>
        <pt x="581" y="799" on="1"/>
        <pt x="522" y="761" on="1"/>
        <pt x="459" y="748" on="1"/>
        <pt x="436" y="737" on="1"/>
        <pt x="349" y="781" on="1"/>
      </contour>
      <contour>
        <pt x="236" y="846" on="1"/>
        <pt x="173" y="900" on="1"/>
        <pt x="113" y="917" on="1"/>
        <pt x="125" y="930" on="1"/>
        <pt x="229" y="959" on="1"/>
        <pt x="290" y="947" on="1"/>
        <pt x="356" y="914" on="1"/>
        <pt x="373" y="897" on="1"/>
        <pt x="358" y="881" on="1"/>
        <pt x="270" y="869" on="1"/>
        <pt x="236" y="846" on="1"/>
      </contour>
    </TTGlyph>
    <TTGlyph name="l" xMin="6" yMin="2" xMax="646" yMax="921">
      <contour>
        <pt x="365" y="28" on="1"/>
        <pt x="408" y="2" on="1"/>
        <pt x="505" y="14" on="1"/>
        <pt x="646" y="21" on="1"/>
        <pt x="646" y="49" on="1"/>
        <pt x="633" y="89" on="1"/>
        <pt x="624" y="410" on="1"/>
        <pt x="604" y="450" on="1"/>
        <pt x="604" y="703" on="1"/>
        <pt x="641" y="834" on="1"/>
        <pt x="611" y="844" on="1"/>
        <pt x="583" y="858" on="1"/>
        <pt x="548" y="872" on="1"/>
        <pt x="449" y="921" on="1"/>
        <pt x="403" y="921" on="1"/>
        <pt x="372" y="900" on="1"/>
        <pt x="322" y="893" on="1"/>
        <pt x="210" y="865" on="1"/>
        <pt x="189" y="844" on="1"/>
        <pt x="189" y="661" on="1"/>
        <pt x="203" y="619" on="1"/>
        <pt x="203" y="541" on="1"/>
        <pt x="193" y="521" on="1"/>
        <pt x="161" y="513" on="1"/>
        <pt x="140" y="506" on="1"/>
        <pt x="20" y="498" on="1"/>
        <pt x="20" y="373" on="1"/>
        <pt x="6" y="316" on="1"/>
        <pt x="6" y="246" on="1"/>
        <pt x="62" y="218" on="1"/>
        <pt x="180" y="100" on="1"/>
        <pt x="259" y="77" on="1"/>
        <pt x="280" y="56" on="1"/>
        <pt x="365" y="28" on="1"/>
      </contour>
      <contour>
        <pt x="440" y="58" on="1"/>
        <pt x="449" y="225" on="1"/>
        <pt x="456" y="696" on="1"/>
        <pt x="483" y="723" on="1"/>
        <pt x="552" y="734" on="1"/>
        <pt x="562" y="724" on="1"/>
        <pt x="572" y="426" on="1"/>
        <pt x="589" y="375" on="1"/>
        <pt x="598" y="57" on="1"/>
        <pt x="451" y="47" on="1"/>
        <pt x="440" y="58" on="1"/>
      </contour>
      <contour>
        <pt x="340" y="78" on="1"/>
        <pt x="284" y="111" on="1"/>
        <pt x="230" y="125" on="1"/>
        <pt x="140" y="204" on="1"/>
        <pt x="104" y="239" on="1"/>
        <pt x="48" y="277" on="1"/>
        <pt x="48" y="316" on="1"/>
        <pt x="55" y="345" on="1"/>
        <pt x="55" y="443" on="1"/>
        <pt x="62" y="450" on="1"/>
        <pt x="97" y="415" on="1"/>
        <pt x="140" y="394" on="1"/>
        <pt x="182" y="380" on="1"/>
        <pt x="196" y="373" on="1"/>
        <pt x="224" y="373" on="1"/>
        <pt x="224" y="422" on="1"/>
        <pt x="238" y="492" on="1"/>
        <pt x="238" y="647" on="1"/>
        <pt x="224" y="689" on="1"/>
        <pt x="224" y="816" on="1"/>
        <pt x="252" y="816" on="1"/>
        <pt x="379" y="721" on="1"/>
        <pt x="414" y="703" on="1"/>
        <pt x="414" y="162" on="1"/>
        <pt x="398" y="68" on="1"/>
        <pt x="340" y="78" on="1"/>
      </contour>
      <contour>
        <pt x="203" y="323" on="1"/>
        <pt x="203" y="316" on="1"/>
        <pt x="203" y="323" on="1"/>
      </contour>
      <contour>
        <pt x="124" y="456" on="1"/>
        <pt x="140" y="471" on="1"/>
        <pt x="189" y="471" on="1"/>
        <pt x="189" y="436" on="1"/>
        <pt x="154" y="436" on="1"/>
        <pt x="124" y="456" on="1"/>
      </contour>
      <contour>
        <pt x="344" y="788" on="1"/>
        <pt x="301" y="830" on="1"/>
        <pt x="301" y="844" on="1"/>
        <pt x="386" y="872" on="1"/>
        <pt x="400" y="879" on="1"/>
        <pt x="449" y="879" on="1"/>
        <pt x="491" y="858" on="1"/>
        <pt x="519" y="839" on="1"/>
        <pt x="576" y="820" on="1"/>
        <pt x="576" y="806" on="1"/>
        <pt x="517" y="768" on="1"/>
        <pt x="454" y="755" on="1"/>
        <pt x="431" y="744" on="1"/>
        <pt x="344" y="788" on="1"/>
      </contour>
    </TTGlyph>
    <TTGlyph name="m" xMin="12" yMin="-5" xMax="652" yMax="992">
      <contour>
        <pt x="371" y="21" on="1"/>
        <pt x="414" y="-5" on="1"/>
        <pt x="511" y="7" on="1"/>
        <pt x="652" y="14" on="1"/>
        <pt x="652" y="42" on="1"/>
        <pt x="639" y="82" on="1"/>
        <pt x="630" y="403" on="1"/>
        <pt x="610" y="443" on="1"/>
        <pt x="610" y="696" on="1"/>
        <pt x="647" y="827" on="1"/>
        <pt x="617" y="837" on="1"/>
        <pt x="589" y="851" on="1"/>
        <pt x="554" y="865" on="1"/>
        <pt x="483" y="900" on="1"/>
        <pt x="448" y="914" on="1"/>
        <pt x="364" y="956" on="1"/>
        <pt x="276" y="992" on="1"/>
        <pt x="209" y="992" on="1"/>
        <pt x="47" y="951" on="1"/>
        <pt x="47" y="802" on="1"/>
        <pt x="26" y="696" on="1"/>
        <pt x="26" y="366" on="1"/>
        <pt x="12" y="309" on="1"/>
        <pt x="12" y="239" on="1"/>
        <pt x="68" y="211" on="1"/>
        <pt x="186" y="93" on="1"/>
        <pt x="265" y="70" on="1"/>
        <pt x="286" y="49" on="1"/>
        <pt x="371" y="21" on="1"/>
      </contour>
      <contour>
        <pt x="446" y="51" on="1"/>
        <pt x="455" y="218" on="1"/>
        <pt x="462" y="689" on="1"/>
        <pt x="489" y="716" on="1"/>
        <pt x="558" y="727" on="1"/>
        <pt x="568" y="717" on="1"/>
        <pt x="578" y="419" on="1"/>
        <pt x="595" y="368" on="1"/>
        <pt x="604" y="50" on="1"/>
        <pt x="457" y="40" on="1"/>
        <pt x="446" y="51" on="1"/>
      </contour>
      <contour>
        <pt x="341" y="72" on="1"/>
        <pt x="328" y="84" on="1"/>
        <pt x="328" y="253" on="1"/>
        <pt x="335" y="295" on="1"/>
        <pt x="335" y="436" on="1"/>
        <pt x="308" y="436" on="1"/>
        <pt x="300" y="331" on="1"/>
        <pt x="293" y="281" on="1"/>
        <pt x="286" y="113" on="1"/>
        <pt x="258" y="113" on="1"/>
        <pt x="188" y="148" on="1"/>
        <pt x="155" y="198" on="1"/>
        <pt x="174" y="274" on="1"/>
        <pt x="174" y="549" on="1"/>
        <pt x="146" y="549" on="1"/>
        <pt x="138" y="294" on="1"/>
        <pt x="120" y="239" on="1"/>
        <pt x="103" y="239" on="1"/>
        <pt x="54" y="269" on="1"/>
        <pt x="54" y="309" on="1"/>
        <pt x="61" y="338" on="1"/>
        <pt x="61" y="689" on="1"/>
        <pt x="75" y="745" on="1"/>
        <pt x="90" y="882" on="1"/>
        <pt x="139" y="870" on="1"/>
        <pt x="174" y="844" on="1"/>
        <pt x="188" y="837" on="1"/>
        <pt x="209" y="823" on="1"/>
        <pt x="244" y="805" on="1"/>
        <pt x="244" y="577" on="1"/>
        <pt x="278" y="577" on="1"/>
        <pt x="286" y="774" on="1"/>
        <pt x="293" y="781" on="1"/>
        <pt x="335" y="752" on="1"/>
        <pt x="364" y="724" on="1"/>
        <pt x="420" y="696" on="1"/>
        <pt x="420" y="155" on="1"/>
        <pt x="404" y="61" on="1"/>
        <pt x="341" y="72" on="1"/>
      </contour>
      <contour>
        <pt x="350" y="781" on="1"/>
        <pt x="311" y="819" on="1"/>
        <pt x="335" y="844" on="1"/>
        <pt x="385" y="851" on="1"/>
        <pt x="416" y="872" on="1"/>
        <pt x="455" y="872" on="1"/>
        <pt x="497" y="851" on="1"/>
        <pt x="525" y="832" on="1"/>
        <pt x="582" y="813" on="1"/>
        <pt x="582" y="799" on="1"/>
        <pt x="523" y="761" on="1"/>
        <pt x="460" y="748" on="1"/>
        <pt x="437" y="737" on="1"/>
        <pt x="350" y="781" on="1"/>
      </contour>
      <contour>
        <pt x="231" y="851" on="1"/>
        <pt x="174" y="900" on="1"/>
        <pt x="114" y="917" on="1"/>
        <pt x="126" y="930" on="1"/>
        <pt x="230" y="959" on="1"/>
        <pt x="291" y="947" on="1"/>
        <pt x="343" y="921" on="1"/>
        <pt x="364" y="900" on="1"/>
        <pt x="350" y="886" on="1"/>
        <pt x="300" y="879" on="1"/>
        <pt x="263" y="851" on="1"/>
        <pt x="231" y="851" on="1"/>
      </contour>
    </TTGlyph>
    <TTGlyph name="n" xMin="12" yMin="2" xMax="652" yMax="999">
      <contour>
        <pt x="371" y="28" on="1"/>
        <pt x="414" y="2" on="1"/>
        <pt x="511" y="14" on="1"/>
        <pt x="652" y="21" on="1"/>
        <pt x="652" y="49" on="1"/>
        <pt x="639" y="89" on="1"/>
        <pt x="630" y="410" on="1"/>
        <pt x="610" y="450" on="1"/>
        <pt x="610" y="703" on="1"/>
        <pt x="647" y="834" on="1"/>
        <pt x="617" y="844" on="1"/>
        <pt x="589" y="858" on="1"/>
        <pt x="554" y="872" on="1"/>
        <pt x="483" y="907" on="1"/>
        <pt x="448" y="921" on="1"/>
        <pt x="364" y="963" on="1"/>
        <pt x="276" y="999" on="1"/>
        <pt x="209" y="999" on="1"/>
        <pt x="47" y="958" on="1"/>
        <pt x="47" y="809" on="1"/>
        <pt x="26" y="703" on="1"/>
        <pt x="26" y="373" on="1"/>
        <pt x="12" y="316" on="1"/>
        <pt x="12" y="246" on="1"/>
        <pt x="68" y="218" on="1"/>
        <pt x="167" y="120" on="1"/>
        <pt x="211" y="93" on="1"/>
        <pt x="265" y="77" on="1"/>
        <pt x="286" y="56" on="1"/>
        <pt x="371" y="28" on="1"/>
      </contour>
      <contour>
        <pt x="446" y="58" on="1"/>
        <pt x="455" y="225" on="1"/>
        <pt x="462" y="696" on="1"/>
        <pt x="489" y="723" on="1"/>
        <pt x="558" y="734" on="1"/>
        <pt x="568" y="724" on="1"/>
        <pt x="578" y="426" on="1"/>
        <pt x="595" y="375" on="1"/>
        <pt x="604" y="57" on="1"/>
        <pt x="457" y="47" on="1"/>
        <pt x="446" y="58" on="1"/>
      </contour>
      <contour>
        <pt x="341" y="79" on="1"/>
        <pt x="328" y="91" on="1"/>
        <pt x="328" y="232" on="1"/>
        <pt x="321" y="267" on="1"/>
        <pt x="321" y="380" on="1"/>
        <pt x="328" y="415" on="1"/>
        <pt x="328" y="541" on="1"/>
        <pt x="300" y="541" on="1"/>
        <pt x="293" y="443" on="1"/>
        <pt x="286" y="408" on="1"/>
        <pt x="286" y="239" on="1"/>
        <pt x="293" y="204" on="1"/>
        <pt x="293" y="134" on="1"/>
        <pt x="274" y="114" on="1"/>
        <pt x="216" y="134" on="1"/>
        <pt x="110" y="239" on="1"/>
        <pt x="54" y="277" on="1"/>
        <pt x="54" y="316" on="1"/>
        <pt x="68" y="371" on="1"/>
        <pt x="54" y="506" on="1"/>
        <pt x="45" y="524" on="1"/>
        <pt x="54" y="541" on="1"/>
        <pt x="61" y="619" on="1"/>
        <pt x="75" y="654" on="1"/>
        <pt x="75" y="745" on="1"/>
        <pt x="90" y="889" on="1"/>
        <pt x="141" y="877" on="1"/>
        <pt x="153" y="865" on="1"/>
        <pt x="172" y="776" on="1"/>
        <pt x="160" y="738" on="1"/>
        <pt x="146" y="549" on="1"/>
        <pt x="146" y="450" on="1"/>
        <pt x="134" y="427" on="1"/>
        <pt x="146" y="415" on="1"/>
        <pt x="181" y="415" on="1"/>
        <pt x="192" y="701" on="1"/>
        <pt x="202" y="731" on="1"/>
        <pt x="209" y="816" on="1"/>
        <pt x="258" y="816" on="1"/>
        <pt x="385" y="721" on="1"/>
        <pt x="420" y="703" on="1"/>
        <pt x="420" y="162" on="1"/>
        <pt x="404" y="68" on="1"/>
        <pt x="341" y="79" on="1"/>
      </contour>
      <contour>
        <pt x="368" y="778" on="1"/>
        <pt x="286" y="844" on="1"/>
        <pt x="237" y="858" on="1"/>
        <pt x="237" y="877" on="1"/>
        <pt x="328" y="900" on="1"/>
        <pt x="399" y="900" on="1"/>
        <pt x="413" y="893" on="1"/>
        <pt x="485" y="866" on="1"/>
        <pt x="525" y="839" on="1"/>
        <pt x="582" y="820" on="1"/>
        <pt x="582" y="806" on="1"/>
        <pt x="523" y="768" on="1"/>
        <pt x="460" y="755" on="1"/>
        <pt x="437" y="744" on="1"/>
        <pt x="368" y="778" on="1"/>
      </contour>
      <contour>
        <pt x="113" y="924" on="1"/>
        <pt x="126" y="937" on="1"/>
        <pt x="230" y="966" on="1"/>
        <pt x="293" y="954" on="1"/>
        <pt x="293" y="935" on="1"/>
        <pt x="216" y="914" on="1"/>
        <pt x="189" y="905" on="1"/>
        <pt x="113" y="924" on="1"/>
      </contour>
    </TTGlyph>
    <TTGlyph name="nine" xMin="18" yMin="-5" xMax="412" yMax="372">
      <contour>
        <pt x="159" y="7" on="1"/>
        <pt x="259" y="-5" on="1"/>
        <pt x="278" y="14" on="1"/>
        <pt x="363" y="42" on="1"/>
        <pt x="370" y="49" on="1"/>
        <pt x="391" y="56" on="1"/>
        <pt x="412" y="77" on="1"/>
        <pt x="412" y="253" on="1"/>
        <pt x="405" y="281" on="1"/>
        <pt x="398" y="317" on="1"/>
        <pt x="384" y="345" on="1"/>
        <pt x="292" y="345" on="1"/>
        <pt x="250" y="359" on="1"/>
        <pt x="172" y="372" on="1"/>
        <pt x="159" y="359" on="1"/>
        <pt x="145" y="352" on="1"/>
        <pt x="109" y="317" on="1"/>
        <pt x="39" y="253" on="1"/>
        <pt x="31" y="81" on="1"/>
        <pt x="18" y="42" on="1"/>
        <pt x="18" y="14" on="1"/>
        <pt x="159" y="7" on="1"/>
      </contour>
      <contour>
        <pt x="65" y="49" on="1"/>
        <pt x="74" y="225" on="1"/>
        <pt x="152" y="225" on="1"/>
        <pt x="173" y="218" on="1"/>
        <pt x="215" y="210" on="1"/>
        <pt x="225" y="39" on="1"/>
        <pt x="65" y="49" on="1"/>
      </contour>
      <contour>
        <pt x="257" y="113" on="1"/>
        <pt x="257" y="218" on="1"/>
        <pt x="299" y="246" on="1"/>
        <pt x="313" y="267" on="1"/>
        <pt x="350" y="294" on="1"/>
        <pt x="363" y="281" on="1"/>
        <pt x="370" y="246" on="1"/>
        <pt x="377" y="225" on="1"/>
        <pt x="377" y="106" on="1"/>
        <pt x="349" y="84" on="1"/>
        <pt x="338" y="74" on="1"/>
        <pt x="285" y="63" on="1"/>
        <pt x="264" y="56" on="1"/>
        <pt x="257" y="113" on="1"/>
      </contour>
      <contour>
        <pt x="236" y="253" on="1"/>
        <pt x="201" y="253" on="1"/>
        <pt x="180" y="260" on="1"/>
        <pt x="124" y="267" on="1"/>
        <pt x="152" y="295" on="1"/>
        <pt x="166" y="303" on="1"/>
        <pt x="190" y="334" on="1"/>
        <pt x="222" y="324" on="1"/>
        <pt x="236" y="317" on="1"/>
        <pt x="278" y="303" on="1"/>
        <pt x="257" y="267" on="1"/>
        <pt x="250" y="246" on="1"/>
        <pt x="236" y="253" on="1"/>
      </contour>
    </TTGlyph>
    <TTGlyph name="o" xMin="12" yMin="2" xMax="652" yMax="999">
      <contour>
        <pt x="371" y="28" on="1"/>
        <pt x="414" y="2" on="1"/>
        <pt x="511" y="14" on="1"/>
        <pt x="652" y="21" on="1"/>
        <pt x="652" y="49" on="1"/>
        <pt x="639" y="89" on="1"/>
        <pt x="630" y="410" on="1"/>
        <pt x="610" y="450" on="1"/>
        <pt x="610" y="703" on="1"/>
        <pt x="647" y="834" on="1"/>
        <pt x="617" y="844" on="1"/>
        <pt x="589" y="858" on="1"/>
        <pt x="554" y="872" on="1"/>
        <pt x="483" y="907" on="1"/>
        <pt x="448" y="921" on="1"/>
        <pt x="364" y="963" on="1"/>
        <pt x="276" y="999" on="1"/>
        <pt x="209" y="999" on="1"/>
        <pt x="47" y="958" on="1"/>
        <pt x="47" y="809" on="1"/>
        <pt x="26" y="703" on="1"/>
        <pt x="26" y="373" on="1"/>
        <pt x="12" y="316" on="1"/>
        <pt x="12" y="246" on="1"/>
        <pt x="68" y="218" on="1"/>
        <pt x="186" y="100" on="1"/>
        <pt x="265" y="77" on="1"/>
        <pt x="286" y="56" on="1"/>
        <pt x="371" y="28" on="1"/>
      </contour>
      <contour>
        <pt x="446" y="58" on="1"/>
        <pt x="455" y="225" on="1"/>
        <pt x="462" y="696" on="1"/>
        <pt x="489" y="723" on="1"/>
        <pt x="558" y="734" on="1"/>
        <pt x="568" y="724" on="1"/>
        <pt x="578" y="426" on="1"/>
        <pt x="595" y="375" on="1"/>
        <pt x="604" y="57" on="1"/>
        <pt x="457" y="47" on="1"/>
        <pt x="446" y="58" on="1"/>
      </contour>
      <contour>
        <pt x="346" y="78" on="1"/>
        <pt x="290" y="111" on="1"/>
        <pt x="236" y="125" on="1"/>
        <pt x="146" y="204" on="1"/>
        <pt x="110" y="239" on="1"/>
        <pt x="54" y="277" on="1"/>
        <pt x="54" y="316" on="1"/>
        <pt x="61" y="345" on="1"/>
        <pt x="61" y="696" on="1"/>
        <pt x="75" y="752" on="1"/>
        <pt x="90" y="889" on="1"/>
        <pt x="139" y="877" on="1"/>
        <pt x="202" y="830" on="1"/>
        <pt x="269" y="807" on="1"/>
        <pt x="385" y="721" on="1"/>
        <pt x="420" y="703" on="1"/>
        <pt x="420" y="162" on="1"/>
        <pt x="404" y="68" on="1"/>
        <pt x="346" y="78" on="1"/>
      </contour>
      <contour>
        <pt x="184" y="281" on="1"/>
        <pt x="265" y="281" on="1"/>
        <pt x="300" y="333" on="1"/>
        <pt x="311" y="655" on="1"/>
        <pt x="293" y="682" on="1"/>
        <pt x="223" y="682" on="1"/>
        <pt x="184" y="656" on="1"/>
        <pt x="160" y="584" on="1"/>
        <pt x="160" y="341" on="1"/>
        <pt x="184" y="281" on="1"/>
      </contour>
      <contour>
        <pt x="219" y="316" on="1"/>
        <pt x="202" y="359" on="1"/>
        <pt x="202" y="577" on="1"/>
        <pt x="219" y="627" on="1"/>
        <pt x="244" y="640" on="1"/>
        <pt x="274" y="640" on="1"/>
        <pt x="265" y="362" on="1"/>
        <pt x="235" y="316" on="1"/>
        <pt x="219" y="316" on="1"/>
      </contour>
      <contour>
        <pt x="368" y="778" on="1"/>
        <pt x="286" y="844" on="1"/>
        <pt x="228" y="860" on="1"/>
        <pt x="174" y="907" on="1"/>
        <pt x="114" y="924" on="1"/>
        <pt x="126" y="937" on="1"/>
        <pt x="230" y="966" on="1"/>
        <pt x="291" y="954" on="1"/>
        <pt x="413" y="893" on="1"/>
        <pt x="485" y="866" on="1"/>
        <pt x="525" y="839" on="1"/>
        <pt x="582" y="820" on="1"/>
        <pt x="582" y="806" on="1"/>
        <pt x="523" y="768" on="1"/>
        <pt x="460" y="755" on="1"/>
        <pt x="437" y="744" on="1"/>
        <pt x="368" y="778" on="1"/>
      </contour>
    </TTGlyph>
    <TTGlyph name="one" xMin="18" yMin="-5" xMax="412" yMax="372">
      <contour>
        <pt x="159" y="7" on="1"/>
        <pt x="259" y="-5" on="1"/>
        <pt x="278" y="14" on="1"/>
        <pt x="363" y="42" on="1"/>
        <pt x="370" y="49" on="1"/>
        <pt x="391" y="56" on="1"/>
        <pt x="412" y="77" on="1"/>
        <pt x="412" y="253" on="1"/>
        <pt x="405" y="281" on="1"/>
        <pt x="398" y="317" on="1"/>
        <pt x="384" y="345" on="1"/>
        <pt x="292" y="345" on="1"/>
        <pt x="250" y="359" on="1"/>
        <pt x="172" y="372" on="1"/>
        <pt x="159" y="359" on="1"/>
        <pt x="145" y="352" on="1"/>
        <pt x="109" y="317" on="1"/>
        <pt x="39" y="253" on="1"/>
        <pt x="31" y="81" on="1"/>
        <pt x="18" y="42" on="1"/>
        <pt x="18" y="14" on="1"/>
        <pt x="159" y="7" on="1"/>
      </contour>
      <contour>
        <pt x="65" y="49" on="1"/>
        <pt x="74" y="225" on="1"/>
        <pt x="152" y="225" on="1"/>
        <pt x="173" y="218" on="1"/>
        <pt x="215" y="210" on="1"/>
        <pt x="225" y="39" on="1"/>
        <pt x="65" y="49" on="1"/>
      </contour>
      <contour>
        <pt x="257" y="113" on="1"/>
        <pt x="257" y="218" on="1"/>
        <pt x="299" y="246" on="1"/>
        <pt x="313" y="267" on="1"/>
        <pt x="350" y="294" on="1"/>
        <pt x="363" y="281" on="1"/>
        <pt x="370" y="246" on="1"/>
        <pt x="377" y="225" on="1"/>
        <pt x="377" y="106" on="1"/>
        <pt x="349" y="84" on="1"/>
        <pt x="338" y="74" on="1"/>
        <pt x="285" y="63" on="1"/>
        <pt x="264" y="56" on="1"/>
        <pt x="257" y="113" on="1"/>
      </contour>
      <contour>
        <pt x="236" y="253" on="1"/>
        <pt x="201" y="253" on="1"/>
        <pt x="180" y="260" on="1"/>
        <pt x="124" y="267" on="1"/>
        <pt x="152" y="295" on="1"/>
        <pt x="166" y="303" on="1"/>
        <pt x="190" y="334" on="1"/>
        <pt x="222" y="324" on="1"/>
        <pt x="236" y="317" on="1"/>
        <pt x="278" y="303" on="1"/>
        <pt x="257" y="267" on="1"/>
        <pt x="250" y="246" on="1"/>
        <pt x="236" y="253" on="1"/>
      </contour>
    </TTGlyph>
    <TTGlyph name="p" xMin="9" yMin="2" xMax="643" yMax="999">
      <contour>
        <pt x="362" y="28" on="1"/>
        <pt x="405" y="2" on="1"/>
        <pt x="502" y="14" on="1"/>
        <pt x="643" y="21" on="1"/>
        <pt x="643" y="49" on="1"/>
        <pt x="630" y="89" on="1"/>
        <pt x="621" y="410" on="1"/>
        <pt x="601" y="450" on="1"/>
        <pt x="601" y="703" on="1"/>
        <pt x="638" y="834" on="1"/>
        <pt x="608" y="844" on="1"/>
        <pt x="580" y="858" on="1"/>
        <pt x="545" y="872" on="1"/>
        <pt x="474" y="907" on="1"/>
        <pt x="439" y="921" on="1"/>
        <pt x="355" y="963" on="1"/>
        <pt x="267" y="999" on="1"/>
        <pt x="200" y="999" on="1"/>
        <pt x="38" y="958" on="1"/>
        <pt x="38" y="809" on="1"/>
        <pt x="24" y="738" on="1"/>
        <pt x="9" y="526" on="1"/>
        <pt x="38" y="506" on="1"/>
        <pt x="97" y="456" on="1"/>
        <pt x="158" y="425" on="1"/>
        <pt x="158" y="120" on="1"/>
        <pt x="177" y="100" on="1"/>
        <pt x="256" y="77" on="1"/>
        <pt x="277" y="56" on="1"/>
        <pt x="362" y="28" on="1"/>
      </contour>
      <contour>
        <pt x="437" y="58" on="1"/>
        <pt x="446" y="225" on="1"/>
        <pt x="453" y="696" on="1"/>
        <pt x="480" y="723" on="1"/>
        <pt x="549" y="734" on="1"/>
        <pt x="559" y="724" on="1"/>
        <pt x="569" y="426" on="1"/>
        <pt x="586" y="375" on="1"/>
        <pt x="595" y="57" on="1"/>
        <pt x="448" y="47" on="1"/>
        <pt x="437" y="58" on="1"/>
      </contour>
      <contour>
        <pt x="337" y="78" on="1"/>
        <pt x="281" y="111" on="1"/>
        <pt x="212" y="129" on="1"/>
        <pt x="193" y="148" on="1"/>
        <pt x="193" y="366" on="1"/>
        <pt x="201" y="399" on="1"/>
        <pt x="192" y="455" on="1"/>
        <pt x="158" y="478" on="1"/>
        <pt x="137" y="489" on="1"/>
        <pt x="48" y="555" on="1"/>
        <pt x="59" y="710" on="1"/>
        <pt x="66" y="745" on="1"/>
        <pt x="81" y="889" on="1"/>
        <pt x="130" y="877" on="1"/>
        <pt x="193" y="830" on="1"/>
        <pt x="260" y="807" on="1"/>
        <pt x="376" y="721" on="1"/>
        <pt x="411" y="703" on="1"/>
        <pt x="411" y="162" on="1"/>
        <pt x="395" y="68" on="1"/>
        <pt x="337" y="78" on="1"/>
      </contour>
      <contour>
        <pt x="159" y="594" on="1"/>
        <pt x="179" y="584" on="1"/>
        <pt x="263" y="584" on="1"/>
        <pt x="263" y="682" on="1"/>
        <pt x="249" y="696" on="1"/>
        <pt x="169" y="708" on="1"/>
        <pt x="151" y="689" on="1"/>
        <pt x="151" y="619" on="1"/>
        <pt x="159" y="594" on="1"/>
      </contour>
      <contour>
        <pt x="195" y="628" on="1"/>
        <pt x="183" y="652" on="1"/>
        <pt x="193" y="661" on="1"/>
        <pt x="228" y="661" on="1"/>
        <pt x="228" y="619" on="1"/>
        <pt x="214" y="619" on="1"/>
        <pt x="195" y="628" on="1"/>
      </contour>
      <contour>
        <pt x="359" y="778" on="1"/>
        <pt x="277" y="844" on="1"/>
        <pt x="219" y="861" on="1"/>
        <pt x="165" y="907" on="1"/>
        <pt x="105" y="924" on="1"/>
        <pt x="117" y="937" on="1"/>
        <pt x="221" y="966" on="1"/>
        <pt x="282" y="954" on="1"/>
        <pt x="404" y="893" on="1"/>
        <pt x="476" y="866" on="1"/>
        <pt x="516" y="839" on="1"/>
        <pt x="573" y="820" on="1"/>
        <pt x="573" y="806" on="1"/>
        <pt x="514" y="768" on="1"/>
        <pt x="451" y="755" on="1"/>
        <pt x="428" y="744" on="1"/>
        <pt x="359" y="778" on="1"/>
      </contour>
    </TTGlyph>
    <TTGlyph name="period" xMin="18" yMin="2" xMax="412" yMax="379">
      <contour>
        <pt x="159" y="14" on="1"/>
        <pt x="259" y="2" on="1"/>
        <pt x="278" y="21" on="1"/>
        <pt x="363" y="49" on="1"/>
        <pt x="370" y="56" on="1"/>
        <pt x="391" y="63" on="1"/>
        <pt x="412" y="84" on="1"/>
        <pt x="412" y="260" on="1"/>
        <pt x="405" y="288" on="1"/>
        <pt x="398" y="324" on="1"/>
        <pt x="384" y="352" on="1"/>
        <pt x="292" y="352" on="1"/>
        <pt x="250" y="366" on="1"/>
        <pt x="172" y="379" on="1"/>
        <pt x="159" y="366" on="1"/>
        <pt x="145" y="359" on="1"/>
        <pt x="109" y="324" on="1"/>
        <pt x="39" y="260" on="1"/>
        <pt x="31" y="88" on="1"/>
        <pt x="18" y="49" on="1"/>
        <pt x="18" y="21" on="1"/>
        <pt x="159" y="14" on="1"/>
      </contour>
      <contour>
        <pt x="65" y="56" on="1"/>
        <pt x="74" y="232" on="1"/>
        <pt x="152" y="232" on="1"/>
        <pt x="173" y="225" on="1"/>
        <pt x="215" y="217" on="1"/>
        <pt x="225" y="46" on="1"/>
        <pt x="65" y="56" on="1"/>
      </contour>
      <contour>
        <pt x="257" y="120" on="1"/>
        <pt x="257" y="225" on="1"/>
        <pt x="299" y="253" on="1"/>
        <pt x="313" y="274" on="1"/>
        <pt x="350" y="301" on="1"/>
        <pt x="363" y="288" on="1"/>
        <pt x="370" y="253" on="1"/>
        <pt x="377" y="232" on="1"/>
        <pt x="377" y="113" on="1"/>
        <pt x="349" y="91" on="1"/>
        <pt x="338" y="81" on="1"/>
        <pt x="285" y="70" on="1"/>
        <pt x="264" y="63" on="1"/>
        <pt x="257" y="120" on="1"/>
      </contour>
      <contour>
        <pt x="236" y="260" on="1"/>
        <pt x="201" y="260" on="1"/>
        <pt x="180" y="267" on="1"/>
        <pt x="124" y="274" on="1"/>
        <pt x="152" y="302" on="1"/>
        <pt x="166" y="310" on="1"/>
        <pt x="190" y="341" on="1"/>
        <pt x="222" y="331" on="1"/>
        <pt x="236" y="324" on="1"/>
        <pt x="278" y="310" on="1"/>
        <pt x="257" y="274" on="1"/>
        <pt x="250" y="253" on="1"/>
        <pt x="236" y="260" on="1"/>
      </contour>
    </TTGlyph>
</ttFont>
